<svg xmlns="http://www.w3.org/2000/svg" xmlns:xlink="http://www.w3.org/1999/xlink" version="1.1" data-diagram-type="SEQUENCE" style="width:1539px;height:976px;background:#FFFFFF;" width="1539px" height="976px" viewBox="0 0 1539 976" zoomAndPan="magnify" preserveAspectRatio="none" contentStyleType="text/css"><?plantuml 1.2026.8?><defs/><g font-family="sans-serif" lengthAdjust="spacing"><rect x="210.368" y="199.695" width="1257.206" height="300" fill="none" style="stroke:#000;stroke-width:1.5;"/><rect x="229.368" y="295.094" width="1213.206" height="190.602" fill="none" style="stroke:#000;stroke-width:1.5;"/><rect x="229.368" y="728.758" width="999.902" height="177.602" fill="none" style="stroke:#000;stroke-width:1.5;"/><g><title>Coordinateur</title><rect x="55.311" y="86.297" width="8" height="879.195" fill="#000" fill-opacity="0"/><line x1="58.811" y1="86.297" x2="58.811" y2="965.492" style="stroke:#181818;stroke-width:0.5;stroke-dasharray:5,5;"/></g><g><title>Navigateur</title><rect x="241.868" y="86.297" width="8" height="879.195" fill="#000" fill-opacity="0"/><line x1="245.368" y1="86.297" x2="245.368" y2="965.492" style="stroke:#181818;stroke-width:0.5;stroke-dasharray:5,5;"/></g><g><title>Proxy d.acc.s</title><rect x="372.384" y="86.297" width="8" height="879.195" fill="#000" fill-opacity="0"/><line x1="375.884" y1="86.297" x2="375.884" y2="965.492" style="stroke:#181818;stroke-width:0.5;stroke-dasharray:5,5;"/></g><g><title>AdminLoginLimiter</title><rect x="602.573" y="86.297" width="8" height="879.195" fill="#000" fill-opacity="0"/><line x1="606.073" y1="86.297" x2="606.073" y2="965.492" style="stroke:#181818;stroke-width:0.5;stroke-dasharray:5,5;"/></g><g><title>RemoteUserAuthenticationMechanism</title><rect x="956.674" y="86.297" width="8" height="879.195" fill="#000" fill-opacity="0"/><line x1="960.174" y1="86.297" x2="960.174" y2="965.492" style="stroke:#181818;stroke-width:0.5;stroke-dasharray:5,5;"/></g><g><title>RemoteUserAuthentication</title><rect x="1209.771" y="86.297" width="8" height="879.195" fill="#000" fill-opacity="0"/><line x1="1213.271" y1="86.297" x2="1213.271" y2="965.492" style="stroke:#181818;stroke-width:0.5;stroke-dasharray:5,5;"/></g><g><title>Authentification formulaire</title><rect x="1423.074" y="86.297" width="8" height="879.195" fill="#000" fill-opacity="0"/><line x1="1426.574" y1="86.297" x2="1426.574" y2="965.492" style="stroke:#181818;stroke-width:0.5;stroke-dasharray:5,5;"/></g><text x="10" y="82.995" fill="#000" font-size="14" textLength="91.622">Coordinateur</text><ellipse cx="58.811" cy="18.5" rx="8" ry="8" fill="#E2E2F0" style="stroke:#181818;stroke-width:0.5;"/><path d="M58.811,26.5 L58.811,53.5 M45.811,34.5 L71.811,34.5 M58.811,53.5 L45.811,68.5 M58.811,53.5 L71.811,68.5" style="stroke:#181818;stroke-width:0.5;" fill="none"/><text x="203.656" y="82.995" fill="#000" font-size="14" textLength="77.424">Navigateur</text><path d="M224.868,42 L224.868,66 M224.868,54 L241.868,54" style="stroke:#181818;stroke-width:0.5;" fill="none"/><ellipse cx="253.868" cy="54" rx="12" ry="12" fill="#E2E2F0" style="stroke:#181818;stroke-width:0.5;"/><text x="324.684" y="66.698" fill="#000" font-size="14" textLength="96.4">Proxy d'accès</text><text x="297.08" y="82.995" fill="#000" font-size="14" textLength="151.607">(Pangolin, Authelia…)</text><path d="M355.384,25.703 L355.384,49.703 M355.384,37.703 L372.384,37.703" style="stroke:#181818;stroke-width:0.5;" fill="none"/><ellipse cx="384.384" cy="37.703" rx="12" ry="12" fill="#E2E2F0" style="stroke:#181818;stroke-width:0.5;"/><rect x="533.096" y="55" width="145.954" height="30.297" fill="#E2E2F0" style="stroke:#181818;stroke-width:0.5;" rx="2.5" ry="2.5"/><text x="540.096" y="74.995" fill="#000" font-size="14" textLength="131.954">AdminLoginLimiter</text><rect x="818.742" y="55" width="282.864" height="30.297" fill="#E2E2F0" style="stroke:#181818;stroke-width:0.5;" rx="2.5" ry="2.5"/><text x="825.742" y="74.995" fill="#000" font-size="14" textLength="268.864">RemoteUserAuthenticationMechanism</text><rect x="1111.606" y="55" width="203.328" height="30.297" fill="#E2E2F0" style="stroke:#181818;stroke-width:0.5;" rx="2.5" ry="2.5"/><text x="1118.606" y="74.995" fill="#000" font-size="14" textLength="189.328">RemoteUserAuthentication</text><text x="1329.31" y="66.698" fill="#000" font-size="14" textLength="188.528">Authentification formulaire</text><text x="1324.935" y="82.995" fill="#000" font-size="14" textLength="197.278">(Quarkus, utilisateur admin)</text><path d="M1406.074,25.703 L1406.074,49.703 M1406.074,37.703 L1423.074,37.703" style="stroke:#181818;stroke-width:0.5;" fill="none"/><ellipse cx="1435.074" cy="37.703" rx="12" ry="12" fill="#E2E2F0" style="stroke:#181818;stroke-width:0.5;"/><rect x="10" y="114.863" width="1518.213" height="3" fill="#EEE" style="stroke:#EEE;stroke-width:1;"/><line x1="10" y1="114.863" x2="1528.213" y2="114.863" style="stroke:#000;stroke-width:1;"/><line x1="10" y1="117.863" x2="1528.213" y2="117.863" style="stroke:#000;stroke-width:1;"/><rect x="690.975" y="104.297" width="156.264" height="23.133" fill="#EEE" style="stroke:#000;stroke-width:2;"/><text x="696.975" y="120.364" fill="#000" font-size="13" textLength="137.738" font-weight="700">Formulaire intégré</text><polygon points="233.368,154.563,243.368,158.563,233.368,162.563,237.368,158.563" fill="#181818" style="stroke:#181818;stroke-width:1;stroke-linejoin:miter;stroke-miterlimit:10;"/><line x1="58.811" y1="158.563" x2="239.368" y2="158.563" style="stroke:#181818;stroke-width:1;"/><text x="65.811" y="153.497" fill="#000" font-size="13" textLength="162.557">identifiant, mot de passe</text><polygon points="594.073,183.695,604.073,187.695,594.073,191.695,598.073,187.695" fill="#181818" style="stroke:#181818;stroke-width:1;stroke-linejoin:miter;stroke-miterlimit:10;"/><line x1="245.368" y1="187.695" x2="600.073" y2="187.695" style="stroke:#181818;stroke-width:1;"/><text x="252.368" y="182.629" fill="#000" font-size="13" textLength="149.354">POST /j_security_check</text><path d="M210.368,199.695 L274.811,199.695 L274.811,206.828 L264.811,216.828 L210.368,216.828 L210.368,199.695" style="stroke:#000;stroke-width:1.5;" fill="#EEE"/><rect x="210.368" y="199.695" width="1257.206" height="300" fill="none" style="stroke:#000;stroke-width:1.5;"/><text x="225.368" y="212.762" fill="#000" font-size="13" textLength="19.443" font-weight="700">alt</text><text x="289.811" y="211.906" fill="#000" font-size="11" textLength="230.366" font-weight="700">[adresse bloquée (5 échecs, 15 min)]</text><polygon points="256.368,243.961,246.368,247.961,256.368,251.961,252.368,247.961" fill="#181818" style="stroke:#181818;stroke-width:1;stroke-linejoin:miter;stroke-miterlimit:10;"/><line x1="250.368" y1="247.961" x2="605.073" y2="247.961" style="stroke:#181818;stroke-width:1;stroke-dasharray:2,2;"/><text x="262.368" y="242.895" fill="#000" font-size="13" textLength="336.705">429 + Retry-After, même avec le bon mot de passe</text><line x1="210.368" y1="256.961" x2="1467.574" y2="256.961" style="stroke:#000;stroke-width:1;stroke-dasharray:2,2;"/><polygon points="1414.574,279.094,1424.574,283.094,1414.574,287.094,1418.574,283.094" fill="#181818" style="stroke:#181818;stroke-width:1;stroke-linejoin:miter;stroke-miterlimit:10;"/><line x1="606.073" y1="283.094" x2="1420.574" y2="283.094" style="stroke:#181818;stroke-width:1;"/><text x="613.073" y="278.028" fill="#000" font-size="13" textLength="119.526">requête transmise</text><path d="M229.368,295.094 L293.811,295.094 L293.811,302.227 L283.811,312.227 L229.368,312.227 L229.368,295.094" style="stroke:#000;stroke-width:1.5;" fill="#EEE"/><rect x="229.368" y="295.094" width="1213.206" height="190.602" fill="none" style="stroke:#000;stroke-width:1.5;"/><text x="244.368" y="308.161" fill="#000" font-size="13" textLength="19.443" font-weight="700">alt</text><text x="308.811" y="307.304" fill="#000" font-size="11" textLength="141.174" font-weight="700">[mot de passe correct]</text><polygon points="256.368,354.492,246.368,358.492,256.368,362.492,252.368,358.492" fill="#181818" style="stroke:#181818;stroke-width:1;stroke-linejoin:miter;stroke-miterlimit:10;"/><line x1="250.368" y1="358.492" x2="1425.574" y2="358.492" style="stroke:#181818;stroke-width:1;stroke-dasharray:2,2;"/><text x="262.368" y="338.293" fill="#000" font-size="13" textLength="306.014">cookie planning-session (8 h, SameSite=Strict)</text><text x="262.368" y="353.426" fill="#000" font-size="13" textLength="144.542">puis GET /api/auth/me</text><line x1="606.073" y1="387.625" x2="648.073" y2="387.625" style="stroke:#181818;stroke-width:1;"/><line x1="648.073" y1="387.625" x2="648.073" y2="400.625" style="stroke:#181818;stroke-width:1;"/><line x1="607.073" y1="400.625" x2="648.073" y2="400.625" style="stroke:#181818;stroke-width:1;"/><polygon points="617.073,396.625,607.073,400.625,617.073,404.625,613.073,400.625" fill="#181818" style="stroke:#181818;stroke-width:1;stroke-linejoin:miter;stroke-miterlimit:10;"/><text x="613.073" y="382.559" fill="#000" font-size="13" textLength="340.101">successfulLogin(contexte) remet le compteur à zéro</text><line x1="229.368" y1="409.625" x2="1442.574" y2="409.625" style="stroke:#000;stroke-width:1;stroke-dasharray:2,2;"/><text x="234.368" y="421.835" fill="#000" font-size="11" textLength="45.848" font-weight="700">[échec]</text><polygon points="617.073,444.563,607.073,448.563,617.073,452.563,613.073,448.563" fill="#181818" style="stroke:#181818;stroke-width:1;stroke-linejoin:miter;stroke-miterlimit:10;"/><line x1="611.073" y1="448.563" x2="1425.574" y2="448.563" style="stroke:#181818;stroke-width:1;"/><text x="623.073" y="443.497" fill="#000" font-size="13" textLength="247.508">onFailure(AuthenticationFailureEvent)</text><polygon points="256.368,473.695,246.368,477.695,256.368,481.695,252.368,477.695" fill="#181818" style="stroke:#181818;stroke-width:1;stroke-linejoin:miter;stroke-miterlimit:10;"/><line x1="250.368" y1="477.695" x2="1425.574" y2="477.695" style="stroke:#181818;stroke-width:1;stroke-dasharray:2,2;"/><text x="262.368" y="472.629" fill="#000" font-size="13" textLength="136.608">401 sur /api/auth/me</text><rect x="10" y="534.262" width="1518.213" height="3" fill="#EEE" style="stroke:#EEE;stroke-width:1;"/><line x1="10" y1="534.262" x2="1528.213" y2="534.262" style="stroke:#000;stroke-width:1;"/><line x1="10" y1="537.262" x2="1528.213" y2="537.262" style="stroke:#000;stroke-width:1;"/><rect x="581.655" y="523.695" width="374.902" height="23.133" fill="#EEE" style="stroke:#000;stroke-width:2;"/><text x="587.655" y="539.762" fill="#000" font-size="13" textLength="356.376" font-weight="700">Mode « remote user » (REMOTE_USER_ENABLED)</text><polygon points="363.884,573.961,373.884,577.961,363.884,581.961,367.884,577.961" fill="#181818" style="stroke:#181818;stroke-width:1;stroke-linejoin:miter;stroke-miterlimit:10;"/><line x1="58.811" y1="577.961" x2="369.884" y2="577.961" style="stroke:#181818;stroke-width:1;"/><text x="65.811" y="572.895" fill="#000" font-size="13" textLength="140.131">se connecte au proxy</text><polygon points="948.174,618.227,958.174,622.227,948.174,626.227,952.174,622.227" fill="#181818" style="stroke:#181818;stroke-width:1;stroke-linejoin:miter;stroke-miterlimit:10;"/><line x1="375.884" y1="622.227" x2="954.174" y2="622.227" style="stroke:#181818;stroke-width:1;"/><text x="382.884" y="602.028" fill="#000" font-size="13" textLength="227.221">requête /api/… avec Remote-Email</text><text x="382.884" y="617.161" fill="#000" font-size="13" textLength="149.659">et Remote-Auth-Secret</text><polygon points="1201.271,647.359,1211.271,651.359,1201.271,655.359,1205.271,651.359" fill="#181818" style="stroke:#181818;stroke-width:1;stroke-linejoin:miter;stroke-miterlimit:10;"/><line x1="960.174" y1="651.359" x2="1207.271" y2="651.359" style="stroke:#181818;stroke-width:1;"/><text x="967.174" y="646.293" fill="#000" font-size="13" textLength="140.131">trustedEmail(en-tête)</text><path d="M1218.271,664.359 L1218.271,719.359 L1466.271,719.359 L1466.271,674.359 L1456.271,664.359 L1218.271,664.359" style="stroke:#181818;stroke-width:0.5;" fill="#FEFFDD"/><path d="M1456.271,664.359 L1456.271,674.359 L1466.271,674.359 L1456.271,664.359" style="stroke:#181818;stroke-width:0.5;" fill="#FEFFDD"/><text x="1224.271" y="681.426" fill="#000" font-size="13" textLength="227.989">secret comparé à temps constant ;</text><text x="1224.271" y="696.559" fill="#000" font-size="13" textLength="226.897">sans secret configuré, l'application</text><text x="1224.271" y="711.692" fill="#000" font-size="13" textLength="126.356">refuse de démarrer</text><path d="M229.368,728.758 L293.811,728.758 L293.811,735.891 L283.811,745.891 L229.368,745.891 L229.368,728.758" style="stroke:#000;stroke-width:1.5;" fill="#EEE"/><rect x="229.368" y="728.758" width="999.902" height="177.602" fill="none" style="stroke:#000;stroke-width:1.5;"/><text x="244.368" y="741.825" fill="#000" font-size="13" textLength="19.443" font-weight="700">alt</text><text x="308.811" y="740.968" fill="#000" font-size="11" textLength="313.731" font-weight="700">[e-mail = planning.auth.remote-user.admin-email]</text><polygon points="1201.271,773.023,1211.271,777.023,1201.271,781.023,1205.271,777.023" fill="#181818" style="stroke:#181818;stroke-width:1;stroke-linejoin:miter;stroke-miterlimit:10;"/><line x1="960.174" y1="777.023" x2="1207.271" y2="777.023" style="stroke:#181818;stroke-width:1;"/><text x="967.174" y="771.958" fill="#000" font-size="13" textLength="98.04">isAdmin(email)</text><polygon points="971.174,802.156,961.174,806.156,971.174,810.156,967.174,806.156" fill="#181818" style="stroke:#181818;stroke-width:1;stroke-linejoin:miter;stroke-miterlimit:10;"/><line x1="965.174" y1="806.156" x2="1212.271" y2="806.156" style="stroke:#181818;stroke-width:1;stroke-dasharray:2,2;"/><text x="977.174" y="801.09" fill="#000" font-size="13" textLength="24.616">vrai</text><polygon points="256.368,831.289,246.368,835.289,256.368,839.289,252.368,835.289" fill="#181818" style="stroke:#181818;stroke-width:1;stroke-linejoin:miter;stroke-miterlimit:10;"/><line x1="250.368" y1="835.289" x2="959.174" y2="835.289" style="stroke:#181818;stroke-width:1;stroke-dasharray:2,2;"/><text x="262.368" y="830.223" fill="#000" font-size="13" textLength="204.229">identité admin, sans formulaire</text><line x1="229.368" y1="844.289" x2="1229.271" y2="844.289" style="stroke:#000;stroke-width:1;stroke-dasharray:2,2;"/><text x="234.368" y="856.5" fill="#000" font-size="11" textLength="134.229" font-weight="700">[autre e-mail attesté]</text><polygon points="256.368,894.359,246.368,898.359,256.368,902.359,252.368,898.359" fill="#181818" style="stroke:#181818;stroke-width:1;stroke-linejoin:miter;stroke-miterlimit:10;"/><line x1="250.368" y1="898.359" x2="959.174" y2="898.359" style="stroke:#181818;stroke-width:1;stroke-dasharray:2,2;"/><text x="262.368" y="878.161" fill="#000" font-size="13" textLength="142.232">pas d'identité admin :</text><text x="262.368" y="893.293" fill="#000" font-size="13" textLength="374.766">l'espace animateur l'utilise à la place du code à 6 chiffres</text><path d="M798.921,925.359 L798.921,950.359 L1120.921,950.359 L1120.921,935.359 L1110.921,925.359 L798.921,925.359" style="stroke:#181818;stroke-width:0.5;" fill="#FEFFDD"/><path d="M1110.921,925.359 L1110.921,935.359 L1120.921,935.359 L1110.921,925.359" style="stroke:#181818;stroke-width:0.5;" fill="#FEFFDD"/><text x="804.921" y="942.426" fill="#000" font-size="13" textLength="301.507">/mcp est ignoré : la clé MCP y reste seule juge</text><?plantuml-src ZLLDRzj64BtpLmpSWoLKb9iYALeN2k2uSYzsubf9JmACzMf8RKpkilkXs3trf_IKLEbFw2ty9_qbVRkKB2hneGPCYDpPj_FUl9azf7DsjE1mHuLeFnYDbqFMth8bQUgQyJHseRJm72mTKyLK65k7IYZBfBHlrwLjroCgXLsqw-oG6c4fQ5gnjIQaDx6mx1oFY3rLGCzz-z4p3a9OOytTFNuAATk_70qA8KFbXLV525X0T49wjMhN2GdlXGX-EAPpGRB2rulJomsiQuHa4bhLNQv6upD-k7X6WmmYdXAb5Q3bnlIhKG0qqXs9HethnOW-_KqdmIz1NnLA8WUZwTC_uypTAetJHKqtGjwMeAKNfwOobhuwIt-z29pJG4M-06DHyWkkpBiJAF6El0sSBTKY2cZyZRdBCb03oC5fJ-834Ww2rKfdD_4SOU_fuALOgNAtN5XmworVxcauruDBeKjJAJtg-5HA_Fl7-s7Qc_JEaAjNKZK26ft4myvDYOUgbKVX4TPLRo_kYclZ-OrZknMfa-Y2vHAgkphkiodeV-sBuTBeGWajkSVcYnBi_0PglmHXRuCRKV2gKguhTTAhunU3ismoeRD7N4gJIPPYAN_UgGX7eoBfDEGw8gIARe3NuDUiYq3enil7TFbgzfgEtbuxbi4gVtyjbonlCr7vhSdffZA_XNRDD7X6xJgk8zadpoXccD4MAkybyFJR7-XhoEJjVNvIe018e_s8rXChbh7XRY32Nc9SuR73UfvO0yaoZewjvQtGhbOfAYRNtmtHhMNfiKJTnduoQFTRXSXAQArqcJkGYaKOV4_B4Sr4pJDuP3BpLaa_dEicA4S_Jw4AkkW8lRaygZb1xx9xaCy5AO5NX2hvRO3oUxxpF8o-YLqSawkRLDFsJ_gzNLi3h4XtesKlwHwkqMT2LS7oODzYcw_J5JuD7-Vxz9idICj-dZxhHHR_evCk3AJ3REYyJG5EnbYWmTNqujNhwVMRsVJgUlhovCNvzAVXdiEwsGRQaPRMq1mr3TiMJ8k8si3sgfToGSTs1kZw9v_M83FNl6seF5BDPomj-so30RI7ZW8W9expl4Wx1zknEynq3BMgN7eonTu6bz1I3KHi5zJ0SzsaFdK-DlEFS-rWhLqaDfSXNG3LeMYQQgFyN5ike5Hq7OPsBM0vc_g4yvWEJHuiDewgZpi6UHHtd0JCESQX58zpKoxDhK6AYhNTBUPzKLTMg1x85tsFoT2DZn4bOhjXaxeCzS9Tk4rQUCyEEnu7H7TX27y6IyTp_SZbL1rsyukZnfM8Oc1z4K1ZaRvzHtAfYY9UMz67gMO6XjynEwfbGqY7LAbDhDPn17gu5E_ZLOH0nm5jzJQK_1y0?></g></svg>