<svg xmlns="http://www.w3.org/2000/svg" xmlns:xlink="http://www.w3.org/1999/xlink" version="1.1" data-diagram-type="CLASS" style="width:1517px;height:634px;background:#FFFFFF;" width="1517px" height="634px" viewBox="0 0 1517 634" zoomAndPan="magnify" preserveAspectRatio="none" contentStyleType="text/css"><?plantuml 1.2026.8?><defs/><g font-family="sans-serif" lengthAdjust="spacing"><!--class PlanningEvenement--><g class="entity" data-qualified-name="PlanningEvenement" id="ent0001" data-source-line="12"><rect x="561.5" y="12" width="525.83" height="178.641" fill="#F1F1F1" style="stroke:#181818;stroke-width:0.5;" rx="2.5" ry="2.5"/><ellipse cx="750.09" cy="32.133" rx="11" ry="11" fill="#ADD1B2" style="stroke:#181818;stroke-width:1;"/><path d="M753.059,37.773 Q752.48,38.07 751.84,38.211 Q751.199,38.367 750.496,38.367 Q747.996,38.367 746.668,36.727 Q745.355,35.07 745.355,31.945 Q745.355,28.82 746.668,27.164 Q747.996,25.508 750.496,25.508 Q751.199,25.508 751.84,25.664 Q752.496,25.82 753.059,26.117 L753.059,28.836 Q752.434,28.258 751.84,27.992 Q751.246,27.711 750.621,27.711 Q749.277,27.711 748.59,28.789 Q747.902,29.852 747.902,31.945 Q747.902,34.039 748.59,35.117 Q749.277,36.18 750.621,36.18 Q751.246,36.18 751.84,35.914 Q752.434,35.633 753.059,35.055 L753.059,37.773 Z " fill="#000"/><text x="777.035" y="28.139" fill="#000" font-size="12" textLength="127.26" font-style="italic">«@PlanningSolution»</text><text x="770.59" y="43.964" fill="#000" font-size="14" textLength="140.15">PlanningEvenement</text><line x1="562.5" y1="52.266" x2="1086.33" y2="52.266" style="stroke:#181818;stroke-width:0.5;"/><text x="567.5" y="69.261" fill="#000" font-size="14" textLength="513.83">animateurs : List&lt;Animateur> «@ValueRangeProvider animateurRange»</text><text x="567.5" y="85.558" fill="#000" font-size="14" textLength="488.53">postes : List&lt;PosteAffectation> «@PlanningEntityCollectionProperty»</text><text x="567.5" y="101.854" fill="#000" font-size="14" textLength="305.081">contraintesAdHoc : List&lt;ContrainteAdHoc></text><text x="567.5" y="118.151" fill="#000" font-size="14" textLength="297.637">verrouillages : List&lt;VerrouillagePlanning></text><text x="567.5" y="134.448" fill="#000" font-size="14" textLength="330.818">affectationsPubliees : List&lt;AffectationPubliee></text><text x="567.5" y="150.745" fill="#000" font-size="14" textLength="295.326">quotasTypologies : List&lt;QuotaTypologie></text><text x="567.5" y="167.042" fill="#000" font-size="14" textLength="180.722">pastHorizon : PastHorizon</text><text x="567.5" y="183.339" fill="#000" font-size="14" textLength="344.066">score : HardMediumSoftScore «@PlanningScore»</text></g><!--class PosteAffectation--><g class="entity" data-qualified-name="PosteAffectation" id="ent0002" data-source-line="23"><rect x="197" y="246" width="458.858" height="178.641" fill="#F1F1F1" style="stroke:#181818;stroke-width:0.5;" rx="2.5" ry="2.5"/><ellipse cx="364.662" cy="266.133" rx="11" ry="11" fill="#ADD1B2" style="stroke:#181818;stroke-width:1;"/><path d="M367.63,271.773 Q367.052,272.07 366.412,272.211 Q365.771,272.367 365.068,272.367 Q362.568,272.367 361.24,270.727 Q359.927,269.07 359.927,265.945 Q359.927,262.82 361.24,261.164 Q362.568,259.508 365.068,259.508 Q365.771,259.508 366.412,259.664 Q367.068,259.82 367.63,260.117 L367.63,262.836 Q367.005,262.258 366.412,261.992 Q365.818,261.711 365.193,261.711 Q363.849,261.711 363.162,262.789 Q362.474,263.852 362.474,265.945 Q362.474,268.039 363.162,269.117 Q363.849,270.18 365.193,270.18 Q365.818,270.18 366.412,269.914 Q367.005,269.633 367.63,269.055 L367.63,271.773 Z " fill="#000"/><text x="385.975" y="262.139" fill="#000" font-size="12" textLength="113.408" font-style="italic">«@PlanningEntity»</text><text x="385.162" y="277.964" fill="#000" font-size="14" textLength="115.035">PosteAffectation</text><line x1="198" y1="286.266" x2="654.858" y2="286.266" style="stroke:#181818;stroke-width:0.5;"/><text x="203" y="303.261" fill="#000" font-size="14" textLength="177.078">id : String «@PlanningId»</text><text x="203" y="319.558" fill="#000" font-size="14" textLength="93.454">stand : Stand</text><text x="203" y="335.854" fill="#000" font-size="14" textLength="129.705">creneau : Creneau</text><text x="203" y="352.151" fill="#000" font-size="14" textLength="229.503">heureDebutEffective : LocalTime</text><text x="203" y="368.448" fill="#000" font-size="14" textLength="207.676">heureFinEffective : LocalTime</text><text x="203" y="384.745" fill="#000" font-size="14" textLength="446.858">animateur : Animateur «@PlanningVariable, allowsUnassigned»</text><text x="203" y="401.042" fill="#000" font-size="14" textLength="252.813">verrouille : boolean «@PlanningPin»</text><text x="203" y="417.339" fill="#000" font-size="14" textLength="110.257">passe : boolean</text></g><!--class Animateur--><g class="entity" data-qualified-name="Animateur" id="ent0003" data-source-line="34"><rect x="6" y="480" width="397.068" height="137.781" fill="#F1F1F1" style="stroke:#181818;stroke-width:0.5;" rx="2.5" ry="2.5"/><ellipse cx="163.64" cy="496" rx="11" ry="11" fill="#ADD1B2" style="stroke:#181818;stroke-width:1;"/><path d="M166.609,501.641 Q166.031,501.938 165.39,502.078 Q164.75,502.234 164.046,502.234 Q161.546,502.234 160.218,500.594 Q158.906,498.938 158.906,495.813 Q158.906,492.688 160.218,491.031 Q161.546,489.375 164.046,489.375 Q164.75,489.375 165.39,489.531 Q166.046,489.688 166.609,489.984 L166.609,492.703 Q165.984,492.125 165.39,491.859 Q164.796,491.578 164.171,491.578 Q162.828,491.578 162.14,492.656 Q161.453,493.719 161.453,495.813 Q161.453,497.906 162.14,498.984 Q162.828,500.047 164.171,500.047 Q164.796,500.047 165.39,499.781 Q165.984,499.5 166.609,498.922 L166.609,501.641 Z " fill="#000"/><text x="184.14" y="500.847" fill="#000" font-size="14" textLength="73.288">Animateur</text><line x1="7" y1="512" x2="402.068" y2="512" style="stroke:#181818;stroke-width:0.5;"/><text x="12" y="528.995" fill="#000" font-size="14" textLength="68.175">id : String</text><text x="12" y="545.292" fill="#000" font-size="14" textLength="186.471">dateNaissance : LocalDate</text><text x="12" y="561.589" fill="#000" font-size="14" textLength="385.068">competences : Map&lt;typologieId, NiveauCompetence></text><text x="12" y="577.886" fill="#000" font-size="14" textLength="197.012">souhaits : Set&lt;typologieId></text><text x="12" y="594.183" fill="#000" font-size="14" textLength="256.409">joursIndisponibles : Set&lt;LocalDate></text><text x="12" y="610.479" fill="#000" font-size="14" textLength="103.694">ninja : boolean</text></g><!--class Stand--><g class="entity" data-qualified-name="Stand" id="ent0004" data-source-line="43"><rect x="640" y="480" width="294.55" height="137.781" fill="#F1F1F1" style="stroke:#181818;stroke-width:0.5;" rx="2.5" ry="2.5"/><ellipse cx="762.667" cy="496" rx="11" ry="11" fill="#ADD1B2" style="stroke:#181818;stroke-width:1;"/><path d="M765.636,501.641 Q765.058,501.938 764.417,502.078 Q763.777,502.234 763.074,502.234 Q760.574,502.234 759.246,500.594 Q757.933,498.938 757.933,495.813 Q757.933,492.688 759.246,491.031 Q760.574,489.375 763.074,489.375 Q763.777,489.375 764.417,489.531 Q765.074,489.688 765.636,489.984 L765.636,492.703 Q765.011,492.125 764.417,491.859 Q763.824,491.578 763.199,491.578 Q761.855,491.578 761.167,492.656 Q760.48,493.719 760.48,495.813 Q760.48,497.906 761.167,498.984 Q761.855,500.047 763.199,500.047 Q763.824,500.047 764.417,499.781 Q765.011,499.5 765.636,498.922 L765.636,501.641 Z " fill="#000"/><text x="783.167" y="500.847" fill="#000" font-size="14" textLength="40.715">Stand</text><line x1="641" y1="512" x2="933.55" y2="512" style="stroke:#181818;stroke-width:0.5;"/><text x="646" y="528.995" fill="#000" font-size="14" textLength="68.175">id : String</text><text x="646" y="545.292" fill="#000" font-size="14" textLength="282.55">typologiesProposees : Set&lt;typologieId></text><text x="646" y="561.589" fill="#000" font-size="14" textLength="105.8">effectifMin : int</text><text x="646" y="577.886" fill="#000" font-size="14" textLength="109.901">effectifMax : int</text><text x="646" y="594.183" fill="#000" font-size="14" textLength="206.91">emplacement : Emplacement</text><text x="646" y="610.479" fill="#000" font-size="14" textLength="249.662">ouvertures : List&lt;OuvertureStand></text></g><!--class Creneau--><g class="entity" data-qualified-name="Creneau" id="ent0005" data-source-line="52"><rect x="421.5" y="488.5" width="199.913" height="121.484" fill="#F1F1F1" style="stroke:#181818;stroke-width:0.5;" rx="2.5" ry="2.5"/><ellipse cx="487.665" cy="504.5" rx="11" ry="11" fill="#ADD1B2" style="stroke:#181818;stroke-width:1;"/><path d="M490.634,510.141 Q490.056,510.438 489.415,510.578 Q488.774,510.734 488.071,510.734 Q485.571,510.734 484.243,509.094 Q482.931,507.438 482.931,504.313 Q482.931,501.188 484.243,499.531 Q485.571,497.875 488.071,497.875 Q488.774,497.875 489.415,498.031 Q490.071,498.188 490.634,498.484 L490.634,501.203 Q490.009,500.625 489.415,500.359 Q488.821,500.078 488.196,500.078 Q486.853,500.078 486.165,501.156 Q485.478,502.219 485.478,504.313 Q485.478,506.406 486.165,507.484 Q486.853,508.547 488.196,508.547 Q488.821,508.547 489.415,508.281 Q490.009,508 490.634,507.422 L490.634,510.141 Z " fill="#000"/><text x="508.165" y="509.347" fill="#000" font-size="14" textLength="59.083">Creneau</text><line x1="422.5" y1="520.5" x2="620.413" y2="520.5" style="stroke:#181818;stroke-width:0.5;"/><text x="427.5" y="537.495" fill="#000" font-size="14" textLength="60.519">id : Long</text><text x="427.5" y="553.792" fill="#000" font-size="14" textLength="115.179">date : LocalDate</text><text x="427.5" y="570.089" fill="#000" font-size="14" textLength="168.212">heureDebut : LocalTime</text><text x="427.5" y="586.386" fill="#000" font-size="14" textLength="146.385">heureFin : LocalTime</text><text x="427.5" y="602.683" fill="#000" font-size="14" textLength="187.913">couverturePause : boolean</text></g><!--class ContrainteAdHoc--><g class="entity" data-qualified-name="ContrainteAdHoc" id="ent0006" data-source-line="60"><rect x="674.5" y="283" width="300.483" height="105.188" fill="#F1F1F1" style="stroke:#181818;stroke-width:0.5;" rx="2.5" ry="2.5"/><ellipse cx="760.913" cy="299" rx="11" ry="11" fill="#ADD1B2" style="stroke:#181818;stroke-width:1;"/><path d="M763.882,304.641 Q763.304,304.938 762.663,305.078 Q762.022,305.234 761.319,305.234 Q758.819,305.234 757.491,303.594 Q756.179,301.938 756.179,298.813 Q756.179,295.688 757.491,294.031 Q758.819,292.375 761.319,292.375 Q762.022,292.375 762.663,292.531 Q763.319,292.688 763.882,292.984 L763.882,295.703 Q763.257,295.125 762.663,294.859 Q762.069,294.578 761.444,294.578 Q760.101,294.578 759.413,295.656 Q758.726,296.719 758.726,298.813 Q758.726,300.906 759.413,301.984 Q760.101,303.047 761.444,303.047 Q762.069,303.047 762.663,302.781 Q763.257,302.5 763.882,301.922 L763.882,304.641 Z " fill="#000"/><text x="781.413" y="303.847" fill="#000" font-size="14" textLength="119.157">ContrainteAdHoc</text><line x1="675.5" y1="315" x2="973.983" y2="315" style="stroke:#181818;stroke-width:0.5;"/><text x="680.5" y="331.995" fill="#000" font-size="14" textLength="198.386">type : TypeContrainteAdHoc</text><text x="680.5" y="348.292" fill="#000" font-size="14" textLength="288.483">animateursConcernes : List&lt;Animateur></text><text x="680.5" y="364.589" fill="#000" font-size="14" textLength="129.705">creneau : Creneau</text><text x="680.5" y="380.886" fill="#000" font-size="14" textLength="93.454">stand : Stand</text></g><!--class VerrouillagePlanning--><g class="entity" data-qualified-name="VerrouillagePlanning" id="ent0007" data-source-line="67"><rect x="993" y="283" width="177.195" height="105.188" fill="#F1F1F1" style="stroke:#181818;stroke-width:0.5;" rx="2.5" ry="2.5"/><ellipse cx="1008" cy="299" rx="11" ry="11" fill="#ADD1B2" style="stroke:#181818;stroke-width:1;"/><path d="M1010.969,304.641 Q1010.391,304.938 1009.75,305.078 Q1009.109,305.234 1008.406,305.234 Q1005.906,305.234 1004.578,303.594 Q1003.266,301.938 1003.266,298.813 Q1003.266,295.688 1004.578,294.031 Q1005.906,292.375 1008.406,292.375 Q1009.109,292.375 1009.75,292.531 Q1010.406,292.688 1010.969,292.984 L1010.969,295.703 Q1010.344,295.125 1009.75,294.859 Q1009.156,294.578 1008.531,294.578 Q1007.188,294.578 1006.5,295.656 Q1005.813,296.719 1005.813,298.813 Q1005.813,300.906 1006.5,301.984 Q1007.188,303.047 1008.531,303.047 Q1009.156,303.047 1009.75,302.781 Q1010.344,302.5 1010.969,301.922 L1010.969,304.641 Z " fill="#000"/><text x="1022" y="303.847" fill="#000" font-size="14" textLength="145.195">VerrouillagePlanning</text><line x1="994" y1="315" x2="1169.195" y2="315" style="stroke:#181818;stroke-width:0.5;"/><text x="999" y="331.995" fill="#000" font-size="14" textLength="164.117">type : TypeVerrouillage</text><text x="999" y="348.292" fill="#000" font-size="14" textLength="140.704">animateurId : String</text><text x="999" y="364.589" fill="#000" font-size="14" textLength="107.536">standId : String</text><text x="999" y="380.886" fill="#000" font-size="14" textLength="117.763">creneauId : Long</text></g><!--class AffectationPubliee--><g class="entity" data-qualified-name="AffectationPubliee" id="ent0008" data-source-line="74"><rect x="1231.5" y="270.5" width="180.212" height="129.75" fill="#F1F1F1" style="stroke:#181818;stroke-width:0.5;" rx="2.5" ry="2.5"/><ellipse cx="1255.668" cy="290.633" rx="11" ry="11" fill="#ADD1B2" style="stroke:#181818;stroke-width:1;"/><path d="M1258.637,296.273 Q1258.058,296.57 1257.418,296.711 Q1256.777,296.867 1256.074,296.867 Q1253.574,296.867 1252.246,295.227 Q1250.933,293.57 1250.933,290.445 Q1250.933,287.32 1252.246,285.664 Q1253.574,284.008 1256.074,284.008 Q1256.777,284.008 1257.418,284.164 Q1258.074,284.32 1258.637,284.617 L1258.637,287.336 Q1258.012,286.758 1257.418,286.492 Q1256.824,286.211 1256.199,286.211 Q1254.855,286.211 1254.168,287.289 Q1253.48,288.352 1253.48,290.445 Q1253.48,292.539 1254.168,293.617 Q1254.855,294.68 1256.199,294.68 Q1256.824,294.68 1257.418,294.414 Q1258.012,294.133 1258.637,293.555 L1258.637,296.273 Z " fill="#000"/><text x="1308.879" y="286.639" fill="#000" font-size="12" textLength="53.49" font-style="italic">«record»</text><text x="1271.705" y="302.464" fill="#000" font-size="14" textLength="127.839">AffectationPubliee</text><line x1="1232.5" y1="310.766" x2="1410.712" y2="310.766" style="stroke:#181818;stroke-width:0.5;"/><text x="1237.5" y="327.761" fill="#000" font-size="14" textLength="107.536">standId : String</text><text x="1237.5" y="344.058" fill="#000" font-size="14" textLength="115.179">date : LocalDate</text><text x="1237.5" y="360.354" fill="#000" font-size="14" textLength="168.212">heureDebut : LocalTime</text><text x="1237.5" y="376.651" fill="#000" font-size="14" textLength="146.385">heureFin : LocalTime</text><text x="1237.5" y="392.948" fill="#000" font-size="14" textLength="140.704">animateurId : String</text></g><g class="entity" data-qualified-name="GMN20" id="ent0021" data-source-line="95"><path d="M953,529 L953,569.266 A0,0 0 0 0 953,569.266 L1210.044,569.266 A0,0 0 0 0 1210.044,569.266 L1210.044,539 L1200.044,529 L1085.5,529 L1081.5,388.239 L1077.5,529 L953,529 A0,0 0 0 0 953,529" style="stroke:#181818;stroke-width:0.5;" fill="#FEFFDD"/><path d="M1200.044,529 L1200.044,539 L1210.044,539 L1200.044,529" style="stroke:#181818;stroke-width:0.5;" fill="#FEFFDD"/><text x="959" y="546.067" fill="#000" font-size="13" textLength="214.633">désigne par identifiants ; épingle</text><text x="959" y="561.2" fill="#000" font-size="13" textLength="236.044">(verrouille) les postes avant le solve</text></g><g class="entity" data-qualified-name="GMN23" id="ent0024" data-source-line="99"><path d="M1228,521.5 L1228,576.898 A0,0 0 0 0 1228,576.898 L1500.862,576.898 A0,0 0 0 0 1500.862,576.898 L1500.862,531.5 L1490.862,521.5 L1363.087,521.5 L1334.518,400.531 L1355.087,521.5 L1228,521.5 A0,0 0 0 0 1228,521.5" style="stroke:#181818;stroke-width:0.5;" fill="#FEFFDD"/><path d="M1490.862,521.5 L1490.862,531.5 L1500.862,531.5 L1490.862,521.5" style="stroke:#181818;stroke-width:0.5;" fill="#FEFFDD"/><text x="1234" y="538.567" fill="#000" font-size="13" textLength="177.169">le plan publié, clé naturelle</text><text x="1234" y="553.7" fill="#000" font-size="13" textLength="251.862">(jour, heures, stand) : la règle medium</text><text x="1234" y="568.833" fill="#000" font-size="13" textLength="192.62">de stabilité compte les écarts</text></g><g class="link" data-entity-1="ent0001" data-entity-2="ent0002" id="lnk9" data-link-type="composition"><polygon points="672.614,191.037,665.416,190.603,662.247,197.08,669.445,197.514,672.614,191.037" fill="#181818" style="stroke:#181818;stroke-width:1;stroke-linejoin:miter;stroke-miterlimit:10;"/><path d="M662.247,197.08 C631.398,215.062 609.314,227.935 578.463,245.919" style="stroke:#181818;stroke-width:1;" fill="none"/><text x="639.5" y="223.067" fill="#000" font-size="13" textLength="42.847">postes</text><text x="571.463" y="241.985" fill="#000" font-size="13">*</text><text x="663.614" y="204.104" fill="#000" font-size="13">1</text></g><g class="link" data-entity-1="ent0001" data-entity-2="ent0003" id="lnk10" data-link-type="aggregation"><polygon points="561.092,121.061,554.708,117.707,549.157,122.309,555.541,125.663,561.092,121.061" fill="none" style="stroke:#181818;stroke-width:1;stroke-linejoin:miter;stroke-miterlimit:10;"/><path d="M549.157,122.309 C370.035,141.05 167.531,176.367 110.5,246 C60.092,307.547 85.001,349.642 110.5,425 C117.047,444.348 127.991,463.049 140.145,479.782" style="stroke:#181818;stroke-width:1;" fill="none"/><text x="112.5" y="340.067" fill="#000" font-size="13" textLength="73.899">animateurs</text><text x="133.145" y="475.848" fill="#000" font-size="13">*</text><text x="552.092" y="117.127" fill="#000" font-size="13">1</text></g><g class="link" data-entity-1="ent0001" data-entity-2="ent0006" id="lnk11" data-link-type="aggregation"><polygon points="824.5,191.202,820.5,197.202,824.5,203.202,828.5,197.202,824.5,191.202" fill="none" style="stroke:#181818;stroke-width:1;stroke-linejoin:miter;stroke-miterlimit:10;"/><path d="M824.5,203.202 C824.5,234.159 824.5,255.865 824.5,282.806" style="stroke:#181818;stroke-width:1;" fill="none"/><text x="817.5" y="278.873" fill="#000" font-size="13">*</text><text x="815.5" y="204.269" fill="#000" font-size="13">1</text></g><g class="link" data-entity-1="ent0001" data-entity-2="ent0007" id="lnk12" data-link-type="aggregation"><polygon points="922.892,191.292,924.666,198.281,931.8,199.332,930.026,192.342,922.892,191.292" fill="none" style="stroke:#181818;stroke-width:1;stroke-linejoin:miter;stroke-miterlimit:10;"/><path d="M931.8,199.332 C951.855,217.433 963.904,228.309 983.5,246 C996.688,257.906 1010.872,270.714 1024.241,282.786" style="stroke:#181818;stroke-width:1;" fill="none"/><text x="1017.241" y="278.853" fill="#000" font-size="13">*</text><text x="913.892" y="204.359" fill="#000" font-size="13">1</text></g><g class="link" data-entity-1="ent0001" data-entity-2="ent0008" id="lnk13" data-link-type="aggregation"><polygon points="1059.321,191.164,1063.287,197.187,1070.372,195.842,1066.406,189.82,1059.321,191.164" fill="none" style="stroke:#181818;stroke-width:1;stroke-linejoin:miter;stroke-miterlimit:10;"/><path d="M1070.372,195.842 C1110.655,212.897 1140.653,226.792 1178.5,246 C1195.943,254.853 1214.051,265.134 1231.281,275.489" style="stroke:#181818;stroke-width:1;" fill="none"/><text x="1224.281" y="271.556" fill="#000" font-size="13">*</text><text x="1050.321" y="204.231" fill="#000" font-size="13">1</text></g><g class="link" data-entity-1="ent0002" data-entity-2="ent0004" id="lnk14" data-link-type="dependency"><polygon points="671.32,479.934,665.577,471.933,667.006,477.406,661.533,478.835,671.32,479.934" fill="#181818" style="stroke:#181818;stroke-width:1;stroke-linejoin:miter;stroke-miterlimit:10;"/><path d="M577.766,425.123 C609.045,443.448 637.213,459.951 667.006,477.406" style="stroke:#181818;stroke-width:1;" fill="none"/><text x="662.32" y="476" fill="#000" font-size="13">1</text><text x="570.766" y="438.19" fill="#000" font-size="13">*</text></g><g class="link" data-entity-1="ent0002" data-entity-2="ent0005" id="lnk15" data-link-type="dependency"><polygon points="494.682,488.296,494.644,478.447,492.634,483.735,487.346,481.725,494.682,488.296" fill="#181818" style="stroke:#181818;stroke-width:1;stroke-linejoin:miter;stroke-miterlimit:10;"/><path d="M466.376,425.276 C475.922,446.528 483.841,464.159 492.634,483.735" style="stroke:#181818;stroke-width:1;" fill="none"/><text x="485.682" y="484.363" fill="#000" font-size="13">1</text><text x="459.376" y="438.343" fill="#000" font-size="13">*</text></g><g class="link" data-entity-1="ent0002" data-entity-2="ent0003" id="lnk16" data-link-type="dependency"><polygon points="276.18,479.71,285.455,476.398,279.8,476.261,279.937,470.606,276.18,479.71" fill="#181818" style="stroke:#181818;stroke-width:1;stroke-linejoin:miter;stroke-miterlimit:10;"/><path d="M333.317,425.276 C314.213,443.476 298.006,458.916 279.8,476.261" style="stroke:#181818;stroke-width:1;" fill="none"/><text x="311.5" y="457.067" fill="#000" font-size="13" textLength="52.444">variable</text><text x="251.18" y="475.777" fill="#000" font-size="13" textLength="24.807">0..1</text><text x="326.317" y="438.343" fill="#000" font-size="13">*</text></g><g class="link" data-entity-1="ent0006" data-entity-2="ent0003" id="lnk17" data-link-type="dependency"><polygon points="403.089,482.595,412.834,484.024,407.904,481.249,410.68,476.32,403.089,482.595" fill="#181818" style="stroke:#181818;stroke-width:1;stroke-linejoin:miter;stroke-miterlimit:10;"/><path d="M741.998,388.101 C717.719,401.625 690.643,415.158 664.5,425 C557.215,465.39 523.122,449.928 412.5,480 C409.384,480.847 411.061,480.367 407.904,481.249" style="stroke:#181818;stroke-width:1;" fill="none"/><text x="404.089" y="478.662" fill="#000" font-size="13">*</text></g><g class="link" data-entity-1="ent0006" data-entity-2="ent0005" id="lnk18" data-link-type="dependency"><polygon points="606.919,488.376,616.589,486.504,611.019,485.514,612.01,479.944,606.919,488.376" fill="#181818" style="stroke:#181818;stroke-width:1;stroke-linejoin:miter;stroke-miterlimit:10;"/><path d="M750.378,388.239 C707.016,418.506 656.193,453.982 611.019,485.514" style="stroke:#181818;stroke-width:1;" fill="none"/><text x="581.919" y="484.443" fill="#000" font-size="13" textLength="24.807">0..1</text></g><g class="link" data-entity-1="ent0006" data-entity-2="ent0004" id="lnk19" data-link-type="dependency"><polygon points="799.463,479.618,804.954,471.442,800.324,474.693,797.073,470.064,799.463,479.618" fill="#181818" style="stroke:#181818;stroke-width:1;stroke-linejoin:miter;stroke-miterlimit:10;"/><path d="M815.449,388.239 C810.635,415.755 805.516,445.015 800.324,474.693" style="stroke:#181818;stroke-width:1;" fill="none"/><text x="774.463" y="475.685" fill="#000" font-size="13" textLength="24.807">0..1</text></g><?plantuml-src hLRDaXet4BxFKtGs1ySkbjXNl4M5MgzhgTfrIB3ttemQaAsHnfA6PEtAk-Hexdu3NYmjpI_3iBw42wZrgVlhN_ePt15aHXo-AOBtCgErKG8cK6W2PrJXfT6ZyaG5GqXxwG_xhcY7Lk9AqJXv1XyqvCPvnZaV8Rd2bE3mBtZIqe8hB8l1UTG2Sj82TS11QWzxJLZ0Qr3Hy8uAo_hIhP5EUlXSI508NhBzCIpGWMWDmvgr7BvdD6Pd7FZ7t2YpaVmpEi4MSdIiJB0aLUWSVq_YIOhWprhoUpTYvfPTSuospC81QfcXPo8Eo4T9vEs2eqjstKLPkiKiTv5XQhAS_MHxfh0THqeIRD19pGR2-mV3qH0cTRyAaw7KDCx4EFafjxZ9a5rzD8K7bn4RnCHzaff9OGOhJ3zjh2cqk6OVBVpyDduwYEZWp7ihLuMdUMhqKduXU9bisLaW9lW8h7PhX4kI28Q5GgsbtjpiI5CM-5zT_LOBbrKHJAVmDO5kJ2Pm9vs_cjMIQNZsWAgWFr5lQ67DZatQzaaKJwUi9TP8es4HJhFrcbAFqLJN_aqek4VsLl4rNxBQdAn_Z7hOEsyvUgni9cvDMckyRkHH7A0xiXmtgHHkMiiF7M5jC82n9UCMnKf9QjzqY5PNuSNdmdXqxzlIgz1_17aZZhwZyxV6oYz6CsZHdlZEfSOIIs_HYdiIiiYMPksNKThDIH1m0FvfCjYBu6a0g_J9qDjBBWwzwMBc8eQpRCi0uEyGNaknAITmNVvYsPOJIM-8Y-icsfExGFZEfAZ2-AWHRwK-Tz_K0ykRukcoUQZwUWIebFdBVT3iezneAbascGoALyOemYE75r9Fgq2x3gIDLckq5n8-2RvuXz8vr6b3_0qBOxLbEN5_fp6zzvXVDQDcBaRmZbt5uhe1nOYQOelI1_oIV1SVRZ_oc71pBQJBZPOhHJMkiHfGxDD77F8Zfcd0XtO0XcOnZkYCVIepjBwNeHIvNReo_BkLPN6Cnz4mWPlsn7Ucu7nupdXJyh_NaiYlKwLL4RMCxqmJyrwesoexKrmzSThGM60ndFNUJ8WiE1u1o_r9lUkZKSTtALbD0pFlJ9SSTrB3OMZUz8bqCLqMywCSHmF7eeh7l8biM_0d8ulxnH9F4L7DXG5r_qDM1hapgzC_d8jN5_3YyX8kNboS3hD9zNznvfsftiqwSwNDtGyUzTF-D7eeVpzYTHBxvCJ1WBkydCPtPSKy2QdBx3pevNZywZWWzQwKzDiWuhlH6qQK6clBJq1A_easN3qhuxt9mAo70ySrnjjG6EnnvUekOxm77lOvWrIeer_QaVyyxbpL_e2xi3xMUrR2woG4kttZ0oc0y8h76A-hGH8MsbGTzg0np11LMWtZULJMDc-7iKMUSoXv3xM7RyoCzwZm5ntye72zaYhinjKQ68aUzYbQxnfg_m40?></g></svg>