<svg xmlns="http://www.w3.org/2000/svg" xmlns:xlink="http://www.w3.org/1999/xlink" version="1.1" data-diagram-type="SEQUENCE" style="width:2409px;height:1177px;background:#FFFFFF;" width="2409px" height="1177px" viewBox="0 0 2409 1177" zoomAndPan="magnify" preserveAspectRatio="none" contentStyleType="text/css"><?plantuml 1.2026.8?><defs/><g font-family="sans-serif" lengthAdjust="spacing"><rect x="323.72" y="622.953" width="1448.938" height="243" fill="none" style="stroke:#000;stroke-width:1.5;"/><rect x="323.72" y="971.352" width="2047.176" height="120.531" fill="none" style="stroke:#000;stroke-width:1.5;"/><g><title>Animateur</title><rect x="46.144" y="86.297" width="8" height="1079.852" fill="#000" fill-opacity="0"/><line x1="49.644" y1="86.297" x2="49.644" y2="1166.148" style="stroke:#181818;stroke-width:0.5;stroke-dasharray:5,5;"/></g><g><title>Navigateur</title><rect x="336.22" y="86.297" width="8" height="1079.852" fill="#000" fill-opacity="0"/><line x1="339.72" y1="86.297" x2="339.72" y2="1166.148" style="stroke:#181818;stroke-width:0.5;stroke-dasharray:5,5;"/></g><g><title>Keycloak</title><rect x="687.081" y="86.297" width="8" height="1079.852" fill="#000" fill-opacity="0"/><line x1="690.581" y1="86.297" x2="690.581" y2="1166.148" style="stroke:#181818;stroke-width:0.5;stroke-dasharray:5,5;"/></g><g><title>AuthResource</title><rect x="814.357" y="86.297" width="8" height="1079.852" fill="#000" fill-opacity="0"/><line x1="817.857" y1="86.297" x2="817.857" y2="1166.148" style="stroke:#181818;stroke-width:0.5;stroke-dasharray:5,5;"/></g><g><title>EspaceTokenFilter</title><rect x="951.492" y="86.297" width="8" height="1079.852" fill="#000" fill-opacity="0"/><line x1="954.992" y1="86.297" x2="954.992" y2="1166.148" style="stroke:#181818;stroke-width:0.5;stroke-dasharray:5,5;"/></g><g><title>SessionEspaceFilter</title><rect x="1190.208" y="86.297" width="8" height="1079.852" fill="#000" fill-opacity="0"/><line x1="1193.708" y1="86.297" x2="1193.708" y2="1166.148" style="stroke:#181818;stroke-width:0.5;stroke-dasharray:5,5;"/></g><g><title>OidcAuthentication</title><rect x="1350.852" y="86.297" width="8" height="1079.852" fill="#000" fill-opacity="0"/><line x1="1354.352" y1="86.297" x2="1354.352" y2="1166.148" style="stroke:#181818;stroke-width:0.5;stroke-dasharray:5,5;"/></g><g><title>EditionRequestScope</title><rect x="1516.277" y="86.297" width="8" height="1079.852" fill="#000" fill-opacity="0"/><line x1="1519.777" y1="86.297" x2="1519.777" y2="1166.148" style="stroke:#181818;stroke-width:0.5;stroke-dasharray:5,5;"/></g><g><title>EspaceAnimateurResource</title><rect x="1708.742" y="86.297" width="8" height="1079.852" fill="#000" fill-opacity="0"/><line x1="1712.242" y1="86.297" x2="1712.242" y2="1166.148" style="stroke:#181818;stroke-width:0.5;stroke-dasharray:5,5;"/></g><g><title>ConfirmationPlanningService</title><rect x="1928.349" y="86.297" width="8" height="1079.852" fill="#000" fill-opacity="0"/><line x1="1931.849" y1="86.297" x2="1931.849" y2="1166.148" style="stroke:#181818;stroke-width:0.5;stroke-dasharray:5,5;"/></g><g><title>PostgreSQL</title><rect x="2351.396" y="86.297" width="8" height="1079.852" fill="#000" fill-opacity="0"/><line x1="2354.896" y1="86.297" x2="2354.896" y2="1166.148" style="stroke:#181818;stroke-width:0.5;stroke-dasharray:5,5;"/></g><text x="10" y="82.995" fill="#000" font-size="14" textLength="73.288">Animateur</text><ellipse cx="49.644" cy="18.5" rx="8" ry="8" fill="#E2E2F0" style="stroke:#181818;stroke-width:0.5;"/><path d="M49.644,26.5 L49.644,53.5 M36.644,34.5 L62.644,34.5 M49.644,53.5 L36.644,68.5 M49.644,53.5 L62.644,68.5" style="stroke:#181818;stroke-width:0.5;" fill="none"/><text x="298.008" y="82.995" fill="#000" font-size="14" textLength="77.424">Navigateur</text><path d="M319.22,42 L319.22,66 M319.22,54 L336.22,54" style="stroke:#181818;stroke-width:0.5;" fill="none"/><ellipse cx="348.22" cy="54" rx="12" ry="12" fill="#E2E2F0" style="stroke:#181818;stroke-width:0.5;"/><text x="656.122" y="66.698" fill="#000" font-size="14" textLength="62.918">Keycloak</text><text x="629.28" y="82.995" fill="#000" font-size="14" textLength="116.601">(realm planning)</text><path d="M670.081,25.703 L670.081,49.703 M670.081,37.703 L687.081,37.703" style="stroke:#181818;stroke-width:0.5;" fill="none"/><ellipse cx="699.081" cy="37.703" rx="12" ry="12" fill="#E2E2F0" style="stroke:#181818;stroke-width:0.5;"/><rect x="761.881" y="55" width="111.952" height="30.297" fill="#E2E2F0" style="stroke:#181818;stroke-width:0.5;" rx="2.5" ry="2.5"/><text x="768.881" y="74.995" fill="#000" font-size="14" textLength="97.952">AuthResource</text><rect x="883.833" y="55" width="142.317" height="30.297" fill="#E2E2F0" style="stroke:#181818;stroke-width:0.5;" rx="2.5" ry="2.5"/><text x="890.833" y="74.995" fill="#000" font-size="14" textLength="128.317">EspaceTokenFilter</text><rect x="1117.197" y="55" width="153.022" height="30.297" fill="#E2E2F0" style="stroke:#181818;stroke-width:0.5;" rx="2.5" ry="2.5"/><text x="1124.197" y="74.995" fill="#000" font-size="14" textLength="139.022">SessionEspaceFilter</text><rect x="1280.22" y="55" width="148.265" height="30.297" fill="#E2E2F0" style="stroke:#181818;stroke-width:0.5;" rx="2.5" ry="2.5"/><text x="1287.22" y="74.995" fill="#000" font-size="14" textLength="134.265">OidcAuthentication</text><rect x="1438.484" y="55" width="162.586" height="30.297" fill="#E2E2F0" style="stroke:#181818;stroke-width:0.5;" rx="2.5" ry="2.5"/><text x="1445.484" y="74.995" fill="#000" font-size="14" textLength="148.586">EditionRequestScope</text><rect x="1611.07" y="55" width="202.344" height="30.297" fill="#E2E2F0" style="stroke:#181818;stroke-width:0.5;" rx="2.5" ry="2.5"/><text x="1618.07" y="74.995" fill="#000" font-size="14" textLength="188.344">EspaceAnimateurResource</text><rect x="1823.414" y="55" width="216.87" height="30.297" fill="#E2E2F0" style="stroke:#181818;stroke-width:0.5;" rx="2.5" ry="2.5"/><text x="1830.414" y="74.995" fill="#000" font-size="14" textLength="202.87">ConfirmationPlanningService</text><text x="2311.519" y="82.995" fill="#000" font-size="14" textLength="80.753">PostgreSQL</text><path d="M2336.896,34 C2336.896,24 2354.896,24 2354.896,24 C2354.896,24 2372.896,24 2372.896,34 L2372.896,60 C2372.896,70 2354.896,70 2354.896,70 C2354.896,70 2336.896,70 2336.896,60 L2336.896,34" style="stroke:#181818;stroke-width:0.5;" fill="#E2E2F0"/><path d="M2336.896,34 C2336.896,44 2354.896,44 2354.896,44 C2354.896,44 2372.896,44 2372.896,34" style="stroke:#181818;stroke-width:0.5;" fill="none"/><polygon points="327.72,111.43,337.72,115.43,327.72,119.43,331.72,115.43" fill="#181818" style="stroke:#181818;stroke-width:1;stroke-linejoin:miter;stroke-miterlimit:10;"/><line x1="49.644" y1="115.43" x2="333.72" y2="115.43" style="stroke:#181818;stroke-width:1;"/><text x="56.644" y="110.364" fill="#000" font-size="13" font-weight="700">1</text><text x="69.689" y="110.364" fill="#000" font-size="13" textLength="253.03">ouvre le lien reçu (/animateur/{jeton})</text><polygon points="1181.708,140.563,1191.708,144.563,1181.708,148.563,1185.708,144.563" fill="#181818" style="stroke:#181818;stroke-width:1;stroke-linejoin:miter;stroke-miterlimit:10;"/><line x1="339.72" y1="144.563" x2="1187.708" y2="144.563" style="stroke:#181818;stroke-width:1;"/><text x="346.72" y="139.497" fill="#000" font-size="13" font-weight="700">2</text><text x="359.765" y="139.497" fill="#000" font-size="13" textLength="230.725">GET /api/espace-animateur/{jeton}</text><polygon points="965.992,169.695,955.992,173.695,965.992,177.695,961.992,173.695" fill="#181818" style="stroke:#181818;stroke-width:1;stroke-linejoin:miter;stroke-miterlimit:10;"/><line x1="959.992" y1="173.695" x2="1192.708" y2="173.695" style="stroke:#181818;stroke-width:1;"/><text x="971.992" y="168.629" fill="#000" font-size="13" font-weight="700">3</text><text x="985.037" y="168.629" fill="#000" font-size="13" textLength="192.626">resoudreOuAborter(contexte)</text><path d="M959.992,186.695 L959.992,226.695 L1293.992,226.695 L1293.992,196.695 L1283.992,186.695 L959.992,186.695" style="stroke:#181818;stroke-width:0.5;" fill="#FEFFDD"/><path d="M1283.992,186.695 L1283.992,196.695 L1293.992,196.695 L1283.992,186.695" style="stroke:#181818;stroke-width:0.5;" fill="#FEFFDD"/><text x="965.992" y="203.762" fill="#000" font-size="13" textLength="134.672">jeton inconnu : 404 ;</text><text x="965.992" y="218.895" fill="#000" font-size="13" textLength="313.13">X-Edition-Id est ignoré, le jeton désigne l'édition</text><polygon points="1342.352,249.094,1352.352,253.094,1342.352,257.094,1346.352,253.094" fill="#181818" style="stroke:#181818;stroke-width:1;stroke-linejoin:miter;stroke-miterlimit:10;"/><line x1="1193.708" y1="253.094" x2="1348.352" y2="253.094" style="stroke:#181818;stroke-width:1;"/><text x="1200.708" y="248.028" fill="#000" font-size="13" font-weight="700">4</text><text x="1213.754" y="248.028" fill="#000" font-size="13" textLength="93.012">trustedEmail()</text><polygon points="350.72,293.359,340.72,297.359,350.72,301.359,346.72,297.359" fill="#181818" style="stroke:#181818;stroke-width:1;stroke-linejoin:miter;stroke-miterlimit:10;"/><line x1="344.72" y1="297.359" x2="1192.708" y2="297.359" style="stroke:#181818;stroke-width:1;stroke-dasharray:2,2;"/><text x="356.72" y="284.727" fill="#000" font-size="13" font-weight="700">5</text><text x="369.765" y="277.161" fill="#000" font-size="13" textLength="182.019">401 sans session Keycloak :</text><text x="369.765" y="292.293" fill="#000" font-size="13" textLength="335.563">l'écran propose « Se connecter avec mon compte »</text><polygon points="327.72,322.492,337.72,326.492,327.72,330.492,331.72,326.492" fill="#181818" style="stroke:#181818;stroke-width:1;stroke-linejoin:miter;stroke-miterlimit:10;"/><line x1="49.644" y1="326.492" x2="333.72" y2="326.492" style="stroke:#181818;stroke-width:1;"/><text x="56.644" y="321.426" fill="#000" font-size="13" font-weight="700">6</text><text x="69.689" y="321.426" fill="#000" font-size="13" textLength="206.718">Se connecter avec mon compte</text><polygon points="805.857,351.625,815.857,355.625,805.857,359.625,809.857,355.625" fill="#181818" style="stroke:#181818;stroke-width:1;stroke-linejoin:miter;stroke-miterlimit:10;"/><line x1="339.72" y1="355.625" x2="811.857" y2="355.625" style="stroke:#181818;stroke-width:1;"/><text x="346.72" y="350.559" fill="#000" font-size="13" font-weight="700">7</text><text x="359.765" y="350.559" fill="#000" font-size="13" textLength="349.8">GET /api/auth/oidc/login?redirect=/animateur/{jeton}</text><polygon points="350.72,380.758,340.72,384.758,350.72,388.758,346.72,384.758" fill="#181818" style="stroke:#181818;stroke-width:1;stroke-linejoin:miter;stroke-miterlimit:10;"/><line x1="344.72" y1="384.758" x2="816.857" y2="384.758" style="stroke:#181818;stroke-width:1;stroke-dasharray:2,2;"/><text x="356.72" y="379.692" fill="#000" font-size="13" font-weight="700">8</text><text x="369.765" y="379.692" fill="#000" font-size="13" textLength="237.764">302 vers Keycloak (code flow, PKCE)</text><polygon points="678.581,425.023,688.581,429.023,678.581,433.023,682.581,429.023" fill="#181818" style="stroke:#181818;stroke-width:1;stroke-linejoin:miter;stroke-miterlimit:10;"/><line x1="339.72" y1="429.023" x2="684.581" y2="429.023" style="stroke:#181818;stroke-width:1;"/><text x="346.72" y="416.391" fill="#000" font-size="13" font-weight="700">9</text><text x="359.765" y="408.825" fill="#000" font-size="13" textLength="268.544">identifiant, puis passkey, code par e-mail</text><text x="359.765" y="423.958" fill="#000" font-size="13" textLength="108.316">ou mot de passe</text><polygon points="350.72,454.156,340.72,458.156,350.72,462.156,346.72,458.156" fill="#181818" style="stroke:#181818;stroke-width:1;stroke-linejoin:miter;stroke-miterlimit:10;"/><line x1="344.72" y1="458.156" x2="689.581" y2="458.156" style="stroke:#181818;stroke-width:1;stroke-dasharray:2,2;"/><text x="356.72" y="453.09" fill="#000" font-size="13" textLength="18.091" font-weight="700">10</text><text x="378.811" y="453.09" fill="#000" font-size="13" textLength="304.77">retour sur /animateur/{jeton}, session ouverte</text><polygon points="1181.708,483.289,1191.708,487.289,1181.708,491.289,1185.708,487.289" fill="#181818" style="stroke:#181818;stroke-width:1;stroke-linejoin:miter;stroke-miterlimit:10;"/><line x1="339.72" y1="487.289" x2="1187.708" y2="487.289" style="stroke:#181818;stroke-width:1;"/><text x="346.72" y="482.223" fill="#000" font-size="13" textLength="18.091" font-weight="700">11</text><text x="368.811" y="482.223" fill="#000" font-size="13" textLength="230.725">GET /api/espace-animateur/{jeton}</text><polygon points="965.992,512.422,955.992,516.422,965.992,520.422,961.992,516.422" fill="#181818" style="stroke:#181818;stroke-width:1;stroke-linejoin:miter;stroke-miterlimit:10;"/><line x1="959.992" y1="516.422" x2="1192.708" y2="516.422" style="stroke:#181818;stroke-width:1;"/><text x="971.992" y="511.356" fill="#000" font-size="13" textLength="18.091" font-weight="700">12</text><text x="994.083" y="511.356" fill="#000" font-size="13" textLength="192.626">resoudreOuAborter(contexte)</text><polygon points="1342.352,541.555,1352.352,545.555,1342.352,549.555,1346.352,545.555" fill="#181818" style="stroke:#181818;stroke-width:1;stroke-linejoin:miter;stroke-miterlimit:10;"/><line x1="1193.708" y1="545.555" x2="1348.352" y2="545.555" style="stroke:#181818;stroke-width:1;"/><text x="1200.708" y="540.489" fill="#000" font-size="13" textLength="18.091" font-weight="700">13</text><text x="1222.799" y="540.489" fill="#000" font-size="13" textLength="93.012">trustedEmail()</text><path d="M1359.352,558.555 L1359.352,613.555 L1645.352,613.555 L1645.352,568.555 L1635.352,558.555 L1359.352,558.555" style="stroke:#181818;stroke-width:0.5;" fill="#FEFFDD"/><path d="M1635.352,558.555 L1635.352,568.555 L1645.352,568.555 L1635.352,558.555" style="stroke:#181818;stroke-width:0.5;" fill="#FEFFDD"/><text x="1365.352" y="575.622" fill="#000" font-size="13" textLength="182.438">rôle de realm « animateur »</text><text x="1365.352" y="590.754" fill="#000" font-size="13" textLength="212.545">et adresse VÉRIFIÉE ; un compte</text><text x="1365.352" y="605.887" fill="#000" font-size="13" textLength="265.173">désactivé dans l'application n'a plus rien</text><path d="M323.72,622.953 L388.163,622.953 L388.163,630.086 L378.163,640.086 L323.72,640.086 L323.72,622.953" style="stroke:#000;stroke-width:1.5;" fill="#EEE"/><rect x="323.72" y="622.953" width="1448.938" height="243" fill="none" style="stroke:#000;stroke-width:1.5;"/><text x="338.72" y="636.02" fill="#000" font-size="13" textLength="19.443" font-weight="700">alt</text><text x="403.163" y="635.164" fill="#000" font-size="11" textLength="277.068" font-weight="700">[adresse de la session = adresse de la fiche]</text><polygon points="1507.777,667.219,1517.777,671.219,1507.777,675.219,1511.777,671.219" fill="#181818" style="stroke:#181818;stroke-width:1;stroke-linejoin:miter;stroke-miterlimit:10;"/><line x1="1193.708" y1="671.219" x2="1513.777" y2="671.219" style="stroke:#181818;stroke-width:1;"/><text x="1200.708" y="666.153" fill="#000" font-size="13" textLength="18.091" font-weight="700">14</text><text x="1222.799" y="666.153" fill="#000" font-size="13" textLength="138.538">markIdentityProven()</text><path d="M1524.777,684.219 L1524.777,739.219 L1750.777,739.219 L1750.777,694.219 L1740.777,684.219 L1524.777,684.219" style="stroke:#181818;stroke-width:0.5;" fill="#FEFFDD"/><path d="M1740.777,684.219 L1740.777,694.219 L1750.777,694.219 L1740.777,684.219" style="stroke:#181818;stroke-width:0.5;" fill="#FEFFDD"/><text x="1530.777" y="701.286" fill="#000" font-size="13" textLength="205.88">c'est cette preuve, pas le jeton,</text><text x="1530.777" y="716.418" fill="#000" font-size="13" textLength="182.927">qui fait nommer l'animateur</text><text x="1530.777" y="731.551" fill="#000" font-size="13" textLength="107.669">dans l'historique</text><polygon points="1700.242,761.75,1710.242,765.75,1700.242,769.75,1704.242,765.75" fill="#181818" style="stroke:#181818;stroke-width:1;stroke-linejoin:miter;stroke-miterlimit:10;"/><line x1="1193.708" y1="765.75" x2="1706.242" y2="765.75" style="stroke:#181818;stroke-width:1;"/><text x="1200.708" y="760.684" fill="#000" font-size="13" textLength="18.091" font-weight="700">15</text><text x="1222.799" y="760.684" fill="#000" font-size="13" textLength="56.278">espace()</text><polygon points="350.72,806.016,340.72,810.016,350.72,814.016,346.72,810.016" fill="#181818" style="stroke:#181818;stroke-width:1;stroke-linejoin:miter;stroke-miterlimit:10;"/><line x1="344.72" y1="810.016" x2="1711.242" y2="810.016" style="stroke:#181818;stroke-width:1;stroke-dasharray:2,2;"/><text x="356.72" y="797.383" fill="#000" font-size="13" textLength="18.091" font-weight="700">16</text><text x="378.811" y="789.817" fill="#000" font-size="13" textLength="173.189">plan publié de la personne</text><text x="378.811" y="804.95" fill="#000" font-size="13" textLength="193.426">(vide avant toute publication)</text><line x1="323.72" y1="819.016" x2="1772.657" y2="819.016" style="stroke:#000;stroke-width:1;stroke-dasharray:2,2;"/><text x="328.72" y="831.226" fill="#000" font-size="11" textLength="262.034" font-weight="700">[lien d'un collègue, ou fiche sans adresse]</text><polygon points="350.72,853.953,340.72,857.953,350.72,861.953,346.72,857.953" fill="#181818" style="stroke:#181818;stroke-width:1;stroke-linejoin:miter;stroke-miterlimit:10;"/><line x1="344.72" y1="857.953" x2="1192.708" y2="857.953" style="stroke:#181818;stroke-width:1;stroke-dasharray:2,2;"/><text x="356.72" y="852.887" fill="#000" font-size="13" textLength="18.091" font-weight="700">17</text><text x="378.811" y="852.887" fill="#000" font-size="13" textLength="260.787">401 : ce compte n'ouvre pas cet espace</text><polygon points="327.72,897.086,337.72,901.086,327.72,905.086,331.72,901.086" fill="#181818" style="stroke:#181818;stroke-width:1;stroke-linejoin:miter;stroke-miterlimit:10;"/><line x1="49.644" y1="901.086" x2="333.72" y2="901.086" style="stroke:#181818;stroke-width:1;"/><text x="56.644" y="896.02" fill="#000" font-size="13" textLength="18.091" font-weight="700">18</text><text x="78.735" y="896.02" fill="#000" font-size="13" textLength="201.786">« J'ai bien reçu mon planning »</text><polygon points="1700.242,926.219,1710.242,930.219,1700.242,934.219,1704.242,930.219" fill="#181818" style="stroke:#181818;stroke-width:1;stroke-linejoin:miter;stroke-miterlimit:10;"/><line x1="339.72" y1="930.219" x2="1706.242" y2="930.219" style="stroke:#181818;stroke-width:1;"/><text x="346.72" y="925.153" fill="#000" font-size="13" textLength="18.091" font-weight="700">19</text><text x="368.811" y="925.153" fill="#000" font-size="13" textLength="325.546">POST /api/espace-animateur/{jeton}/confirmation</text><polygon points="1919.849,955.352,1929.849,959.352,1919.849,963.352,1923.849,959.352" fill="#181818" style="stroke:#181818;stroke-width:1;stroke-linejoin:miter;stroke-miterlimit:10;"/><line x1="1712.242" y1="959.352" x2="1925.849" y2="959.352" style="stroke:#181818;stroke-width:1;"/><text x="1719.242" y="954.286" fill="#000" font-size="13" textLength="18.091" font-weight="700">20</text><text x="1741.333" y="954.286" fill="#000" font-size="13" textLength="152.236">confirmer(animateurId)</text><path d="M323.72,971.352 L388.163,971.352 L388.163,978.484 L378.163,988.484 L323.72,988.484 L323.72,971.352" style="stroke:#000;stroke-width:1.5;" fill="#EEE"/><rect x="323.72" y="971.352" width="2047.176" height="120.531" fill="none" style="stroke:#000;stroke-width:1.5;"/><text x="338.72" y="984.418" fill="#000" font-size="13" textLength="19.443" font-weight="700">alt</text><text x="403.163" y="983.562" fill="#000" font-size="11" textLength="307.882" font-weight="700">[jamais publié, ou aucun poste sur le plan publié]</text><polygon points="350.72,1015.617,340.72,1019.617,350.72,1023.617,346.72,1019.617" fill="#181818" style="stroke:#181818;stroke-width:1;stroke-linejoin:miter;stroke-miterlimit:10;"/><line x1="344.72" y1="1019.617" x2="1930.849" y2="1019.617" style="stroke:#181818;stroke-width:1;stroke-dasharray:2,2;"/><text x="356.72" y="1014.551" fill="#000" font-size="13" textLength="18.091" font-weight="700">21</text><text x="378.811" y="1014.551" fill="#000" font-size="13" textLength="24.813">409</text><line x1="323.72" y1="1028.617" x2="2370.896" y2="1028.617" style="stroke:#000;stroke-width:1;stroke-dasharray:2,2;"/><polygon points="2342.896,1050.75,2352.896,1054.75,2342.896,1058.75,2346.896,1054.75" fill="#181818" style="stroke:#181818;stroke-width:1;stroke-linejoin:miter;stroke-miterlimit:10;"/><line x1="1931.849" y1="1054.75" x2="2348.896" y2="1054.75" style="stroke:#181818;stroke-width:1;"/><text x="1938.849" y="1049.684" fill="#000" font-size="13" textLength="18.091" font-weight="700">22</text><text x="1960.94" y="1049.684" fill="#000" font-size="13" textLength="376.956">CONFIRME, avec la date (un second clic rend la première)</text><polygon points="350.72,1079.883,340.72,1083.883,350.72,1087.883,346.72,1083.883" fill="#181818" style="stroke:#181818;stroke-width:1;stroke-linejoin:miter;stroke-miterlimit:10;"/><line x1="344.72" y1="1083.883" x2="1930.849" y2="1083.883" style="stroke:#181818;stroke-width:1;stroke-dasharray:2,2;"/><text x="356.72" y="1078.817" fill="#000" font-size="13" textLength="18.091" font-weight="700">23</text><text x="378.811" y="1078.817" fill="#000" font-size="13" textLength="111.528">AccuseReception</text><path d="M1744.294,1110.883 L1744.294,1150.883 L2119.294,1150.883 L2119.294,1120.883 L2109.294,1110.883 L1744.294,1110.883" style="stroke:#181818;stroke-width:0.5;" fill="#FEFFDD"/><path d="M2109.294,1110.883 L2109.294,1120.883 L2119.294,1120.883 L2109.294,1110.883" style="stroke:#181818;stroke-width:0.5;" fill="#FEFFDD"/><text x="1750.294" y="1127.95" fill="#000" font-size="13" textLength="354.11">une publication qui change le planning de la personne</text><text x="1750.294" y="1143.083" fill="#000" font-size="13" textLength="173.12">la remet à NON_VU (reset)</text><?plantuml-src lLPDRzj64BtpLmpSWon0jjpMboQ82zUG2pM9xLgfqOE0OaMEf8t8NNPtgSG82lIQUtz0RutQQs-vcV-alwHlbn-Yx2QvDO0HSJapE-_DcndsQAISOKE9K9QiLiGs5p7J8qgPKicASZOuLvnIKcwiN2YS2vhBUCa3_ykojLAhg4TF-JPEjLXH8XtzN4YQ6v7dJF_y-bi8BH83MwPrkJ5oBiiDKw9XMlw952Zc55Scs-Y72FciL-U3MpFjKqLWzhdbgK1knIn5d4EwqH8OT6o78fU7MJAWkxze55mHHIYP2SU5eRltnCw_EutZmfORVvyfDp7d3XWeAK9S9TK2fWDl6uAkQcI8V1ZPbLIvC2AZcOXN2wCBbPpfL1lwx3pywrW0SAwLvUS0BXRy3QVwrQan-XKvKt2qbBX_hhMRwTUHA9nMHJPZ4qKYTeYtTzealaV2Rc54Ct-dCBUqTo7MSh4rcHkGr7dTb6IgzWsBD6lXzODvWoj2jax6CXVAqMdXbjTiTM70kxyMppi65Qylz8hLkKmTr0EhbupiTymcbJ0gwwrXevUkwQLCOdyjAno9K0fOQfpkNWnXuTqrGmFMJMATXmHpRHppVwJOqjU5Kmbgn_fCgxaqMRZugYPemcOjAu-uyzf6YN1Y9Y3ZAstTml3a-sVUA9cXQgtE3awgKg2FTB4st7QJuVAFWlQ7hUdmJM3kbtvKES2pPWY-tuvUa5Vqi4hwu85NrDZ2BPp0oNYmQBNBudJccJ7x0E3ujUD-fBI3uELYwKZFMu_gVwbWfmey7nyTq-Ef-l6W9lnWd80sHsX-ZMuPU3ILptOazCfDPTnDoLSGyQ1rwpWPPKAc-_sjGOUbuwFFoOOPLBziXycZgVB1O-FxtUXSWteqy8HzNHJ7GLPhZlrym56M0-7T-myKusDUsm9unNVPzyz3ZsMOweLKNnjEf46C9m_B60NVBh8lZxwWDMRe5X7guTiUes10Lq_FHftIhrhKXD60RfXB27I0GIUXSs4j30OK_25WuWDFwLJf0ZWSXLDCsAWDqqt4846mOV7tCEz1Ippqob1DzB_eyPDQsHLiRMFAlwjLKSqqgA4xuQSAOxlPDJVbs-ln-RXyEwB7L3IbdYelN0nPkVOxmEikxM5NfStqKJs1KLbONCqg4kasOBMWchoVt3iFYoiYwk2gfXEopeHPZKDHtUsLqMjMm4UqYx2rZdk-us9sU9iRHb46lhXjwmscAgnOWGMgT9P1pu3Gq0205QYbjDWa4WDpDwjspLS_GYRrMLSptIrRGso-1x1IrdvzYRKVeP2MJzHRLXJs8qvjFVIINc0-JSjtYm8u8DT0LDNnDOFT_EuD1h31JMkhNZLGFHTWfnddh98Fj3pKyLrFI9fjnw_l-SwUtogzPUNgSl89fG-xMo5gg3lPNHO-y-ePgcz3Z9D-aDHB0P7RXjv0YoXYK8KP1wI-KUzzw82ZtVYxJ7qLE7zeT8Bj18EpoulpyVNpqQ2QVAWbTXdJFcwq39U4ObGF7E6NBxJXJ9Rl3FS_Uctuak9hhh-XGYM2fg5myu2EGkse97mcnakX5kr7NIZAVQdX0TcWtENlT75vyTFD3uGF6ikk_oy0?></g></svg>