<svg xmlns="http://www.w3.org/2000/svg" xmlns:xlink="http://www.w3.org/1999/xlink" version="1.1" data-diagram-type="SEQUENCE" style="width:3562px;height:1328px;background:#FFFFFF;" width="3562px" height="1328px" viewBox="0 0 3562 1328" zoomAndPan="magnify" preserveAspectRatio="none" contentStyleType="text/css"><?plantuml 1.2026.8?><defs/><g font-family="sans-serif" lengthAdjust="spacing"><rect x="39.062" y="200.992" width="407.744" height="104.203" fill="none" style="stroke:#000;stroke-width:1.5;"/><rect x="39.062" y="467.992" width="1565.621" height="309.938" fill="none" style="stroke:#000;stroke-width:1.5;"/><rect x="39.062" y="1079.258" width="3463.269" height="178.797" fill="none" style="stroke:#000;stroke-width:1.5;"/><g><title>Assistant IA</title><rect x="51.562" y="102.594" width="8" height="1214.594" fill="#000" fill-opacity="0"/><line x1="55.062" y1="102.594" x2="55.062" y2="1317.188" style="stroke:#181818;stroke-width:0.5;stroke-dasharray:5,5;"/></g><g><title>McpRateLimiter</title><rect x="427.305" y="102.594" width="8" height="1214.594" fill="#000" fill-opacity="0"/><line x1="430.805" y1="102.594" x2="430.805" y2="1317.188" style="stroke:#181818;stroke-width:0.5;stroke-dasharray:5,5;"/></g><g><title>McpApiKeyAuthenticationMechanism</title><rect x="787.469" y="102.594" width="8" height="1214.594" fill="#000" fill-opacity="0"/><line x1="790.969" y1="102.594" x2="790.969" y2="1317.188" style="stroke:#181818;stroke-width:0.5;stroke-dasharray:5,5;"/></g><g><title>McpApiKeyIdentityProvider</title><rect x="1035.644" y="102.594" width="8" height="1214.594" fill="#000" fill-opacity="0"/><line x1="1039.144" y1="102.594" x2="1039.144" y2="1317.188" style="stroke:#181818;stroke-width:0.5;stroke-dasharray:5,5;"/></g><g><title>Locataire OIDC mcptransport</title><rect x="1252.358" y="102.594" width="8" height="1214.594" fill="#000" fill-opacity="0"/><line x1="1255.858" y1="102.594" x2="1255.858" y2="1317.188" style="stroke:#181818;stroke-width:0.5;stroke-dasharray:5,5;"/></g><g><title>Extension quarkus-mcp-server</title><rect x="1720.278" y="102.594" width="8" height="1214.594" fill="#000" fill-opacity="0"/><line x1="1723.778" y1="102.594" x2="1723.778" y2="1317.188" style="stroke:#181818;stroke-width:0.5;stroke-dasharray:5,5;"/></g><g><title>RefusMetierInterceptor</title><rect x="1963.254" y="102.594" width="8" height="1214.594" fill="#000" fill-opacity="0"/><line x1="1966.754" y1="102.594" x2="1966.754" y2="1317.188" style="stroke:#181818;stroke-width:0.5;stroke-dasharray:5,5;"/></g><g><title>EditionCibleeInterceptor</title><rect x="2193.471" y="102.594" width="8" height="1214.594" fill="#000" fill-opacity="0"/><line x1="2196.971" y1="102.594" x2="2196.971" y2="1317.188" style="stroke:#181818;stroke-width:0.5;stroke-dasharray:5,5;"/></g><g><title>McpEditions</title><rect x="2344.657" y="102.594" width="8" height="1214.594" fill="#000" fill-opacity="0"/><line x1="2348.157" y1="102.594" x2="2348.157" y2="1317.188" style="stroke:#181818;stroke-width:0.5;stroke-dasharray:5,5;"/></g><g><title>EditionContext</title><rect x="2462.621" y="102.594" width="8" height="1214.594" fill="#000" fill-opacity="0"/><line x1="2466.121" y1="102.594" x2="2466.121" y2="1317.188" style="stroke:#181818;stroke-width:0.5;stroke-dasharray:5,5;"/></g><g><title>JournalOutilInterceptor</title><rect x="2644.773" y="102.594" width="8" height="1214.594" fill="#000" fill-opacity="0"/><line x1="2648.273" y1="102.594" x2="2648.273" y2="1317.188" style="stroke:#181818;stroke-width:0.5;stroke-dasharray:5,5;"/></g><g><title>SolveurMcpTools</title><rect x="3020.403" y="102.594" width="8" height="1214.594" fill="#000" fill-opacity="0"/><line x1="3023.903" y1="102.594" x2="3023.903" y2="1317.188" style="stroke:#181818;stroke-width:0.5;stroke-dasharray:5,5;"/></g><g><title>SolverJobService</title><rect x="3482.83" y="102.594" width="8" height="1214.594" fill="#000" fill-opacity="0"/><line x1="3486.33" y1="102.594" x2="3486.33" y2="1317.188" style="stroke:#181818;stroke-width:0.5;stroke-dasharray:5,5;"/></g><text x="11.094" y="82.995" fill="#000" font-size="14" textLength="81.936">Assistant IA</text><text x="10" y="99.292" fill="#000" font-size="14" textLength="84.123">(client MCP)</text><ellipse cx="55.062" cy="18.5" rx="8" ry="8" fill="#E2E2F0" style="stroke:#181818;stroke-width:0.5;"/><path d="M55.062,26.5 L55.062,53.5 M42.062,34.5 L68.062,34.5 M55.062,53.5 L42.062,68.5 M55.062,53.5 L68.062,68.5" style="stroke:#181818;stroke-width:0.5;" fill="none"/><rect x="368.731" y="71.297" width="124.147" height="30.297" fill="#E2E2F0" style="stroke:#181818;stroke-width:0.5;" rx="2.5" ry="2.5"/><text x="375.731" y="91.292" fill="#000" font-size="14" textLength="110.147">McpRateLimiter</text><rect x="654.268" y="71.297" width="273.403" height="30.297" fill="#E2E2F0" style="stroke:#181818;stroke-width:0.5;" rx="2.5" ry="2.5"/><text x="661.268" y="91.292" fill="#000" font-size="14" textLength="259.403">McpApiKeyAuthenticationMechanism</text><rect x="937.671" y="71.297" width="202.945" height="30.297" fill="#E2E2F0" style="stroke:#181818;stroke-width:0.5;" rx="2.5" ry="2.5"/><text x="944.671" y="91.292" fill="#000" font-size="14" textLength="188.945">McpApiKeyIdentityProvider</text><text x="1150.616" y="82.995" fill="#000" font-size="14" textLength="204.483">Locataire OIDC mcptransport</text><text x="1195.997" y="99.292" fill="#000" font-size="14" textLength="113.723">(jeton Keycloak)</text><path d="M1235.358,42 L1235.358,66 M1235.358,54 L1252.358,54" style="stroke:#181818;stroke-width:0.5;" fill="none"/><ellipse cx="1264.358" cy="54" rx="12" ry="12" fill="#E2E2F0" style="stroke:#181818;stroke-width:0.5;"/><text x="1613.683" y="82.995" fill="#000" font-size="14" textLength="214.19">Extension quarkus-mcp-server</text><text x="1677.171" y="99.292" fill="#000" font-size="14" textLength="87.213">(POST /mcp)</text><path d="M1703.278,42 L1703.278,66 M1703.278,54 L1720.278,54" style="stroke:#181818;stroke-width:0.5;" fill="none"/><ellipse cx="1732.278" cy="54" rx="12" ry="12" fill="#E2E2F0" style="stroke:#181818;stroke-width:0.5;"/><rect x="1878.881" y="71.297" width="175.745" height="30.297" fill="#E2E2F0" style="stroke:#181818;stroke-width:0.5;" rx="2.5" ry="2.5"/><text x="1885.881" y="91.292" fill="#000" font-size="14" textLength="161.745">RefusMetierInterceptor</text><rect x="2104.983" y="71.297" width="183.976" height="30.297" fill="#E2E2F0" style="stroke:#181818;stroke-width:0.5;" rx="2.5" ry="2.5"/><text x="2111.983" y="91.292" fill="#000" font-size="14" textLength="169.976">EditionCibleeInterceptor</text><rect x="2298.959" y="71.297" width="98.396" height="30.297" fill="#E2E2F0" style="stroke:#181818;stroke-width:0.5;" rx="2.5" ry="2.5"/><text x="2305.959" y="91.292" fill="#000" font-size="14" textLength="84.396">McpEditions</text><rect x="2407.355" y="71.297" width="117.53" height="30.297" fill="#E2E2F0" style="stroke:#181818;stroke-width:0.5;" rx="2.5" ry="2.5"/><text x="2414.355" y="91.292" fill="#000" font-size="14" textLength="103.53">EditionContext</text><rect x="2561.426" y="71.297" width="173.694" height="30.297" fill="#E2E2F0" style="stroke:#181818;stroke-width:0.5;" rx="2.5" ry="2.5"/><text x="2568.426" y="91.292" fill="#000" font-size="14" textLength="159.694">JournalOutilInterceptor</text><rect x="2957.704" y="71.297" width="132.398" height="30.297" fill="#E2E2F0" style="stroke:#181818;stroke-width:0.5;" rx="2.5" ry="2.5"/><text x="2964.704" y="91.292" fill="#000" font-size="14" textLength="118.398">SolveurMcpTools</text><rect x="3420.671" y="71.297" width="131.318" height="30.297" fill="#E2E2F0" style="stroke:#181818;stroke-width:0.5;" rx="2.5" ry="2.5"/><text x="3427.671" y="91.292" fill="#000" font-size="14" textLength="117.318">SolverJobService</text><polygon points="418.805,142.859,428.805,146.859,418.805,150.859,422.805,146.859" fill="#181818" style="stroke:#181818;stroke-width:1;stroke-linejoin:miter;stroke-miterlimit:10;"/><line x1="55.062" y1="146.859" x2="424.805" y2="146.859" style="stroke:#181818;stroke-width:1;"/><text x="62.062" y="134.227" fill="#000" font-size="13" font-weight="700">1</text><text x="75.107" y="126.661" fill="#000" font-size="13" textLength="338.698">tools/call lancer_solveur {secondes, enFile, edition}</text><text x="75.107" y="141.793" fill="#000" font-size="13" textLength="259.695">X-MCP-Api-Key ou Authorization: Bearer</text><line x1="430.805" y1="175.992" x2="472.805" y2="175.992" style="stroke:#181818;stroke-width:1;"/><line x1="472.805" y1="175.992" x2="472.805" y2="188.992" style="stroke:#181818;stroke-width:1;"/><line x1="431.805" y1="188.992" x2="472.805" y2="188.992" style="stroke:#181818;stroke-width:1;"/><polygon points="441.805,184.992,431.805,188.992,441.805,192.992,437.805,188.992" fill="#181818" style="stroke:#181818;stroke-width:1;stroke-linejoin:miter;stroke-miterlimit:10;"/><text x="437.805" y="170.926" fill="#000" font-size="13" font-weight="700">2</text><text x="450.851" y="170.926" fill="#000" font-size="13" textLength="103.143">apply(contexte)</text><path d="M39.062,200.992 L103.504,200.992 L103.504,208.125 L93.504,218.125 L39.062,218.125 L39.062,200.992" style="stroke:#000;stroke-width:1.5;" fill="#EEE"/><rect x="39.062" y="200.992" width="407.744" height="104.203" fill="none" style="stroke:#000;stroke-width:1.5;"/><text x="54.062" y="214.059" fill="#000" font-size="13" textLength="19.443" font-weight="700">alt</text><text x="118.504" y="213.203" fill="#000" font-size="11" textLength="286.945" font-weight="700">[adresse verrouillée (5 clés refusées, 10 min)]</text><polygon points="66.062,245.258,56.062,249.258,66.062,253.258,62.062,249.258" fill="#181818" style="stroke:#181818;stroke-width:1;stroke-linejoin:miter;stroke-miterlimit:10;"/><line x1="60.062" y1="249.258" x2="429.805" y2="249.258" style="stroke:#181818;stroke-width:1;stroke-dasharray:2,2;"/><text x="72.062" y="244.192" fill="#000" font-size="13" font-weight="700">3</text><text x="85.107" y="244.192" fill="#000" font-size="13" textLength="283.41">429 « Trop de clés refusées » + Retry-After</text><line x1="39.062" y1="258.258" x2="446.805" y2="258.258" style="stroke:#000;stroke-width:1;stroke-dasharray:2,2;"/><text x="44.062" y="270.468" fill="#000" font-size="11" textLength="237.15" font-weight="700">[plus de 120 requêtes dans la minute]</text><polygon points="66.062,293.195,56.062,297.195,66.062,301.195,62.062,297.195" fill="#181818" style="stroke:#181818;stroke-width:1;stroke-linejoin:miter;stroke-miterlimit:10;"/><line x1="60.062" y1="297.195" x2="429.805" y2="297.195" style="stroke:#181818;stroke-width:1;stroke-dasharray:2,2;"/><text x="72.062" y="292.129" fill="#000" font-size="13" font-weight="700">4</text><text x="85.107" y="292.129" fill="#000" font-size="13" textLength="225.888">429 « Trop de requêtes sur /mcp »</text><path d="M435.805,324.195 L435.805,379.195 L694.805,379.195 L694.805,334.195 L684.805,324.195 L435.805,324.195" style="stroke:#181818;stroke-width:0.5;" fill="#FEFFDD"/><path d="M684.805,324.195 L684.805,334.195 L694.805,334.195 L684.805,324.195" style="stroke:#181818;stroke-width:0.5;" fill="#FEFFDD"/><text x="441.805" y="341.262" fill="#000" font-size="13" textLength="181.384">l'adresse est celle du client,</text><text x="441.805" y="356.395" fill="#000" font-size="13" textLength="167.629">lue dans X-Forwarded-For</text><text x="441.805" y="371.528" fill="#000" font-size="13" textLength="238.773">seulement derrière un proxy déclaré</text><polygon points="778.969,401.727,788.969,405.727,778.969,409.727,782.969,405.727" fill="#181818" style="stroke:#181818;stroke-width:1;stroke-linejoin:miter;stroke-miterlimit:10;"/><line x1="430.805" y1="405.727" x2="784.969" y2="405.727" style="stroke:#181818;stroke-width:1;"/><text x="437.805" y="400.661" fill="#000" font-size="13" font-weight="700">5</text><text x="450.851" y="400.661" fill="#000" font-size="13" textLength="171.33">authenticate(contexte, …)</text><path d="M795.969,418.727 L795.969,458.727 L1175.969,458.727 L1175.969,428.727 L1165.969,418.727 L795.969,418.727" style="stroke:#181818;stroke-width:0.5;" fill="#FEFFDD"/><path d="M1165.969,418.727 L1165.969,428.727 L1175.969,428.727 L1165.969,418.727" style="stroke:#181818;stroke-width:0.5;" fill="#FEFFDD"/><text x="801.969" y="435.793" fill="#000" font-size="13" textLength="210.044">comparaison à temps constant ;</text><text x="801.969" y="450.926" fill="#000" font-size="13" textLength="359.792">en-têtes exigés (PLANNING_MCP_REQUIRED_HEADERS)</text><path d="M39.062,467.992 L103.504,467.992 L103.504,475.125 L93.504,485.125 L39.062,485.125 L39.062,467.992" style="stroke:#000;stroke-width:1.5;" fill="#EEE"/><rect x="39.062" y="467.992" width="1565.621" height="309.938" fill="none" style="stroke:#000;stroke-width:1.5;"/><text x="54.062" y="481.059" fill="#000" font-size="13" textLength="19.443" font-weight="700">alt</text><text x="118.504" y="480.203" fill="#000" font-size="11" textLength="72.23" font-weight="700">[clé fausse]</text><polygon points="66.062,512.258,56.062,516.258,66.062,520.258,62.062,516.258" fill="#181818" style="stroke:#181818;stroke-width:1;stroke-linejoin:miter;stroke-miterlimit:10;"/><line x1="60.062" y1="516.258" x2="789.969" y2="516.258" style="stroke:#181818;stroke-width:1;stroke-dasharray:2,2;"/><text x="72.062" y="511.192" fill="#000" font-size="13" font-weight="700">6</text><text x="85.107" y="511.192" fill="#000" font-size="13" textLength="24.813">401</text><line x1="430.805" y1="545.391" x2="472.805" y2="545.391" style="stroke:#181818;stroke-width:1;"/><line x1="472.805" y1="545.391" x2="472.805" y2="558.391" style="stroke:#181818;stroke-width:1;"/><line x1="431.805" y1="558.391" x2="472.805" y2="558.391" style="stroke:#181818;stroke-width:1;"/><polygon points="441.805,554.391,431.805,558.391,441.805,562.391,437.805,558.391" fill="#181818" style="stroke:#181818;stroke-width:1;stroke-linejoin:miter;stroke-miterlimit:10;"/><text x="437.805" y="540.325" fill="#000" font-size="13" font-weight="700">7</text><text x="450.851" y="540.325" fill="#000" font-size="13" textLength="333.119">401 vu à la sortie : un échec de plus pour l'adresse</text><line x1="39.062" y1="567.391" x2="1604.683" y2="567.391" style="stroke:#000;stroke-width:1;stroke-dasharray:2,2;"/><text x="44.062" y="579.601" fill="#000" font-size="11" textLength="83.263" font-weight="700">[clé correcte]</text><polygon points="1027.144,602.328,1037.144,606.328,1027.144,610.328,1031.144,606.328" fill="#181818" style="stroke:#181818;stroke-width:1;stroke-linejoin:miter;stroke-miterlimit:10;"/><line x1="790.969" y1="606.328" x2="1033.144" y2="606.328" style="stroke:#181818;stroke-width:1;"/><text x="797.969" y="601.262" fill="#000" font-size="13" font-weight="700">8</text><text x="811.015" y="601.262" fill="#000" font-size="13" textLength="171.641">identité « mcp », rôle mcp</text><path d="M1044.144,619.328 L1044.144,659.328 L1290.144,659.328 L1290.144,629.328 L1280.144,619.328 L1044.144,619.328" style="stroke:#181818;stroke-width:0.5;" fill="#FEFFDD"/><path d="M1280.144,619.328 L1280.144,629.328 L1290.144,629.328 L1280.144,619.328" style="stroke:#181818;stroke-width:0.5;" fill="#FEFFDD"/><text x="1050.144" y="636.395" fill="#000" font-size="13" textLength="225.926">une session admin n'a pas le rôle :</text><text x="1050.144" y="651.528" fill="#000" font-size="13" textLength="85.877">403 sur /mcp</text><line x1="39.062" y1="665.594" x2="1604.683" y2="665.594" style="stroke:#000;stroke-width:1;stroke-dasharray:2,2;"/><text x="44.062" y="677.804" fill="#000" font-size="11" textLength="214.887" font-weight="700">[pas de clé, Authorization: Bearer]</text><polygon points="1243.858,700.531,1253.858,704.531,1243.858,708.531,1247.858,704.531" fill="#181818" style="stroke:#181818;stroke-width:1;stroke-linejoin:miter;stroke-miterlimit:10;"/><line x1="790.969" y1="704.531" x2="1249.858" y2="704.531" style="stroke:#181818;stroke-width:1;"/><text x="797.969" y="699.465" fill="#000" font-size="13" font-weight="700">9</text><text x="811.015" y="699.465" fill="#000" font-size="13" textLength="256.591">la clé cède la main au locataire OAuth2</text><path d="M1260.858,717.531 L1260.858,772.531 L1582.858,772.531 L1582.858,727.531 L1572.858,717.531 L1260.858,717.531" style="stroke:#181818;stroke-width:0.5;" fill="#FEFFDD"/><path d="M1572.858,717.531 L1572.858,727.531 L1582.858,727.531 L1572.858,717.531" style="stroke:#181818;stroke-width:0.5;" fill="#FEFFDD"/><text x="1266.858" y="734.598" fill="#000" font-size="13" textLength="301.825">audience planning-mcp et rôle de realm mcp ;</text><text x="1266.858" y="749.731" fill="#000" font-size="13" textLength="250.275">sans jeton : 401 + WWW-Authenticate</text><text x="1266.858" y="764.864" fill="#000" font-size="13" textLength="203.385">resource_metadata (RFC 9728)</text><polygon points="1711.778,809.063,1721.778,813.063,1711.778,817.063,1715.778,813.063" fill="#181818" style="stroke:#181818;stroke-width:1;stroke-linejoin:miter;stroke-miterlimit:10;"/><line x1="1039.144" y1="813.063" x2="1717.778" y2="813.063" style="stroke:#181818;stroke-width:1;"/><text x="1046.144" y="807.997" fill="#000" font-size="13" textLength="18.091" font-weight="700">10</text><text x="1068.234" y="807.997" fill="#000" font-size="13" textLength="116.042">requête autorisée</text><polygon points="1954.754,838.195,1964.754,842.195,1954.754,846.195,1958.754,842.195" fill="#181818" style="stroke:#181818;stroke-width:1;stroke-linejoin:miter;stroke-miterlimit:10;"/><line x1="1723.778" y1="842.195" x2="1960.754" y2="842.195" style="stroke:#181818;stroke-width:1;"/><text x="1730.778" y="837.129" fill="#000" font-size="13" textLength="18.091" font-weight="700">11</text><text x="1752.869" y="837.129" fill="#000" font-size="13" textLength="196.885">reportBusinessError(contexte)</text><polygon points="2184.971,867.328,2194.971,871.328,2184.971,875.328,2188.971,871.328" fill="#181818" style="stroke:#181818;stroke-width:1;stroke-linejoin:miter;stroke-miterlimit:10;"/><line x1="1966.754" y1="871.328" x2="2190.971" y2="871.328" style="stroke:#181818;stroke-width:1;"/><text x="1973.754" y="866.262" fill="#000" font-size="13" textLength="18.091" font-weight="700">12</text><text x="1995.845" y="866.262" fill="#000" font-size="13" textLength="184.126">dansEditionCiblee(contexte)</text><polygon points="2336.157,896.461,2346.157,900.461,2336.157,904.461,2340.157,900.461" fill="#181818" style="stroke:#181818;stroke-width:1;stroke-linejoin:miter;stroke-miterlimit:10;"/><line x1="2196.971" y1="900.461" x2="2342.157" y2="900.461" style="stroke:#181818;stroke-width:1;"/><text x="2203.971" y="895.395" fill="#000" font-size="13" textLength="18.091" font-weight="700">13</text><text x="2226.062" y="895.395" fill="#000" font-size="13" textLength="88.937">solve(edition)</text><path d="M2353.157,913.461 L2353.157,953.461 L2664.157,953.461 L2664.157,923.461 L2654.157,913.461 L2353.157,913.461" style="stroke:#181818;stroke-width:0.5;" fill="#FEFFDD"/><path d="M2654.157,913.461 L2654.157,923.461 L2664.157,923.461 L2654.157,913.461" style="stroke:#181818;stroke-width:0.5;" fill="#FEFFDD"/><text x="2359.157" y="930.528" fill="#000" font-size="13" textLength="188.608">par id, puis par nom unique ;</text><text x="2359.157" y="945.661" fill="#000" font-size="13" textLength="290.621">inconnue ou ambiguë : BusinessError.Invalid</text><polygon points="2454.121,975.859,2464.121,979.859,2454.121,983.859,2458.121,979.859" fill="#181818" style="stroke:#181818;stroke-width:1;stroke-linejoin:miter;stroke-miterlimit:10;"/><line x1="2196.971" y1="979.859" x2="2460.121" y2="979.859" style="stroke:#181818;stroke-width:1;"/><text x="2203.971" y="974.793" fill="#000" font-size="13" textLength="18.091" font-weight="700">14</text><text x="2226.062" y="974.793" fill="#000" font-size="13" textLength="192.448">executeIn(editionId, proceed)</text><polygon points="2636.273,1004.992,2646.273,1008.992,2636.273,1012.992,2640.273,1008.992" fill="#181818" style="stroke:#181818;stroke-width:1;stroke-linejoin:miter;stroke-miterlimit:10;"/><line x1="2466.121" y1="1008.992" x2="2642.273" y2="1008.992" style="stroke:#181818;stroke-width:1;"/><text x="2473.121" y="1003.926" fill="#000" font-size="13" textLength="18.091" font-weight="700">15</text><text x="2495.211" y="1003.926" fill="#000" font-size="13" textLength="136.062">journaliser(contexte)</text><polygon points="3011.903,1034.125,3021.903,1038.125,3011.903,1042.125,3015.903,1038.125" fill="#181818" style="stroke:#181818;stroke-width:1;stroke-linejoin:miter;stroke-miterlimit:10;"/><line x1="2648.273" y1="1038.125" x2="3017.903" y2="1038.125" style="stroke:#181818;stroke-width:1;"/><text x="2655.273" y="1033.059" fill="#000" font-size="13" textLength="18.091" font-weight="700">16</text><text x="2677.364" y="1033.059" fill="#000" font-size="13" textLength="329.539">startSolver(secondes, enFile, reamorcage, edition)</text><polygon points="3474.33,1063.258,3484.33,1067.258,3474.33,1071.258,3478.33,1067.258" fill="#181818" style="stroke:#181818;stroke-width:1;stroke-linejoin:miter;stroke-miterlimit:10;"/><line x1="3023.903" y1="1067.258" x2="3480.33" y2="1067.258" style="stroke:#181818;stroke-width:1;"/><text x="3030.903" y="1062.192" fill="#000" font-size="13" textLength="18.091" font-weight="700">17</text><text x="3052.994" y="1062.192" fill="#000" font-size="13" textLength="416.336">submitSolveFromReferenceData(secondes, enFile, reamorcage)</text><path d="M39.062,1079.258 L103.504,1079.258 L103.504,1086.391 L93.504,1096.391 L39.062,1096.391 L39.062,1079.258" style="stroke:#000;stroke-width:1.5;" fill="#EEE"/><rect x="39.062" y="1079.258" width="3463.269" height="178.797" fill="none" style="stroke:#000;stroke-width:1.5;"/><text x="54.062" y="1092.325" fill="#000" font-size="13" textLength="19.443" font-weight="700">alt</text><text x="118.504" y="1091.468" fill="#000" font-size="11" textLength="103.41" font-weight="700">[solveur occupé]</text><polygon points="3034.903,1123.523,3024.903,1127.523,3034.903,1131.523,3030.903,1127.523" fill="#181818" style="stroke:#181818;stroke-width:1;stroke-linejoin:miter;stroke-miterlimit:10;"/><line x1="3028.903" y1="1127.523" x2="3485.33" y2="1127.523" style="stroke:#181818;stroke-width:1;stroke-dasharray:2,2;"/><text x="3040.903" y="1122.458" fill="#000" font-size="13" textLength="18.091" font-weight="700">18</text><text x="3062.994" y="1122.458" fill="#000" font-size="13" textLength="136.684">SolverBusyException</text><polygon points="1977.754,1152.656,1967.754,1156.656,1977.754,1160.656,1973.754,1156.656" fill="#181818" style="stroke:#181818;stroke-width:1;stroke-linejoin:miter;stroke-miterlimit:10;"/><line x1="1971.754" y1="1156.656" x2="3022.903" y2="1156.656" style="stroke:#181818;stroke-width:1;stroke-dasharray:2,2;"/><text x="1983.754" y="1151.59" fill="#000" font-size="13" textLength="18.091" font-weight="700">19</text><text x="2005.845" y="1151.59" fill="#000" font-size="13" textLength="304.415">BusinessError.Conflict « relancez avec enFile »</text><polygon points="66.062,1181.789,56.062,1185.789,66.062,1189.789,62.062,1185.789" fill="#181818" style="stroke:#181818;stroke-width:1;stroke-linejoin:miter;stroke-miterlimit:10;"/><line x1="60.062" y1="1185.789" x2="1965.754" y2="1185.789" style="stroke:#181818;stroke-width:1;stroke-dasharray:2,2;"/><text x="72.062" y="1180.723" fill="#000" font-size="13" textLength="18.091" font-weight="700">20</text><text x="94.152" y="1180.723" fill="#000" font-size="13" textLength="260.19">résultat d'outil isError, message en clair</text><line x1="39.062" y1="1194.789" x2="3502.33" y2="1194.789" style="stroke:#000;stroke-width:1;stroke-dasharray:2,2;"/><polygon points="3034.903,1216.922,3024.903,1220.922,3034.903,1224.922,3030.903,1220.922" fill="#181818" style="stroke:#181818;stroke-width:1;stroke-linejoin:miter;stroke-miterlimit:10;"/><line x1="3028.903" y1="1220.922" x2="3485.33" y2="1220.922" style="stroke:#181818;stroke-width:1;stroke-dasharray:2,2;"/><text x="3040.903" y="1215.856" fill="#000" font-size="13" textLength="18.091" font-weight="700">21</text><text x="3062.994" y="1215.856" fill="#000" font-size="13" textLength="346.588">job (le problème sera construit au démarrage du job)</text><polygon points="66.062,1246.055,56.062,1250.055,66.062,1254.055,62.062,1250.055" fill="#181818" style="stroke:#181818;stroke-width:1;stroke-linejoin:miter;stroke-miterlimit:10;"/><line x1="60.062" y1="1250.055" x2="3022.903" y2="1250.055" style="stroke:#181818;stroke-width:1;stroke-dasharray:2,2;"/><text x="72.062" y="1244.989" fill="#000" font-size="13" textLength="18.091" font-weight="700">22</text><text x="94.152" y="1244.989" fill="#000" font-size="13" textLength="77.791">JobMcpView</text><path d="M1771.937,1277.055 L1771.937,1302.055 L2160.937,1302.055 L2160.937,1287.055 L2150.937,1277.055 L1771.937,1277.055" style="stroke:#181818;stroke-width:0.5;" fill="#FEFFDD"/><path d="M2150.937,1277.055 L2150.937,1287.055 L2160.937,1287.055 L2150.937,1277.055" style="stroke:#181818;stroke-width:0.5;" fill="#FEFFDD"/><text x="1777.937" y="1294.122" fill="#000" font-size="13" textLength="368.634">toute autre exception reste une erreur JSON-RPC -32603</text><?plantuml-src ZLR9RXj74BtFLpISWoYOL6JPMIm31cWj2HrjaRmT10ZDcPBKLaytrGibEGYGZyW7v1HOyJMttCm_oPVaLVSC5za9mjDmfhgMLwzUzP9uQOGSZKYBQid6eBJOtJZeYeg4bgBKarlnzo-_2Xj55SLR2jQ8_NuCvslfzTleB-EIZCAJ6wkILiGE5Kj2gre5YawKjXu54d8iJH0QXk6SJ52dgfH1mTKJ4OrmT1gzg2UtGP73lx623H-j2P_XBXjevTLGanX9nwwyLpx0RHSlV6FzyOCOc43EI2t8EUl4nxyGGozDRYkL0dfEhvhSUdLciYlfpc9DhHz-GwON9dy45FFAAYSgM_elwtAqKbShXRzG1ZQo5aDPNfmv6qsrOJKYVR6TVdCMZlp86a-xvBqyesUaxLKVMLs9u28LvmeOdreRXlQw03BMn7f8hYXa6U3lNh-jK0pwnwPJwWGBchDyJt35wN-1K46LQiHsk-NeK0RQIUWxDceRSTUiFr8_q4s_QKTknYwLvz8eNsVlzFapWufFX9i3PySe84LH-HqLGuP3kXjnRyV2gLIEnFvWSqC0lk2a0Huke9RC8tWhjPKNkHxBv9Zpi7KTo7ZksMMKxYBw7fpqc6VauE9W_-Y5uBRaqzHQBsHzoCJP9UPLuaL98uOMzebI2xPRcI4Rp36wOqtvsrr4cYD-pkJpFYtSNOU4QtvS1FUvZKpPVPw-Ev7VvayBvaTMZz5J9F32MfsYfy7rdrgvvtPub4SpUnlwecYOr7iwczDr4TZLbwNK6dDlId8dFeSHFtb2rXNvBYPZMsdgjiN-V6pUz4387gZHGpTP9PXJrgbtYLBhuXb91qvF0oq6XUxecqwBoN8XDK2gC3UUn9W7E2eD1IBH-If9KTCtl44o3rP5hSno8MOUUt3VLBSk7gqzPa5uuUo8rUpEULQ6-o18S3Uz_YamBqWZwaX3QM3zO6qLjfUHTG0lG5sMGyIBwDt_Z3Wxxs79N4NGWanL60jHTEhiF0XxEWy8TAqfdpmaa3Jq3hgR8tIFZOwKatdJsxRkIhgAAduwXin4JQnZYEoSchntB9vYvEpr3GjUgQMRt2uq0ZFEFPY904rRqOMw_xvy9yzipv8EULCUapdvJGIgHudMMQgU79jMFdaerHc3tZdOwU_j3VQ-Em5PJWwtVdmvEDpQFFb-gx-vTNYKsvuspQcCg1tuSgX5Q5SVBC2-G2Dy5EF8sQ177XAZE55KZxBFgUHUfBwEC4mpY7F3KzpIEaTbc4P-EfKq-6aUOORUvYPsXPly2KFymv55bEPEHgmOZr0iOh82UOHPacdDu6psi7vi7gq-d1Aa8Q7qBMEx_p9GqqIJR39pccLTJjxdrLrBnCDcrZCbJdlxauHR3p9M0BjahAGnofonu0eAJQQ9q5BN2GAqsJCDiv3d3jmNhr-_xitj53es01gObtHIKv0LyX2Tm-qDyVYRjM-NqoHCqK8fKms7mtPsc9wedaUsc7s7SRuJi27lb6VHAmEajtZfpmbAjcBVpVvVJ-EpeFLpvgtLx027I4BOQLxS7OevExuxg0htYAZoHSBO6XnGbnXQ0AOC0XayGoLbFLHdSV81fnPINncOiTIgci-aJG-sT4qb16XWscm67CxPagXQBgQ6EDJi3PnfdXGsvrobxNTcKDeTN6V0-iXhe_EfvgFvjNKbBZ9J_LykchCfu33vY4ECPNAoxMoD1KoEIRM9tl-dqwm2xSwnPHb7a2kH_VRcqymP0hQRhMjUbBoOHVkvDqUDHMInX4-rAWDFiQEquzxXOWfvoCcmDelcx8BqG3Pzr466wGLPPPTTKUUR7Jp073EMnlUpIUEDwF3brTcXdholMHYSpBhfeWeygL3fMZh73lckROVBYtLDCy9In_9_fUXgjatiEDsTS-K1fzBeOEgf1Odleu6IA653CChFZ_RtUeS76wBtSEthrOV_0000?></g></svg>