<svg xmlns="http://www.w3.org/2000/svg" xmlns:xlink="http://www.w3.org/1999/xlink" version="1.1" data-diagram-type="SEQUENCE" style="width:2332px;height:1128px;background:#FFFFFF;" width="2332px" height="1128px" viewBox="0 0 2332 1128" zoomAndPan="magnify" preserveAspectRatio="none" contentStyleType="text/css"><?plantuml 1.2026.8?><defs/><g font-family="sans-serif" lengthAdjust="spacing"><rect x="360.82" y="199.992" width="1235.142" height="336.594" fill="none" style="stroke:#000;stroke-width:1.5;"/><rect x="918.82" y="554.586" width="1393.659" height="497.125" fill="none" style="stroke:#000;stroke-width:1.5;"/><rect x="937.82" y="585.719" width="1349.659" height="451.992" fill="none" style="stroke:#000;stroke-width:1.5;"/><rect x="956.82" y="752.516" width="1305.659" height="271.195" fill="none" style="stroke:#000;stroke-width:1.5;"/><g><title>Quarkus Scheduler</title><rect x="129.816" y="74.594" width="8" height="1043.25" fill="#000" fill-opacity="0"/><line x1="133.316" y1="74.594" x2="133.316" y2="1117.844" style="stroke:#181818;stroke-width:0.5;stroke-dasharray:5,5;"/></g><g><title>NotificationsPlanifieesService</title><rect x="373.32" y="74.594" width="8" height="1043.25" fill="#000" fill-opacity="0"/><line x1="376.82" y1="74.594" x2="376.82" y2="1117.844" style="stroke:#181818;stroke-width:0.5;stroke-dasharray:5,5;"/></g><g><title>EditionContext</title><rect x="839.236" y="74.594" width="8" height="1043.25" fill="#000" fill-opacity="0"/><line x1="842.736" y1="74.594" x2="842.736" y2="1117.844" style="stroke:#181818;stroke-width:0.5;stroke-dasharray:5,5;"/></g><g><title>RappelVeilleJob</title><rect x="969.32" y="74.594" width="8" height="1043.25" fill="#000" fill-opacity="0"/><line x1="972.82" y1="74.594" x2="972.82" y2="1117.844" style="stroke:#181818;stroke-width:0.5;stroke-dasharray:5,5;"/></g><g><title>RelanceConfirmationJob</title><rect x="1131.836" y="74.594" width="8" height="1043.25" fill="#000" fill-opacity="0"/><line x1="1135.336" y1="74.594" x2="1135.336" y2="1117.844" style="stroke:#181818;stroke-width:0.5;stroke-dasharray:5,5;"/></g><g><title>AlerteEchangeJob</title><rect x="1301.979" y="74.594" width="8" height="1043.25" fill="#000" fill-opacity="0"/><line x1="1305.479" y1="74.594" x2="1305.479" y2="1117.844" style="stroke:#181818;stroke-width:0.5;stroke-dasharray:5,5;"/></g><g><title>JournalNotificationsRepository</title><rect x="1714.142" y="74.594" width="8" height="1043.25" fill="#000" fill-opacity="0"/><line x1="1717.642" y1="74.594" x2="1717.642" y2="1117.844" style="stroke:#181818;stroke-width:0.5;stroke-dasharray:5,5;"/></g><g><title>NotificationDispatcher</title><rect x="1921.916" y="74.594" width="8" height="1043.25" fill="#000" fill-opacity="0"/><line x1="1925.416" y1="74.594" x2="1925.416" y2="1117.844" style="stroke:#181818;stroke-width:0.5;stroke-dasharray:5,5;"/></g><g><title>NotificationWriter</title><rect x="2136.205" y="74.594" width="8" height="1043.25" fill="#000" fill-opacity="0"/><line x1="2139.705" y1="74.594" x2="2139.705" y2="1117.844" style="stroke:#181818;stroke-width:0.5;stroke-dasharray:5,5;"/></g><g><title>SMTP</title><rect x="2239.542" y="74.594" width="8" height="1043.25" fill="#000" fill-opacity="0"/><line x1="2243.042" y1="74.594" x2="2243.042" y2="1117.844" style="stroke:#181818;stroke-width:0.5;stroke-dasharray:5,5;"/></g><text x="63.795" y="54.995" fill="#000" font-size="14" textLength="133.041">Quarkus Scheduler</text><text x="10" y="71.292" fill="#000" font-size="14" textLength="240.632">NOTIFICATIONS_CRON (0 5 * * * ?)</text><ellipse cx="133.316" cy="26" rx="12" ry="12" fill="#E2E2F0" style="stroke:#181818;stroke-width:0.5;"/><polygon points="129.316,14,135.316,9,133.316,14,135.316,19,129.316,14" fill="#181818" style="stroke:#181818;stroke-width:1;stroke-linejoin:miter;stroke-miterlimit:10;"/><rect x="266.632" y="43.297" width="220.377" height="30.297" fill="#E2E2F0" style="stroke:#181818;stroke-width:0.5;" rx="2.5" ry="2.5"/><text x="273.632" y="63.292" fill="#000" font-size="14" textLength="206.377">NotificationsPlanifieesService</text><rect x="783.971" y="43.297" width="117.53" height="30.297" fill="#E2E2F0" style="stroke:#181818;stroke-width:0.5;" rx="2.5" ry="2.5"/><text x="790.971" y="63.292" fill="#000" font-size="14" textLength="103.53">EditionContext</text><rect x="911.501" y="43.297" width="122.637" height="30.297" fill="#E2E2F0" style="stroke:#181818;stroke-width:0.5;" rx="2.5" ry="2.5"/><text x="918.501" y="63.292" fill="#000" font-size="14" textLength="108.637">RappelVeilleJob</text><rect x="1044.138" y="43.297" width="182.396" height="30.297" fill="#E2E2F0" style="stroke:#181818;stroke-width:0.5;" rx="2.5" ry="2.5"/><text x="1051.138" y="63.292" fill="#000" font-size="14" textLength="168.396">RelanceConfirmationJob</text><rect x="1236.535" y="43.297" width="137.888" height="30.297" fill="#E2E2F0" style="stroke:#181818;stroke-width:0.5;" rx="2.5" ry="2.5"/><text x="1243.535" y="63.292" fill="#000" font-size="14" textLength="123.888">AlerteEchangeJob</text><rect x="1604.962" y="43.297" width="225.36" height="30.297" fill="#E2E2F0" style="stroke:#181818;stroke-width:0.5;" rx="2.5" ry="2.5"/><text x="1611.962" y="63.292" fill="#000" font-size="14" textLength="211.36">JournalNotificationsRepository</text><rect x="1840.322" y="43.297" width="170.188" height="30.297" fill="#E2E2F0" style="stroke:#181818;stroke-width:0.5;" rx="2.5" ry="2.5"/><text x="1847.322" y="63.292" fill="#000" font-size="14" textLength="156.188">NotificationDispatcher</text><rect x="2070.867" y="43.297" width="137.676" height="30.297" fill="#E2E2F0" style="stroke:#181818;stroke-width:0.5;" rx="2.5" ry="2.5"/><text x="2077.867" y="63.292" fill="#000" font-size="14" textLength="123.676">NotificationWriter</text><text x="2221.063" y="71.292" fill="#000" font-size="14" textLength="37.96">SMTP</text><path d="M2222.542,30.297 L2222.542,54.297 M2222.542,42.297 L2239.542,42.297" style="stroke:#181818;stroke-width:0.5;" fill="none"/><ellipse cx="2251.542" cy="42.297" rx="12" ry="12" fill="#E2E2F0" style="stroke:#181818;stroke-width:0.5;"/><polygon points="364.82,99.727,374.82,103.727,364.82,107.727,368.82,103.727" fill="#181818" style="stroke:#181818;stroke-width:1;stroke-linejoin:miter;stroke-miterlimit:10;"/><line x1="133.316" y1="103.727" x2="370.82" y2="103.727" style="stroke:#181818;stroke-width:1;"/><text x="140.316" y="98.661" fill="#000" font-size="13" font-weight="700">1</text><text x="153.361" y="98.661" fill="#000" font-size="13" textLength="102.166">scheduledRun()</text><line x1="376.82" y1="132.859" x2="418.82" y2="132.859" style="stroke:#181818;stroke-width:1;"/><line x1="418.82" y1="132.859" x2="418.82" y2="145.859" style="stroke:#181818;stroke-width:1;"/><line x1="377.82" y1="145.859" x2="418.82" y2="145.859" style="stroke:#181818;stroke-width:1;"/><polygon points="387.82,141.859,377.82,145.859,387.82,149.859,383.82,145.859" fill="#181818" style="stroke:#181818;stroke-width:1;stroke-linejoin:miter;stroke-miterlimit:10;"/><text x="383.82" y="127.793" fill="#000" font-size="13" font-weight="700">2</text><text x="396.866" y="127.793" fill="#000" font-size="13" textLength="31.967">run()</text><line x1="376.82" y1="174.992" x2="418.82" y2="174.992" style="stroke:#181818;stroke-width:1;"/><line x1="418.82" y1="174.992" x2="418.82" y2="187.992" style="stroke:#181818;stroke-width:1;"/><line x1="377.82" y1="187.992" x2="418.82" y2="187.992" style="stroke:#181818;stroke-width:1;"/><polygon points="387.82,183.992,377.82,187.992,387.82,191.992,383.82,187.992" fill="#181818" style="stroke:#181818;stroke-width:1;stroke-linejoin:miter;stroke-miterlimit:10;"/><text x="383.82" y="169.926" fill="#000" font-size="13" font-weight="700">3</text><text x="396.866" y="169.926" fill="#000" font-size="13" textLength="94.479">purgeHistory()</text><path d="M360.82,199.992 L437.444,199.992 L437.444,207.125 L427.444,217.125 L360.82,217.125 L360.82,199.992" style="stroke:#000;stroke-width:1.5;" fill="#EEE"/><rect x="360.82" y="199.992" width="1235.142" height="336.594" fill="none" style="stroke:#000;stroke-width:1.5;"/><text x="375.82" y="213.059" fill="#000" font-size="13" textLength="31.624" font-weight="700">loop</text><text x="452.444" y="212.203" fill="#000" font-size="11" textLength="102.346" font-weight="700">[chaque édition]</text><polygon points="830.736,244.258,840.736,248.258,830.736,252.258,834.736,248.258" fill="#181818" style="stroke:#181818;stroke-width:1;stroke-linejoin:miter;stroke-miterlimit:10;"/><line x1="376.82" y1="248.258" x2="836.736" y2="248.258" style="stroke:#181818;stroke-width:1;"/><text x="383.82" y="243.192" fill="#000" font-size="13" font-weight="700">4</text><text x="396.866" y="243.192" fill="#000" font-size="13" textLength="216.741">executeIn(édition, forOneEdition)</text><line x1="376.82" y1="277.391" x2="418.82" y2="277.391" style="stroke:#181818;stroke-width:1;"/><line x1="418.82" y1="277.391" x2="418.82" y2="290.391" style="stroke:#181818;stroke-width:1;"/><line x1="377.82" y1="290.391" x2="418.82" y2="290.391" style="stroke:#181818;stroke-width:1;"/><polygon points="387.82,286.391,377.82,290.391,387.82,294.391,383.82,290.391" fill="#181818" style="stroke:#181818;stroke-width:1;stroke-linejoin:miter;stroke-miterlimit:10;"/><text x="383.82" y="272.325" fill="#000" font-size="13" font-weight="700">5</text><text x="396.866" y="272.325" fill="#000" font-size="13" textLength="174.586">forOneEdition(maintenant)</text><path d="M583.452,261.258 L583.452,286.258 L831.452,286.258 L831.452,271.258 L821.452,261.258 L583.452,261.258" style="stroke:#181818;stroke-width:0.5;" fill="#FEFFDD"/><path d="M821.452,261.258 L821.452,271.258 L831.452,271.258 L821.452,261.258" style="stroke:#181818;stroke-width:0.5;" fill="#FEFFDD"/><text x="589.452" y="278.325" fill="#000" font-size="13" textLength="227.538">0 envoi si l'édition n'est pas armée</text><polygon points="960.82,315.523,970.82,319.523,960.82,323.523,964.82,319.523" fill="#181818" style="stroke:#181818;stroke-width:1;stroke-linejoin:miter;stroke-miterlimit:10;"/><line x1="376.82" y1="319.523" x2="966.82" y2="319.523" style="stroke:#181818;stroke-width:1;"/><text x="383.82" y="314.458" fill="#000" font-size="13" font-weight="700">6</text><text x="396.866" y="314.458" fill="#000" font-size="13" textLength="190.753">run(paramètres, maintenant)</text><path d="M977.82,332.523 L977.82,372.523 L1230.82,372.523 L1230.82,342.523 L1220.82,332.523 L977.82,332.523" style="stroke:#181818;stroke-width:0.5;" fill="#FEFFDD"/><path d="M1220.82,332.523 L1220.82,342.523 L1230.82,342.523 L1220.82,332.523" style="stroke:#181818;stroke-width:0.5;" fill="#FEFFDD"/><text x="983.82" y="349.59" fill="#000" font-size="13" textLength="161.592">passé l'heure du rappel :</text><text x="983.82" y="364.723" fill="#000" font-size="13" textLength="232.623">postes de demain sur le plan publié</text><polygon points="1123.336,394.922,1133.336,398.922,1123.336,402.922,1127.336,398.922" fill="#181818" style="stroke:#181818;stroke-width:1;stroke-linejoin:miter;stroke-miterlimit:10;"/><line x1="376.82" y1="398.922" x2="1129.336" y2="398.922" style="stroke:#181818;stroke-width:1;"/><text x="383.82" y="393.856" fill="#000" font-size="13" font-weight="700">7</text><text x="396.866" y="393.856" fill="#000" font-size="13" textLength="190.753">run(paramètres, maintenant)</text><path d="M1140.336,411.922 L1140.336,451.922 L1395.336,451.922 L1395.336,421.922 L1385.336,411.922 L1140.336,411.922" style="stroke:#181818;stroke-width:0.5;" fill="#FEFFDD"/><path d="M1385.336,411.922 L1385.336,421.922 L1395.336,421.922 L1385.336,411.922" style="stroke:#181818;stroke-width:0.5;" fill="#FEFFDD"/><text x="1146.336" y="428.989" fill="#000" font-size="13" textLength="226.116">délai écoulé depuis la publication :</text><text x="1146.336" y="444.122" fill="#000" font-size="13" textLength="234.851">ceux qui n'ont pas accusé réception</text><polygon points="1293.479,474.32,1303.479,478.32,1293.479,482.32,1297.479,478.32" fill="#181818" style="stroke:#181818;stroke-width:1;stroke-linejoin:miter;stroke-miterlimit:10;"/><line x1="376.82" y1="478.32" x2="1299.479" y2="478.32" style="stroke:#181818;stroke-width:1;"/><text x="383.82" y="473.254" fill="#000" font-size="13" font-weight="700">8</text><text x="396.866" y="473.254" fill="#000" font-size="13" textLength="190.753">run(paramètres, maintenant)</text><path d="M1310.479,491.32 L1310.479,531.32 L1574.479,531.32 L1574.479,501.32 L1564.479,491.32 L1310.479,491.32" style="stroke:#181818;stroke-width:0.5;" fill="#FEFFDD"/><path d="M1564.479,491.32 L1564.479,501.32 L1574.479,501.32 L1564.479,491.32" style="stroke:#181818;stroke-width:0.5;" fill="#FEFFDD"/><text x="1316.479" y="508.387" fill="#000" font-size="13" textLength="243.483">demandes PROPOSEE plus anciennes</text><text x="1316.479" y="523.52" fill="#000" font-size="13" textLength="189.357">que ancienneteEchangeJours</text><path d="M918.82,554.586 L1296.577,554.586 L1296.577,561.719 L1286.577,571.719 L918.82,571.719 L918.82,554.586" style="stroke:#000;stroke-width:1.5;" fill="#EEE"/><rect x="918.82" y="554.586" width="1393.659" height="497.125" fill="none" style="stroke:#000;stroke-width:1.5;"/><text x="933.82" y="567.653" fill="#000" font-size="13" textLength="332.757" font-weight="700">dans chaque tâche, pour chaque destinataire</text><path d="M937.82,585.719 L1002.263,585.719 L1002.263,592.852 L992.263,602.852 L937.82,602.852 L937.82,585.719" style="stroke:#000;stroke-width:1.5;" fill="#EEE"/><rect x="937.82" y="585.719" width="1349.659" height="451.992" fill="none" style="stroke:#000;stroke-width:1.5;"/><text x="952.82" y="598.786" fill="#000" font-size="13" textLength="19.443" font-weight="700">alt</text><text x="1017.263" y="597.929" fill="#000" font-size="11" textLength="158.275" font-weight="700">[pas d'e-mail sur la fiche]</text><polygon points="1705.642,629.984,1715.642,633.984,1705.642,637.984,1709.642,633.984" fill="#181818" style="stroke:#181818;stroke-width:1;stroke-linejoin:miter;stroke-miterlimit:10;"/><line x1="972.82" y1="633.984" x2="1711.642" y2="633.984" style="stroke:#181818;stroke-width:1;"/><text x="979.82" y="628.918" fill="#000" font-size="13" font-weight="700">9</text><text x="992.865" y="628.918" fill="#000" font-size="13" textLength="364.375">claim(RAPPEL_VEILLE_INJOIGNABLE, …, libellé, sévérité)</text><path d="M1722.642,617.852 L1722.642,657.852 L1997.642,657.852 L1997.642,627.852 L1987.642,617.852 L1722.642,617.852" style="stroke:#181818;stroke-width:0.5;" fill="#FEFFDD"/><path d="M1987.642,617.852 L1987.642,627.852 L1997.642,627.852 L1987.642,617.852" style="stroke:#181818;stroke-width:0.5;" fill="#FEFFDD"/><text x="1728.642" y="634.918" fill="#000" font-size="13" textLength="207.702">une alerte pour le coordinateur,</text><text x="1728.642" y="650.051" fill="#000" font-size="13" textLength="254.008">réservée elle aussi : dite une seule fois</text><line x1="937.82" y1="664.117" x2="2287.479" y2="664.117" style="stroke:#000;stroke-width:1;stroke-dasharray:2,2;"/><polygon points="1705.642,686.25,1715.642,690.25,1705.642,694.25,1709.642,690.25" fill="#181818" style="stroke:#181818;stroke-width:1;stroke-linejoin:miter;stroke-miterlimit:10;"/><line x1="972.82" y1="690.25" x2="1711.642" y2="690.25" style="stroke:#181818;stroke-width:1;"/><text x="979.82" y="685.184" fill="#000" font-size="13" textLength="18.091" font-weight="700">10</text><text x="1001.911" y="685.184" fill="#000" font-size="13" textLength="258.845">claim(RAPPEL_VEILLE, clé, animateurId)</text><path d="M1722.642,703.25 L1722.642,743.25 L1971.642,743.25 L1971.642,713.25 L1961.642,703.25 L1722.642,703.25" style="stroke:#181818;stroke-width:0.5;" fill="#FEFFDD"/><path d="M1961.642,703.25 L1961.642,713.25 L1971.642,713.25 L1961.642,703.25" style="stroke:#181818;stroke-width:0.5;" fill="#FEFFDD"/><text x="1728.642" y="720.317" fill="#000" font-size="13" textLength="194.822">(edition_id, type, clé) unique :</text><text x="1728.642" y="735.45" fill="#000" font-size="13" textLength="228.065">un second passage ne réserve rien</text><path d="M956.82,752.516 L1021.263,752.516 L1021.263,759.648 L1011.263,769.648 L956.82,769.648 L956.82,752.516" style="stroke:#000;stroke-width:1.5;" fill="#EEE"/><rect x="956.82" y="752.516" width="1305.659" height="271.195" fill="none" style="stroke:#000;stroke-width:1.5;"/><text x="971.82" y="765.583" fill="#000" font-size="13" textLength="19.443" font-weight="700">alt</text><text x="1036.263" y="764.726" fill="#000" font-size="11" textLength="116.402" font-weight="700">[clé déjà réservée]</text><polygon points="983.82,796.781,973.82,800.781,983.82,804.781,979.82,800.781" fill="#181818" style="stroke:#181818;stroke-width:1;stroke-linejoin:miter;stroke-miterlimit:10;"/><line x1="977.82" y1="800.781" x2="1716.642" y2="800.781" style="stroke:#181818;stroke-width:1;stroke-dasharray:2,2;"/><text x="989.82" y="795.715" fill="#000" font-size="13" textLength="18.091" font-weight="700">11</text><text x="1011.911" y="795.715" fill="#000" font-size="13" textLength="113.096">faux, rien ne part</text><line x1="956.82" y1="809.781" x2="2262.479" y2="809.781" style="stroke:#000;stroke-width:1;stroke-dasharray:2,2;"/><line x1="1923.416" y1="835.914" x2="1913.416" y2="831.914" style="stroke:#181818;stroke-width:1;"/><line x1="1923.416" y1="835.914" x2="1913.416" y2="839.914" style="stroke:#181818;stroke-width:1;"/><line x1="972.82" y1="835.914" x2="1924.416" y2="835.914" style="stroke:#181818;stroke-width:1;"/><text x="979.82" y="830.848" fill="#000" font-size="13" textLength="18.091" font-weight="700">12</text><text x="1001.911" y="830.848" fill="#000" font-size="13" textLength="274.815">Notification.RappelVeille (événement CDI)</text><line x1="1925.416" y1="865.047" x2="1967.416" y2="865.047" style="stroke:#181818;stroke-width:1;"/><line x1="1967.416" y1="865.047" x2="1967.416" y2="878.047" style="stroke:#181818;stroke-width:1;"/><line x1="1926.416" y1="878.047" x2="1967.416" y2="878.047" style="stroke:#181818;stroke-width:1;"/><polygon points="1936.416,874.047,1926.416,878.047,1936.416,882.047,1932.416,878.047" fill="#181818" style="stroke:#181818;stroke-width:1;stroke-linejoin:miter;stroke-miterlimit:10;"/><text x="1932.416" y="859.981" fill="#000" font-size="13" textLength="18.091" font-weight="700">13</text><text x="1954.507" y="859.981" fill="#000" font-size="13" textLength="178.198">surNotification(notification)</text><polygon points="2127.705,903.18,2137.705,907.18,2127.705,911.18,2131.705,907.18" fill="#181818" style="stroke:#181818;stroke-width:1;stroke-linejoin:miter;stroke-miterlimit:10;"/><line x1="1925.416" y1="907.18" x2="2133.705" y2="907.18" style="stroke:#181818;stroke-width:1;"/><text x="1932.416" y="902.114" fill="#000" font-size="13" textLength="18.091" font-weight="700">14</text><text x="1954.507" y="902.114" fill="#000" font-size="13" textLength="130.051">rediger(notification)</text><polygon points="1936.416,932.313,1926.416,936.313,1936.416,940.313,1932.416,936.313" fill="#181818" style="stroke:#181818;stroke-width:1;stroke-linejoin:miter;stroke-miterlimit:10;"/><line x1="1930.416" y1="936.313" x2="2138.705" y2="936.313" style="stroke:#181818;stroke-width:1;stroke-dasharray:2,2;"/><text x="1942.416" y="931.247" fill="#000" font-size="13" textLength="18.091" font-weight="700">15</text><text x="1964.507" y="931.247" fill="#000" font-size="13" textLength="155.867">MailDraft (gabarit Qute)</text><polygon points="2231.042,961.445,2241.042,965.445,2231.042,969.445,2235.042,965.445" fill="#181818" style="stroke:#181818;stroke-width:1;stroke-linejoin:miter;stroke-miterlimit:10;"/><line x1="1925.416" y1="965.445" x2="2237.042" y2="965.445" style="stroke:#181818;stroke-width:1;"/><text x="1932.416" y="960.379" fill="#000" font-size="13" textLength="18.091" font-weight="700">16</text><text x="1954.507" y="960.379" fill="#000" font-size="13" textLength="35.496">envoi</text><path d="M1930.416,978.445 L1930.416,1018.445 L2241.416,1018.445 L2241.416,988.445 L2231.416,978.445 L1930.416,978.445" style="stroke:#181818;stroke-width:0.5;" fill="#FEFFDD"/><path d="M2231.416,978.445 L2231.416,988.445 L2241.416,988.445 L2231.416,978.445" style="stroke:#181818;stroke-width:0.5;" fill="#FEFFDD"/><text x="1936.416" y="995.512" fill="#000" font-size="13" textLength="290.063">le seul catch des mails d'accompagnement :</text><text x="1936.416" y="1010.645" fill="#000" font-size="13" textLength="210.622">un SMTP en panne n'annule rien</text><line x1="376.82" y1="1086.844" x2="418.82" y2="1086.844" style="stroke:#181818;stroke-width:1;"/><line x1="418.82" y1="1086.844" x2="418.82" y2="1099.844" style="stroke:#181818;stroke-width:1;"/><line x1="377.82" y1="1099.844" x2="418.82" y2="1099.844" style="stroke:#181818;stroke-width:1;"/><polygon points="387.82,1095.844,377.82,1099.844,387.82,1103.844,383.82,1099.844" fill="#181818" style="stroke:#181818;stroke-width:1;stroke-linejoin:miter;stroke-miterlimit:10;"/><text x="383.82" y="1081.778" fill="#000" font-size="13" textLength="18.091" font-weight="700">17</text><text x="405.911" y="1081.778" fill="#000" font-size="13" textLength="429.825">NOTIFICATIONS_ENVOYEES au journal, s'il est parti quelque chose</text><?plantuml-src bLRDRY974BxFKvIS0pZ2P2-v-B2H5xC95WOMB4UHB5dDJ06zxkaUzu-NlULHeXoYe3n2RikRv4bIrJtypAvzC1QUdwx_-hugMZ1ieNuo4bR62caHpi5R8ntuxP_v2bq7AXCiA7JWCF1bkocabqOx4BRSRbX41JwEObaBAYKqL66kv7RJXTvAF0Q4v0ITXw8bviOMOBSRX_Pfkw4pc0k7qKBG2BcYb-TqoyQ4SsA9K23P3Gxes4PRT9Mekt1ZWYSfwzbCYL8f93EuM1ZhEtoGWYgaguIdZ6mNResqK9ZS_O3hIXdf1UVJBOiEVFa7XfHBz4091czAEdpa_2W27QI7B_zsC_SWDPaM9GMUFooj2Rhe6MKiVFS-VeuaBBgAgeNN63DvXyfykh3MVA921ynMaWmlZF5piyxOeGxb76sMvKPJ9nISV0Z2Fb3gCug-e1ROEpqQtmpU3teNDuFnQ7RVcuv7q7u3FyBtyU-dqnCG3d9hTCQLaRciXFOmCbukP1wpTHFg4ZqXkXbrGUR8AYxTDhJwgTqz2WVNFXfEjqsngQWgLBUn0LTcpd9FyQ4fXUGsHpAsaBQCaTJ2Dfqqf2yeMO_zV2NqScTKn7SDiIj2g1QgaTuKA-EaD_OpAtrC4YzMutAF3fO-OEL5XL-jz4dOOY5oJvZBvem2GGvFPjStazW2L_gAEacDWBEtk-eIj5tToc8QTFiqsnqqPEpBHrMmI_n5EawFP9Gn5UI9PpjsPW17ghkEaIwkCGyU1xgz4-qG_EnOOzteqwRgmMj3gbqAIJOr5OOLjF5CoENAa-2RckrEWchjl81kCVihiPiRJJS9AtNQaJZRlxtbuVAY8xCuQF6OeA6XMYlg14sB03RY4SxlD0719_uMoCRgITMOKyrWQYo-Dfg3Mh7TA26f6Ra9FCmAh0BD4oMIluGXZYt7i8R78AawrA9KdJmFd0lDnnohRtkP2F3QsFPQN0DTK3qcq_5aFEltqrobm6cSQdHtcc6qUpnYNx0kGrra6O-x2Wf16w06NTeLzQgetv4BBxNml5Ge6g5ITaKBpoXEbPeWW0YrudFOzP8ohDbAmUPKnR8zlPXC-iFxs_vWEEpV3qPNuy7Feujtmtu7_llzBre_SewAojm1gXij5EBcTdCQZJPmoRkbhaEzr8WOj8euJ89DvqxlTn8jB0v614SWfg8HswDwt8741Ed8F2htgj0xSRDrgBYoZ1u7nJTHKgiEDjgOk7ClQJNvpnKc2wSK2kya1b0WE2FHkzXlIjwGAOsq8gC7BdzSguJCZzi_3iit9G1xfsV7N5o8iEv48soLPs6KtkTzbFdRewb9ciUpidky6g0TMwInHC9xxt9mMbiwKZ_xoXX1vTXUMnyzFA--7yfC4ohY4kspMWUviw-TNXD8BwrOU6WlnLmGfk03pStd_V6SvzdAOwyMQFQqOLeb747ERvWep5p5t23kcx8IoxeygR-yJVZ73IqXwe9kqOL1kEyjapBzv--pexlvUw4_kXt_rk_F2DwxlXDrMaJADA5fvT5CGiKGorV6uVy0?></g></svg>