<svg xmlns="http://www.w3.org/2000/svg" xmlns:xlink="http://www.w3.org/1999/xlink" version="1.1" data-diagram-type="SEQUENCE" style="width:2868px;height:1406px;background:#FFFFFF;" width="2868px" height="1406px" viewBox="0 0 2868 1406" zoomAndPan="magnify" preserveAspectRatio="none" contentStyleType="text/css"><?plantuml 1.2026.8?><defs/><g font-family="sans-serif" lengthAdjust="spacing"><rect x="360.82" y="237.258" width="1376.828" height="479.063" fill="none" style="stroke:#000;stroke-width:1.5;"/><rect x="899.82" y="734.32" width="1948.923" height="594.656" fill="none" style="stroke:#000;stroke-width:1.5;"/><rect x="918.82" y="765.453" width="1904.923" height="549.523" fill="none" style="stroke:#000;stroke-width:1.5;"/><rect x="937.82" y="932.25" width="1860.923" height="368.727" fill="none" style="stroke:#000;stroke-width:1.5;"/><rect x="956.82" y="1209.578" width="1398.846" height="77.398" fill="none" style="stroke:#000;stroke-width:1.5;"/><g><title>Quarkus Scheduler</title><rect x="129.816" y="74.594" width="8" height="1320.516" fill="#000" fill-opacity="0"/><line x1="133.316" y1="74.594" x2="133.316" y2="1395.109" style="stroke:#181818;stroke-width:0.5;stroke-dasharray:5,5;"/></g><g><title>NotificationsPlanifieesService</title><rect x="373.32" y="74.594" width="8" height="1320.516" fill="#000" fill-opacity="0"/><line x1="376.82" y1="74.594" x2="376.82" y2="1395.109" style="stroke:#181818;stroke-width:0.5;stroke-dasharray:5,5;"/></g><g><title>EditionContext</title><rect x="839.236" y="74.594" width="8" height="1320.516" fill="#000" fill-opacity="0"/><line x1="842.736" y1="74.594" x2="842.736" y2="1395.109" style="stroke:#181818;stroke-width:0.5;stroke-dasharray:5,5;"/></g><g><title>RappelVeilleJob</title><rect x="969.32" y="74.594" width="8" height="1320.516" fill="#000" fill-opacity="0"/><line x1="972.82" y1="74.594" x2="972.82" y2="1395.109" style="stroke:#181818;stroke-width:0.5;stroke-dasharray:5,5;"/></g><g><title>RelanceConfirmationJob</title><rect x="1131.836" y="74.594" width="8" height="1320.516" fill="#000" fill-opacity="0"/><line x1="1135.336" y1="74.594" x2="1135.336" y2="1395.109" style="stroke:#181818;stroke-width:0.5;stroke-dasharray:5,5;"/></g><g><title>AlerteEchangeJob</title><rect x="1301.979" y="74.594" width="8" height="1320.516" fill="#000" fill-opacity="0"/><line x1="1305.479" y1="74.594" x2="1305.479" y2="1395.109" style="stroke:#181818;stroke-width:0.5;stroke-dasharray:5,5;"/></g><g><title>RelanceCollecteJob</title><rect x="1454.976" y="74.594" width="8" height="1320.516" fill="#000" fill-opacity="0"/><line x1="1458.476" y1="74.594" x2="1458.476" y2="1395.109" style="stroke:#181818;stroke-width:0.5;stroke-dasharray:5,5;"/></g><g><title>JournalNotificationsRepository</title><rect x="1855.828" y="74.594" width="8" height="1320.516" fill="#000" fill-opacity="0"/><line x1="1859.328" y1="74.594" x2="1859.328" y2="1395.109" style="stroke:#181818;stroke-width:0.5;stroke-dasharray:5,5;"/></g><g><title>NotificationDispatcher</title><rect x="2446.26" y="74.594" width="8" height="1320.516" fill="#000" fill-opacity="0"/><line x1="2449.76" y1="74.594" x2="2449.76" y2="1395.109" style="stroke:#181818;stroke-width:0.5;stroke-dasharray:5,5;"/></g><g><title>NotificationWriter</title><rect x="2648.217" y="74.594" width="8" height="1320.516" fill="#000" fill-opacity="0"/><line x1="2651.717" y1="74.594" x2="2651.717" y2="1395.109" style="stroke:#181818;stroke-width:0.5;stroke-dasharray:5,5;"/></g><g><title>SMTP</title><rect x="2751.555" y="74.594" width="8" height="1320.516" fill="#000" fill-opacity="0"/><line x1="2755.055" y1="74.594" x2="2755.055" y2="1395.109" style="stroke:#181818;stroke-width:0.5;stroke-dasharray:5,5;"/></g><text x="63.795" y="54.995" fill="#000" font-size="14" textLength="133.041">Quarkus Scheduler</text><text x="10" y="71.292" fill="#000" font-size="14" textLength="240.632">NOTIFICATIONS_CRON (0 5 * * * ?)</text><ellipse cx="133.316" cy="26" rx="12" ry="12" fill="#E2E2F0" style="stroke:#181818;stroke-width:0.5;"/><polygon points="129.316,14,135.316,9,133.316,14,135.316,19,129.316,14" fill="#181818" style="stroke:#181818;stroke-width:1;stroke-linejoin:miter;stroke-miterlimit:10;"/><rect x="266.632" y="43.297" width="220.377" height="30.297" fill="#E2E2F0" style="stroke:#181818;stroke-width:0.5;" rx="2.5" ry="2.5"/><text x="273.632" y="63.292" fill="#000" font-size="14" textLength="206.377">NotificationsPlanifieesService</text><rect x="783.971" y="43.297" width="117.53" height="30.297" fill="#E2E2F0" style="stroke:#181818;stroke-width:0.5;" rx="2.5" ry="2.5"/><text x="790.971" y="63.292" fill="#000" font-size="14" textLength="103.53">EditionContext</text><rect x="911.501" y="43.297" width="122.637" height="30.297" fill="#E2E2F0" style="stroke:#181818;stroke-width:0.5;" rx="2.5" ry="2.5"/><text x="918.501" y="63.292" fill="#000" font-size="14" textLength="108.637">RappelVeilleJob</text><rect x="1044.138" y="43.297" width="182.396" height="30.297" fill="#E2E2F0" style="stroke:#181818;stroke-width:0.5;" rx="2.5" ry="2.5"/><text x="1051.138" y="63.292" fill="#000" font-size="14" textLength="168.396">RelanceConfirmationJob</text><rect x="1236.535" y="43.297" width="137.888" height="30.297" fill="#E2E2F0" style="stroke:#181818;stroke-width:0.5;" rx="2.5" ry="2.5"/><text x="1243.535" y="63.292" fill="#000" font-size="14" textLength="123.888">AlerteEchangeJob</text><rect x="1384.422" y="43.297" width="148.107" height="30.297" fill="#E2E2F0" style="stroke:#181818;stroke-width:0.5;" rx="2.5" ry="2.5"/><text x="1391.422" y="63.292" fill="#000" font-size="14" textLength="134.107">RelanceCollecteJob</text><rect x="1746.648" y="43.297" width="225.36" height="30.297" fill="#E2E2F0" style="stroke:#181818;stroke-width:0.5;" rx="2.5" ry="2.5"/><text x="1753.648" y="63.292" fill="#000" font-size="14" textLength="211.36">JournalNotificationsRepository</text><rect x="2364.666" y="43.297" width="170.188" height="30.297" fill="#E2E2F0" style="stroke:#181818;stroke-width:0.5;" rx="2.5" ry="2.5"/><text x="2371.666" y="63.292" fill="#000" font-size="14" textLength="156.188">NotificationDispatcher</text><rect x="2582.879" y="43.297" width="137.676" height="30.297" fill="#E2E2F0" style="stroke:#181818;stroke-width:0.5;" rx="2.5" ry="2.5"/><text x="2589.879" y="63.292" fill="#000" font-size="14" textLength="123.676">NotificationWriter</text><text x="2733.075" y="71.292" fill="#000" font-size="14" textLength="37.96">SMTP</text><path d="M2734.555,30.297 L2734.555,54.297 M2734.555,42.297 L2751.555,42.297" style="stroke:#181818;stroke-width:0.5;" fill="none"/><ellipse cx="2763.555" cy="42.297" rx="12" ry="12" fill="#E2E2F0" style="stroke:#181818;stroke-width:0.5;"/><polygon points="364.82,99.727,374.82,103.727,364.82,107.727,368.82,103.727" fill="#181818" style="stroke:#181818;stroke-width:1;stroke-linejoin:miter;stroke-miterlimit:10;"/><line x1="133.316" y1="103.727" x2="370.82" y2="103.727" style="stroke:#181818;stroke-width:1;"/><text x="140.316" y="98.661" fill="#000" font-size="13" font-weight="700">1</text><text x="153.361" y="98.661" fill="#000" font-size="13" textLength="102.166">scheduledRun()</text><line x1="376.82" y1="132.859" x2="418.82" y2="132.859" style="stroke:#181818;stroke-width:1;"/><line x1="418.82" y1="132.859" x2="418.82" y2="145.859" style="stroke:#181818;stroke-width:1;"/><line x1="377.82" y1="145.859" x2="418.82" y2="145.859" style="stroke:#181818;stroke-width:1;"/><polygon points="387.82,141.859,377.82,145.859,387.82,149.859,383.82,145.859" fill="#181818" style="stroke:#181818;stroke-width:1;stroke-linejoin:miter;stroke-miterlimit:10;"/><text x="383.82" y="127.793" fill="#000" font-size="13" font-weight="700">2</text><text x="396.866" y="127.793" fill="#000" font-size="13" textLength="31.967">run()</text><line x1="376.82" y1="174.992" x2="418.82" y2="174.992" style="stroke:#181818;stroke-width:1;"/><line x1="418.82" y1="174.992" x2="418.82" y2="187.992" style="stroke:#181818;stroke-width:1;"/><line x1="377.82" y1="187.992" x2="418.82" y2="187.992" style="stroke:#181818;stroke-width:1;"/><polygon points="387.82,183.992,377.82,187.992,387.82,191.992,383.82,187.992" fill="#181818" style="stroke:#181818;stroke-width:1;stroke-linejoin:miter;stroke-miterlimit:10;"/><text x="383.82" y="169.926" fill="#000" font-size="13" font-weight="700">3</text><text x="396.866" y="169.926" fill="#000" font-size="13" textLength="94.479">purgeHistory()</text><path d="M503.344,158.859 L503.344,198.859 L814.344,198.859 L814.344,168.859 L804.344,158.859 L503.344,158.859" style="stroke:#181818;stroke-width:0.5;" fill="#FEFFDD"/><path d="M804.344,158.859 L804.344,168.859 L814.344,168.859 L804.344,158.859" style="stroke:#181818;stroke-width:0.5;" fill="#FEFFDD"/><text x="509.344" y="175.926" fill="#000" font-size="13" textLength="221.457">historique des actions et résultats</text><text x="509.344" y="191.059" fill="#000" font-size="13" textLength="290.761">des envois, au-delà de JOURNAL_RETENTION</text><polygon points="830.736,221.258,840.736,225.258,830.736,229.258,834.736,225.258" fill="#181818" style="stroke:#181818;stroke-width:1;stroke-linejoin:miter;stroke-miterlimit:10;"/><line x1="376.82" y1="225.258" x2="836.736" y2="225.258" style="stroke:#181818;stroke-width:1;"/><text x="383.82" y="220.192" fill="#000" font-size="13" font-weight="700">4</text><text x="396.866" y="220.192" fill="#000" font-size="13" textLength="106.723">activeEditionId()</text><path d="M360.82,237.258 L425.263,237.258 L425.263,244.391 L415.263,254.391 L360.82,254.391 L360.82,237.258" style="stroke:#000;stroke-width:1.5;" fill="#EEE"/><rect x="360.82" y="237.258" width="1376.828" height="479.063" fill="none" style="stroke:#000;stroke-width:1.5;"/><text x="375.82" y="250.325" fill="#000" font-size="13" textLength="19.443" font-weight="700">alt</text><text x="440.263" y="249.468" fill="#000" font-size="11" textLength="143.736" font-weight="700">[aucune édition active]</text><polygon points="387.82,281.523,377.82,285.523,387.82,289.523,383.82,285.523" fill="#181818" style="stroke:#181818;stroke-width:1;stroke-linejoin:miter;stroke-miterlimit:10;"/><line x1="381.82" y1="285.523" x2="841.736" y2="285.523" style="stroke:#181818;stroke-width:1;stroke-dasharray:2,2;"/><text x="393.82" y="280.458" fill="#000" font-size="13" font-weight="700">5</text><text x="406.866" y="280.458" fill="#000" font-size="13" textLength="195.984">vide : rien ne part (ADR 0072)</text><line x1="360.82" y1="294.523" x2="1737.648" y2="294.523" style="stroke:#000;stroke-width:1;stroke-dasharray:2,2;"/><text x="365.82" y="306.734" fill="#000" font-size="11" textLength="102.147" font-weight="700">[l'édition active]</text><polygon points="830.736,329.461,840.736,333.461,830.736,337.461,834.736,333.461" fill="#181818" style="stroke:#181818;stroke-width:1;stroke-linejoin:miter;stroke-miterlimit:10;"/><line x1="376.82" y1="333.461" x2="836.736" y2="333.461" style="stroke:#181818;stroke-width:1;"/><text x="383.82" y="328.395" fill="#000" font-size="13" font-weight="700">6</text><text x="396.866" y="328.395" fill="#000" font-size="13" textLength="211.491">executeIn(active, forOneEdition)</text><line x1="376.82" y1="362.594" x2="418.82" y2="362.594" style="stroke:#181818;stroke-width:1;"/><line x1="418.82" y1="362.594" x2="418.82" y2="375.594" style="stroke:#181818;stroke-width:1;"/><line x1="377.82" y1="375.594" x2="418.82" y2="375.594" style="stroke:#181818;stroke-width:1;"/><polygon points="387.82,371.594,377.82,375.594,387.82,379.594,383.82,375.594" fill="#181818" style="stroke:#181818;stroke-width:1;stroke-linejoin:miter;stroke-miterlimit:10;"/><text x="383.82" y="357.528" fill="#000" font-size="13" font-weight="700">7</text><text x="396.866" y="357.528" fill="#000" font-size="13" textLength="174.586">forOneEdition(maintenant)</text><polygon points="960.82,400.727,970.82,404.727,960.82,408.727,964.82,404.727" fill="#181818" style="stroke:#181818;stroke-width:1;stroke-linejoin:miter;stroke-miterlimit:10;"/><line x1="376.82" y1="404.727" x2="966.82" y2="404.727" style="stroke:#181818;stroke-width:1;"/><text x="383.82" y="399.661" fill="#000" font-size="13" font-weight="700">8</text><text x="396.866" y="399.661" fill="#000" font-size="13" textLength="190.753">run(paramètres, maintenant)</text><path d="M977.82,417.727 L977.82,457.727 L1230.82,457.727 L1230.82,427.727 L1220.82,417.727 L977.82,417.727" style="stroke:#181818;stroke-width:0.5;" fill="#FEFFDD"/><path d="M1220.82,417.727 L1220.82,427.727 L1230.82,427.727 L1220.82,417.727" style="stroke:#181818;stroke-width:0.5;" fill="#FEFFDD"/><text x="983.82" y="434.793" fill="#000" font-size="13" textLength="161.592">passé l'heure du rappel :</text><text x="983.82" y="449.926" fill="#000" font-size="13" textLength="232.623">postes de demain sur le plan publié</text><polygon points="1123.336,480.125,1133.336,484.125,1123.336,488.125,1127.336,484.125" fill="#181818" style="stroke:#181818;stroke-width:1;stroke-linejoin:miter;stroke-miterlimit:10;"/><line x1="376.82" y1="484.125" x2="1129.336" y2="484.125" style="stroke:#181818;stroke-width:1;"/><text x="383.82" y="479.059" fill="#000" font-size="13" font-weight="700">9</text><text x="396.866" y="479.059" fill="#000" font-size="13" textLength="190.753">run(paramètres, maintenant)</text><path d="M1140.336,497.125 L1140.336,537.125 L1395.336,537.125 L1395.336,507.125 L1385.336,497.125 L1140.336,497.125" style="stroke:#181818;stroke-width:0.5;" fill="#FEFFDD"/><path d="M1385.336,497.125 L1385.336,507.125 L1395.336,507.125 L1385.336,497.125" style="stroke:#181818;stroke-width:0.5;" fill="#FEFFDD"/><text x="1146.336" y="514.192" fill="#000" font-size="13" textLength="226.116">délai écoulé depuis la publication :</text><text x="1146.336" y="529.325" fill="#000" font-size="13" textLength="234.851">ceux qui n'ont pas accusé réception</text><polygon points="1293.479,559.523,1303.479,563.523,1293.479,567.523,1297.479,563.523" fill="#181818" style="stroke:#181818;stroke-width:1;stroke-linejoin:miter;stroke-miterlimit:10;"/><line x1="376.82" y1="563.523" x2="1299.479" y2="563.523" style="stroke:#181818;stroke-width:1;"/><text x="383.82" y="558.458" fill="#000" font-size="13" textLength="18.091" font-weight="700">10</text><text x="405.911" y="558.458" fill="#000" font-size="13" textLength="190.753">run(paramètres, maintenant)</text><path d="M1310.479,576.523 L1310.479,616.523 L1574.479,616.523 L1574.479,586.523 L1564.479,576.523 L1310.479,576.523" style="stroke:#181818;stroke-width:0.5;" fill="#FEFFDD"/><path d="M1564.479,576.523 L1564.479,586.523 L1574.479,586.523 L1564.479,576.523" style="stroke:#181818;stroke-width:0.5;" fill="#FEFFDD"/><text x="1316.479" y="593.59" fill="#000" font-size="13" textLength="243.483">demandes PROPOSEE plus anciennes</text><text x="1316.479" y="608.723" fill="#000" font-size="13" textLength="189.357">que ancienneteEchangeJours</text><polygon points="1446.476,638.922,1456.476,642.922,1446.476,646.922,1450.476,642.922" fill="#181818" style="stroke:#181818;stroke-width:1;stroke-linejoin:miter;stroke-miterlimit:10;"/><line x1="376.82" y1="642.922" x2="1452.476" y2="642.922" style="stroke:#181818;stroke-width:1;"/><text x="383.82" y="637.856" fill="#000" font-size="13" textLength="18.091" font-weight="700">11</text><text x="405.911" y="637.856" fill="#000" font-size="13" textLength="107.085">run(maintenant)</text><path d="M1463.476,655.922 L1463.476,710.922 L1716.476,710.922 L1716.476,665.922 L1706.476,655.922 L1463.476,655.922" style="stroke:#181818;stroke-width:0.5;" fill="#FEFFDD"/><path d="M1706.476,655.922 L1706.476,665.922 L1716.476,665.922 L1706.476,655.922" style="stroke:#181818;stroke-width:0.5;" fill="#FEFFDD"/><text x="1469.476" y="672.989" fill="#000" font-size="13" textLength="226.802">interrupteur allumé, fin de collecte</text><text x="1469.476" y="688.122" fill="#000" font-size="13" textLength="230.661">dans 0 à 3 jours, passé 9 h : invités</text><text x="1469.476" y="703.254" fill="#000" font-size="13" textLength="232.172">sans déclaration (clé animateur|fin)</text><path d="M899.82,734.32 L1277.577,734.32 L1277.577,741.453 L1267.577,751.453 L899.82,751.453 L899.82,734.32" style="stroke:#000;stroke-width:1.5;" fill="#EEE"/><rect x="899.82" y="734.32" width="1948.923" height="594.656" fill="none" style="stroke:#000;stroke-width:1.5;"/><text x="914.82" y="747.387" fill="#000" font-size="13" textLength="332.757" font-weight="700">dans chaque tâche, pour chaque destinataire</text><path d="M918.82,765.453 L983.263,765.453 L983.263,772.586 L973.263,782.586 L918.82,782.586 L918.82,765.453" style="stroke:#000;stroke-width:1.5;" fill="#EEE"/><rect x="918.82" y="765.453" width="1904.923" height="549.523" fill="none" style="stroke:#000;stroke-width:1.5;"/><text x="933.82" y="778.52" fill="#000" font-size="13" textLength="19.443" font-weight="700">alt</text><text x="998.263" y="777.664" fill="#000" font-size="11" textLength="158.275" font-weight="700">[pas d'e-mail sur la fiche]</text><polygon points="1847.328,809.719,1857.328,813.719,1847.328,817.719,1851.328,813.719" fill="#181818" style="stroke:#181818;stroke-width:1;stroke-linejoin:miter;stroke-miterlimit:10;"/><line x1="972.82" y1="813.719" x2="1853.328" y2="813.719" style="stroke:#181818;stroke-width:1;"/><text x="979.82" y="808.653" fill="#000" font-size="13" textLength="18.091" font-weight="700">12</text><text x="1001.911" y="808.653" fill="#000" font-size="13" textLength="364.375">claim(RAPPEL_VEILLE_INJOIGNABLE, …, libellé, sévérité)</text><path d="M1864.328,797.586 L1864.328,837.586 L2139.328,837.586 L2139.328,807.586 L2129.328,797.586 L1864.328,797.586" style="stroke:#181818;stroke-width:0.5;" fill="#FEFFDD"/><path d="M2129.328,797.586 L2129.328,807.586 L2139.328,807.586 L2129.328,797.586" style="stroke:#181818;stroke-width:0.5;" fill="#FEFFDD"/><text x="1870.328" y="814.653" fill="#000" font-size="13" textLength="207.702">une alerte pour le coordinateur,</text><text x="1870.328" y="829.786" fill="#000" font-size="13" textLength="254.008">réservée elle aussi : dite une seule fois</text><line x1="918.82" y1="843.852" x2="2823.743" y2="843.852" style="stroke:#000;stroke-width:1;stroke-dasharray:2,2;"/><polygon points="1847.328,865.984,1857.328,869.984,1847.328,873.984,1851.328,869.984" fill="#181818" style="stroke:#181818;stroke-width:1;stroke-linejoin:miter;stroke-miterlimit:10;"/><line x1="972.82" y1="869.984" x2="1853.328" y2="869.984" style="stroke:#181818;stroke-width:1;"/><text x="979.82" y="864.918" fill="#000" font-size="13" textLength="18.091" font-weight="700">13</text><text x="1001.911" y="864.918" fill="#000" font-size="13" textLength="258.845">claim(RAPPEL_VEILLE, clé, animateurId)</text><path d="M1864.328,882.984 L1864.328,922.984 L2113.328,922.984 L2113.328,892.984 L2103.328,882.984 L1864.328,882.984" style="stroke:#181818;stroke-width:0.5;" fill="#FEFFDD"/><path d="M2103.328,882.984 L2103.328,892.984 L2113.328,892.984 L2103.328,882.984" style="stroke:#181818;stroke-width:0.5;" fill="#FEFFDD"/><text x="1870.328" y="900.051" fill="#000" font-size="13" textLength="194.822">(edition_id, type, clé) unique :</text><text x="1870.328" y="915.184" fill="#000" font-size="13" textLength="228.065">un second passage ne réserve rien</text><path d="M937.82,932.25 L1002.263,932.25 L1002.263,939.383 L992.263,949.383 L937.82,949.383 L937.82,932.25" style="stroke:#000;stroke-width:1.5;" fill="#EEE"/><rect x="937.82" y="932.25" width="1860.923" height="368.727" fill="none" style="stroke:#000;stroke-width:1.5;"/><text x="952.82" y="945.317" fill="#000" font-size="13" textLength="19.443" font-weight="700">alt</text><text x="1017.263" y="944.46" fill="#000" font-size="11" textLength="116.402" font-weight="700">[clé déjà réservée]</text><polygon points="983.82,976.516,973.82,980.516,983.82,984.516,979.82,980.516" fill="#181818" style="stroke:#181818;stroke-width:1;stroke-linejoin:miter;stroke-miterlimit:10;"/><line x1="977.82" y1="980.516" x2="1858.328" y2="980.516" style="stroke:#181818;stroke-width:1;stroke-dasharray:2,2;"/><text x="989.82" y="975.45" fill="#000" font-size="13" textLength="18.091" font-weight="700">14</text><text x="1011.911" y="975.45" fill="#000" font-size="13" textLength="113.096">faux, rien ne part</text><line x1="937.82" y1="989.516" x2="2798.743" y2="989.516" style="stroke:#000;stroke-width:1;stroke-dasharray:2,2;"/><polygon points="2437.76,1011.648,2447.76,1015.648,2437.76,1019.648,2441.76,1015.648" fill="#181818" style="stroke:#181818;stroke-width:1;stroke-linejoin:miter;stroke-miterlimit:10;"/><line x1="972.82" y1="1015.648" x2="2443.76" y2="1015.648" style="stroke:#181818;stroke-width:1;"/><text x="979.82" y="1010.583" fill="#000" font-size="13" textLength="18.091" font-weight="700">15</text><text x="1001.911" y="1010.583" fill="#000" font-size="13" textLength="214.214">deliver(Notification.RappelVeille)</text><polygon points="2639.717,1040.781,2649.717,1044.781,2639.717,1048.781,2643.717,1044.781" fill="#181818" style="stroke:#181818;stroke-width:1;stroke-linejoin:miter;stroke-miterlimit:10;"/><line x1="2449.76" y1="1044.781" x2="2645.717" y2="1044.781" style="stroke:#181818;stroke-width:1;"/><text x="2456.76" y="1039.715" fill="#000" font-size="13" textLength="18.091" font-weight="700">16</text><text x="2478.851" y="1039.715" fill="#000" font-size="13" textLength="130.051">rediger(notification)</text><polygon points="2460.76,1069.914,2450.76,1073.914,2460.76,1077.914,2456.76,1073.914" fill="#181818" style="stroke:#181818;stroke-width:1;stroke-linejoin:miter;stroke-miterlimit:10;"/><line x1="2454.76" y1="1073.914" x2="2650.717" y2="1073.914" style="stroke:#181818;stroke-width:1;stroke-dasharray:2,2;"/><text x="2466.76" y="1068.848" fill="#000" font-size="13" textLength="18.091" font-weight="700">17</text><text x="2488.851" y="1068.848" fill="#000" font-size="13" textLength="155.867">MailDraft (gabarit Qute)</text><polygon points="2743.055,1099.047,2753.055,1103.047,2743.055,1107.047,2747.055,1103.047" fill="#181818" style="stroke:#181818;stroke-width:1;stroke-linejoin:miter;stroke-miterlimit:10;"/><line x1="2449.76" y1="1103.047" x2="2749.055" y2="1103.047" style="stroke:#181818;stroke-width:1;"/><text x="2456.76" y="1097.981" fill="#000" font-size="13" textLength="18.091" font-weight="700">18</text><text x="2478.851" y="1097.981" fill="#000" font-size="13" textLength="35.496">envoi</text><path d="M2454.76,1116.047 L2454.76,1171.047 L2776.76,1171.047 L2776.76,1126.047 L2766.76,1116.047 L2454.76,1116.047" style="stroke:#181818;stroke-width:0.5;" fill="#FEFFDD"/><path d="M2766.76,1116.047 L2766.76,1126.047 L2776.76,1126.047 L2766.76,1116.047" style="stroke:#181818;stroke-width:0.5;" fill="#FEFFDD"/><text x="2460.76" y="1133.114" fill="#000" font-size="13" textLength="290.063">le seul catch des mails d'accompagnement :</text><text x="2460.76" y="1148.247" fill="#000" font-size="13" textLength="301.983">un SMTP en panne n'annule rien, et le résultat</text><text x="2460.76" y="1163.379" fill="#000" font-size="13" textLength="299.14">est enregistré contre l'animateur (envoi_mail)</text><polygon points="983.82,1193.578,973.82,1197.578,983.82,1201.578,979.82,1197.578" fill="#181818" style="stroke:#181818;stroke-width:1;stroke-linejoin:miter;stroke-miterlimit:10;"/><line x1="977.82" y1="1197.578" x2="2448.76" y2="1197.578" style="stroke:#181818;stroke-width:1;stroke-dasharray:2,2;"/><text x="989.82" y="1192.512" fill="#000" font-size="13" textLength="18.091" font-weight="700">19</text><text x="1011.911" y="1192.512" fill="#000" font-size="13" textLength="245.032">issue : parti, ou échec et sa catégorie</text><path d="M956.82,1209.578 L1021.263,1209.578 L1021.263,1216.711 L1011.263,1226.711 L956.82,1226.711 L956.82,1209.578" style="stroke:#000;stroke-width:1.5;" fill="#EEE"/><rect x="956.82" y="1209.578" width="1398.846" height="77.398" fill="none" style="stroke:#000;stroke-width:1.5;"/><text x="971.82" y="1222.645" fill="#000" font-size="13" textLength="19.443" font-weight="700">alt</text><text x="1036.263" y="1221.789" fill="#000" font-size="11" textLength="109.769" font-weight="700">[échec de l'envoi]</text><polygon points="1847.328,1253.844,1857.328,1257.844,1847.328,1261.844,1851.328,1257.844" fill="#181818" style="stroke:#181818;stroke-width:1;stroke-linejoin:miter;stroke-miterlimit:10;"/><line x1="972.82" y1="1257.844" x2="1853.328" y2="1257.844" style="stroke:#181818;stroke-width:1;"/><text x="979.82" y="1252.778" fill="#000" font-size="13" textLength="18.091" font-weight="700">20</text><text x="1001.911" y="1252.778" fill="#000" font-size="13" textLength="410.065">claim(RAPPEL_VEILLE_INJOIGNABLE, clé|echec, libellé, ALERTE)</text><path d="M1864.328,1241.711 L1864.328,1281.711 L2334.328,1281.711 L2334.328,1251.711 L2324.328,1241.711 L1864.328,1241.711" style="stroke:#181818;stroke-width:0.5;" fill="#FEFFDD"/><path d="M2324.328,1241.711 L2324.328,1251.711 L2334.328,1251.711 L2324.328,1241.711" style="stroke:#181818;stroke-width:0.5;" fill="#FEFFDD"/><text x="1870.328" y="1258.778" fill="#000" font-size="13" textLength="370.652">la réservation reste : pas de nouvel essai chaque heure ;</text><text x="1870.328" y="1273.911" fill="#000" font-size="13" textLength="449.338">la relance, elle, laisse la personne à NON_VU et rend sa clé à la main</text><line x1="376.82" y1="1364.109" x2="418.82" y2="1364.109" style="stroke:#181818;stroke-width:1;"/><line x1="418.82" y1="1364.109" x2="418.82" y2="1377.109" style="stroke:#181818;stroke-width:1;"/><line x1="377.82" y1="1377.109" x2="418.82" y2="1377.109" style="stroke:#181818;stroke-width:1;"/><polygon points="387.82,1373.109,377.82,1377.109,387.82,1381.109,383.82,1377.109" fill="#181818" style="stroke:#181818;stroke-width:1;stroke-linejoin:miter;stroke-miterlimit:10;"/><text x="383.82" y="1359.043" fill="#000" font-size="13" textLength="18.091" font-weight="700">21</text><text x="405.911" y="1359.043" fill="#000" font-size="13" textLength="429.825">NOTIFICATIONS_ENVOYEES au journal, s'il est parti quelque chose</text><?plantuml-src dLTTRXit47xNAOZqGLAnTeqMGL4NQA4uIYj3aHpPSL70W47jZYGc5BaXbue3vA67w06AFXHnUuI-HJVfIVeDkVfPnocGsh2zMiuCv-URRyPjCMoJMLab5jP9vKWSYrT1LdYerh_d2_APA6rmGalXAMWIwzj2LSeQ8VDAhKZyyykled9MUQ43-LPRU9OcKMffH1ccMgrlCrQFPjNwtPAIY1GpCki_-Qg2H6wrfhoYGt6oaAy2YUWLp96lHD6MK-iAuTQtdjngVOjJCPK-MGe6wXelZ_4eIkczd4URfGvUuD15MmHZJf4v51SsL91p5PjPaiBDC4EpcNLLnWVm7yA5ygMia0ENmNd5PWgXsyfxk2U3q8e2NuD8DAt8fVlNjz38yH9onBx1ajJaAeHKiJUvNPRu03_vSSaoATX3SMcL4uND_HTqKsghAicPFbmMcNZ_bnZ6z4PHZ_ihkyGnKkNP2HDK9Tx_VTZoBvL127A91EKlvyu6KvnORPtux4dysfDmv4jhF3sbcBD7fEthddFsDIeQgBLGC3opjfhQcnPVQC9oIgxLogr1oRLuy2n8zn99FaVC1T3XhineV35uCZZfNGp6e_Fhaybu93f7ug7uF7v_ttqWE71dJOihe79LIbE9aQtKJEKnNdy6wE0JaJz7jLLEhEBJOqEhdw1u0dVefeg6qsDJR2BBalHbBFIfdRBSAdveIX6kpGd6PiejeoUri4id3UbUB6a_NqWptnXDPRxVQ49tBRW1UqFq56rcf6vaOaAbzQgoxWshlKWI7qtSuorWMNe7tuyg_EHKbOGT5UXdj45hoe2HkF31-TEBirWjlwnA51qr4mVVRGe1jFkwwiKac4wtjJbeoBYF7vN1pUb7vJayo1YBhd1glgXmjeYl6Tq0juzSWtHm1p4718tEy5U6Zr8_P6Y8WuBq-ZTkXjFnyyceDxoUz2_w8mRYlWCRYE2MH64rYWO5d90QC0evKyeTeck9dUP18uuLjybnv1RkxqWidTxZYJWw-lhBReiqU42tFpHtlqzqGtceQ60wIJ131xgnsNZPRIhkl6X8TPPImQ91mUye9E3NXOaii7u72aO2cofxrR2pdHQpAvXMjnV02ceJX8lD9Owl3A1Q9J8gY8tTDmcQpjIDzQdUxDIAzIs8bZdN1fu01PM19v5CzoMKisyvXPj8ugQDL4VobNaUE1O0AgUI1PlErQJzYRvjjJW74Q1da_7P-BpVJ-C8ZWCdXe1U1lVcunwL1EVlWYEnHUtAVzs-9yf2peMIcnfUwR3aEJn3MVQcBLf8egsE1FhcgyWlFEzJZRyHYsXcfIgqt9NnB8c4vngvY7djnAaBhWPRufQtC0wucwBLuh5JYcWxJ-CyRHFrCb6_GtOgPMJ5UmT2uTxZmXHjEa2GUhicA6ZYN6nWY9pKL0W7uOvQTYQzixF-yFgoFnWE-zU3qUbuyCEezsZOpx2W_87zGqr9Qyu0GiC2uJYeRZJQu1rk_Bg4QUtXN67rO3SHOdPbjZi8vZax8uFtYkiDAetgQKsQWPHWdfl_KrpFuYQJxP8wA3xm4dNUsUXGwlXhXIMXUbDIij25Av4zWNti5vx0CCLsD-ATA8L1aRRY3Pp-M53K-0Nmi0iq7eljfGVxD3AJuIPhS5-KtiQz7_bk8iN-q60trzcVHuVxaxfRw-zfHSge1nLt0sAVmuJPCx7HsiaTtBtvAR3rsCaPM7ekfn9G4C_0kFVVnxEFMJbkeqcWMOg6QPtABt9-4oSN0vaX3RR1tYVdXfO40afbuGdBEoW6Cv9dslZ3sE5iPZphDEt6tPNXJPYCepbc8rx7eU5uj6p10ZImdzTywNtXx1SkhR77iMGg4pPiDbVSwoL7iBwTOmHloiZmg2LuvstlP-H_TYQZxIsnoVq6xGtxauj-TskwqP-WWngNYOB0nrKzb-8MRCCAmuZNMRLXcJIflhqoh9icHnPRDziiwJmko7dBHG3mH-FHzUNpk6lmni_9uBR02GIPVMlNcEbsV_at_zmxd9jBSNzqEVwvtp_dVoBgT86Nsah7VtPYGJ2hIBFt-S9w-XS0?></g></svg>