<svg xmlns="http://www.w3.org/2000/svg" xmlns:xlink="http://www.w3.org/1999/xlink" version="1.1" data-diagram-type="SEQUENCE" style="width:2307px;height:1175px;background:#FFFFFF;" width="2307px" height="1175px" viewBox="0 0 2307 1175" zoomAndPan="magnify" preserveAspectRatio="none" contentStyleType="text/css"><?plantuml 1.2026.8?><defs/><g font-family="sans-serif" lengthAdjust="spacing"><rect x="42.811" y="336.359" width="556.154" height="56.266" fill="none" style="stroke:#000;stroke-width:1.5;"/><rect x="506.207" y="490.023" width="1781.347" height="317.195" fill="none" style="stroke:#000;stroke-width:1.5;"/><rect x="525.207" y="521.156" width="1737.347" height="272.063" fill="none" style="stroke:#000;stroke-width:1.5;"/><rect x="544.207" y="687.82" width="806.858" height="91.398" fill="none" style="stroke:#000;stroke-width:1.5;"/><rect x="544.207" y="825.219" width="381.92" height="69.266" fill="none" style="stroke:#000;stroke-width:1.5;"/><g><title>Coordinateur</title><rect x="55.311" y="86.297" width="8" height="1078.383" fill="#000" fill-opacity="0"/><line x1="58.811" y1="86.297" x2="58.811" y2="1164.68" style="stroke:#181818;stroke-width:0.5;stroke-dasharray:5,5;"/></g><g><title>PublicationResource</title><rect x="380.832" y="86.297" width="8" height="1078.383" fill="#000" fill-opacity="0"/><line x1="384.332" y1="86.297" x2="384.332" y2="1164.68" style="stroke:#181818;stroke-width:0.5;stroke-dasharray:5,5;"/></g><g><title>PlanPublicationService</title><rect x="556.707" y="86.297" width="8" height="1078.383" fill="#000" fill-opacity="0"/><line x1="560.207" y1="86.297" x2="560.207" y2="1164.68" style="stroke:#181818;stroke-width:0.5;stroke-dasharray:5,5;"/></g><g><title>PlanSnapshotService</title><rect x="1012.113" y="86.297" width="8" height="1078.383" fill="#000" fill-opacity="0"/><line x1="1015.613" y1="86.297" x2="1015.613" y2="1164.68" style="stroke:#181818;stroke-width:0.5;stroke-dasharray:5,5;"/></g><g><title>PlanningExportService</title><rect x="1188.538" y="86.297" width="8" height="1078.383" fill="#000" fill-opacity="0"/><line x1="1192.038" y1="86.297" x2="1192.038" y2="1164.68" style="stroke:#181818;stroke-width:0.5;stroke-dasharray:5,5;"/></g><g><title>MailService</title><rect x="1331.565" y="86.297" width="8" height="1078.383" fill="#000" fill-opacity="0"/><line x1="1335.065" y1="86.297" x2="1335.065" y2="1164.68" style="stroke:#181818;stroke-width:0.5;stroke-dasharray:5,5;"/></g><g><title>PublicationTraceRepository</title><rect x="1491.327" y="86.297" width="8" height="1078.383" fill="#000" fill-opacity="0"/><line x1="1494.827" y1="86.297" x2="1494.827" y2="1164.68" style="stroke:#181818;stroke-width:0.5;stroke-dasharray:5,5;"/></g><g><title>NotifiedPlanRepository</title><rect x="1690.795" y="86.297" width="8" height="1078.383" fill="#000" fill-opacity="0"/><line x1="1694.295" y1="86.297" x2="1694.295" y2="1164.68" style="stroke:#181818;stroke-width:0.5;stroke-dasharray:5,5;"/></g><g><title>DemandeEchangeService</title><rect x="1884.637" y="86.297" width="8" height="1078.383" fill="#000" fill-opacity="0"/><line x1="1888.137" y1="86.297" x2="1888.137" y2="1164.68" style="stroke:#181818;stroke-width:0.5;stroke-dasharray:5,5;"/></g><g><title>ConfirmationPlanningService</title><rect x="2100.119" y="86.297" width="8" height="1078.383" fill="#000" fill-opacity="0"/><line x1="2103.619" y1="86.297" x2="2103.619" y2="1164.68" style="stroke:#181818;stroke-width:0.5;stroke-dasharray:5,5;"/></g><g><title>SMTP</title><rect x="2243.054" y="86.297" width="8" height="1078.383" fill="#000" fill-opacity="0"/><line x1="2246.554" y1="86.297" x2="2246.554" y2="1164.68" style="stroke:#181818;stroke-width:0.5;stroke-dasharray:5,5;"/></g><text x="10" y="82.995" fill="#000" font-size="14" textLength="91.622">Coordinateur</text><ellipse cx="58.811" cy="18.5" rx="8" ry="8" fill="#E2E2F0" style="stroke:#181818;stroke-width:0.5;"/><path d="M58.811,26.5 L58.811,53.5 M45.811,34.5 L71.811,34.5 M58.811,53.5 L45.811,68.5 M58.811,53.5 L71.811,68.5" style="stroke:#181818;stroke-width:0.5;" fill="none"/><rect x="306.225" y="55" width="156.215" height="30.297" fill="#E2E2F0" style="stroke:#181818;stroke-width:0.5;" rx="2.5" ry="2.5"/><text x="313.225" y="74.995" fill="#000" font-size="14" textLength="142.215">PublicationResource</text><rect x="473.906" y="55" width="172.601" height="30.297" fill="#E2E2F0" style="stroke:#181818;stroke-width:0.5;" rx="2.5" ry="2.5"/><text x="480.906" y="74.995" fill="#000" font-size="14" textLength="158.601">PlanPublicationService</text><rect x="935.127" y="55" width="160.973" height="30.297" fill="#E2E2F0" style="stroke:#181818;stroke-width:0.5;" rx="2.5" ry="2.5"/><text x="942.127" y="74.995" fill="#000" font-size="14" textLength="146.973">PlanSnapshotService</text><rect x="1106.1" y="55" width="171.876" height="30.297" fill="#E2E2F0" style="stroke:#181818;stroke-width:0.5;" rx="2.5" ry="2.5"/><text x="1113.1" y="74.995" fill="#000" font-size="14" textLength="157.876">PlanningExportService</text><rect x="1287.976" y="55" width="94.179" height="30.297" fill="#E2E2F0" style="stroke:#181818;stroke-width:0.5;" rx="2.5" ry="2.5"/><text x="1294.976" y="74.995" fill="#000" font-size="14" textLength="80.179">MailService</text><rect x="1392.154" y="55" width="205.345" height="30.297" fill="#E2E2F0" style="stroke:#181818;stroke-width:0.5;" rx="2.5" ry="2.5"/><text x="1399.154" y="74.995" fill="#000" font-size="14" textLength="191.345">PublicationTraceRepository</text><rect x="1607.499" y="55" width="173.592" height="30.297" fill="#E2E2F0" style="stroke:#181818;stroke-width:0.5;" rx="2.5" ry="2.5"/><text x="1614.499" y="74.995" fill="#000" font-size="14" textLength="159.592">NotifiedPlanRepository</text><rect x="1791.091" y="55" width="194.093" height="30.297" fill="#E2E2F0" style="stroke:#181818;stroke-width:0.5;" rx="2.5" ry="2.5"/><text x="1798.091" y="74.995" fill="#000" font-size="14" textLength="180.093">DemandeEchangeService</text><rect x="1995.184" y="55" width="216.87" height="30.297" fill="#E2E2F0" style="stroke:#181818;stroke-width:0.5;" rx="2.5" ry="2.5"/><text x="2002.184" y="74.995" fill="#000" font-size="14" textLength="202.87">ConfirmationPlanningService</text><text x="2224.574" y="82.995" fill="#000" font-size="14" textLength="37.96">SMTP</text><path d="M2226.054,42 L2226.054,66 M2226.054,54 L2243.054,54" style="stroke:#181818;stroke-width:0.5;" fill="none"/><ellipse cx="2255.054" cy="54" rx="12" ry="12" fill="#E2E2F0" style="stroke:#181818;stroke-width:0.5;"/><polygon points="372.332,111.43,382.332,115.43,372.332,119.43,376.332,115.43" fill="#181818" style="stroke:#181818;stroke-width:1;stroke-linejoin:miter;stroke-miterlimit:10;"/><line x1="58.811" y1="115.43" x2="378.332" y2="115.43" style="stroke:#181818;stroke-width:1;"/><text x="65.811" y="110.364" fill="#000" font-size="13" font-weight="700">1</text><text x="78.856" y="110.364" fill="#000" font-size="13" textLength="191.725">GET /api/planning/publication</text><polygon points="548.207,140.563,558.207,144.563,548.207,148.563,552.207,144.563" fill="#181818" style="stroke:#181818;stroke-width:1;stroke-linejoin:miter;stroke-miterlimit:10;"/><line x1="384.332" y1="144.563" x2="554.207" y2="144.563" style="stroke:#181818;stroke-width:1;"/><text x="391.332" y="139.497" fill="#000" font-size="13" font-weight="700">2</text><text x="404.377" y="139.497" fill="#000" font-size="13" textLength="55.091">apercu()</text><path d="M565.207,157.563 L565.207,197.563 L905.207,197.563 L905.207,167.563 L895.207,157.563 L565.207,157.563" style="stroke:#181818;stroke-width:0.5;" fill="#FEFFDD"/><path d="M895.207,157.563 L895.207,167.563 L905.207,167.563 L895.207,157.563" style="stroke:#181818;stroke-width:0.5;" fill="#FEFFDD"/><text x="571.207" y="174.629" fill="#000" font-size="13" textLength="319.154">plan de travail comparé, personne par personne,</text><text x="571.207" y="189.762" fill="#000" font-size="13" textLength="300.003">au dernier plan qu'elle a reçu (plan_notifie_id)</text><polygon points="69.811,219.961,59.811,223.961,69.811,227.961,65.811,223.961" fill="#181818" style="stroke:#181818;stroke-width:1;stroke-linejoin:miter;stroke-miterlimit:10;"/><line x1="63.811" y1="223.961" x2="559.207" y2="223.961" style="stroke:#181818;stroke-width:1;stroke-dasharray:2,2;"/><text x="75.811" y="218.895" fill="#000" font-size="13" font-weight="700">3</text><text x="88.856" y="218.895" fill="#000" font-size="13" textLength="464.35">ApercuPublication (destinataires, changements, journées non validées)</text><polygon points="372.332,249.094,382.332,253.094,372.332,257.094,376.332,253.094" fill="#181818" style="stroke:#181818;stroke-width:1;stroke-linejoin:miter;stroke-miterlimit:10;"/><line x1="58.811" y1="253.094" x2="378.332" y2="253.094" style="stroke:#181818;stroke-width:1;"/><text x="65.811" y="248.028" fill="#000" font-size="13" font-weight="700">4</text><text x="78.856" y="248.028" fill="#000" font-size="13" textLength="288.476">POST /api/planning/publication {exclusions}</text><polygon points="548.207,278.227,558.207,282.227,548.207,286.227,552.207,282.227" fill="#181818" style="stroke:#181818;stroke-width:1;stroke-linejoin:miter;stroke-miterlimit:10;"/><line x1="384.332" y1="282.227" x2="554.207" y2="282.227" style="stroke:#181818;stroke-width:1;"/><text x="391.332" y="277.161" fill="#000" font-size="13" font-weight="700">5</text><text x="404.377" y="277.161" fill="#000" font-size="13" textLength="123.494">publier(exclusions)</text><line x1="560.207" y1="311.359" x2="602.207" y2="311.359" style="stroke:#181818;stroke-width:1;"/><line x1="602.207" y1="311.359" x2="602.207" y2="324.359" style="stroke:#181818;stroke-width:1;"/><line x1="561.207" y1="324.359" x2="602.207" y2="324.359" style="stroke:#181818;stroke-width:1;"/><polygon points="571.207,320.359,561.207,324.359,571.207,328.359,567.207,324.359" fill="#181818" style="stroke:#181818;stroke-width:1;stroke-linejoin:miter;stroke-miterlimit:10;"/><text x="567.207" y="306.293" fill="#000" font-size="13" font-weight="700">6</text><text x="580.252" y="306.293" fill="#000" font-size="13" textLength="55.091">apercu()</text><path d="M42.811,336.359 L107.254,336.359 L107.254,343.492 L97.254,353.492 L42.811,353.492 L42.811,336.359" style="stroke:#000;stroke-width:1.5;" fill="#EEE"/><rect x="42.811" y="336.359" width="556.154" height="56.266" fill="none" style="stroke:#000;stroke-width:1.5;"/><text x="57.811" y="349.426" fill="#000" font-size="13" textLength="19.443" font-weight="700">alt</text><text x="122.254" y="348.57" fill="#000" font-size="11" textLength="460.711" font-weight="700">[solve en cours, plan vide, personne de concerné, ou tout le monde exclu]</text><polygon points="69.811,380.625,59.811,384.625,69.811,388.625,65.811,384.625" fill="#181818" style="stroke:#181818;stroke-width:1;stroke-linejoin:miter;stroke-miterlimit:10;"/><line x1="63.811" y1="384.625" x2="559.207" y2="384.625" style="stroke:#181818;stroke-width:1;stroke-dasharray:2,2;"/><text x="75.811" y="379.559" fill="#000" font-size="13" font-weight="700">7</text><text x="88.856" y="379.559" fill="#000" font-size="13" textLength="24.813">409</text><polygon points="1003.613,423.758,1013.613,427.758,1003.613,431.758,1007.613,427.758" fill="#181818" style="stroke:#181818;stroke-width:1;stroke-linejoin:miter;stroke-miterlimit:10;"/><line x1="560.207" y1="427.758" x2="1009.613" y2="427.758" style="stroke:#181818;stroke-width:1;"/><text x="567.207" y="422.692" fill="#000" font-size="13" font-weight="700">8</text><text x="580.252" y="422.692" fill="#000" font-size="13" textLength="229.023">capturePubliee("Publication du …")</text><path d="M1020.613,440.758 L1020.613,480.758 L1336.613,480.758 L1336.613,450.758 L1326.613,440.758 L1020.613,440.758" style="stroke:#181818;stroke-width:0.5;" fill="#FEFFDD"/><path d="M1326.613,440.758 L1326.613,450.758 L1336.613,450.758 L1326.613,440.758" style="stroke:#181818;stroke-width:0.5;" fill="#FEFFDD"/><text x="1026.613" y="457.825" fill="#000" font-size="13" textLength="218.315">cet instantané EST le plan publié,</text><text x="1026.613" y="472.958" fill="#000" font-size="13" textLength="295.426">exclus compris ; la purge ne le touche jamais</text><path d="M506.207,490.023 L582.831,490.023 L582.831,497.156 L572.831,507.156 L506.207,507.156 L506.207,490.023" style="stroke:#000;stroke-width:1.5;" fill="#EEE"/><rect x="506.207" y="490.023" width="1781.347" height="317.195" fill="none" style="stroke:#000;stroke-width:1.5;"/><text x="521.207" y="503.09" fill="#000" font-size="13" textLength="31.624" font-weight="700">loop</text><text x="597.831" y="502.234" fill="#000" font-size="11" textLength="169.367" font-weight="700">[chaque personne retenue]</text><path d="M525.207,521.156 L589.649,521.156 L589.649,528.289 L579.649,538.289 L525.207,538.289 L525.207,521.156" style="stroke:#000;stroke-width:1.5;" fill="#EEE"/><rect x="525.207" y="521.156" width="1737.347" height="272.063" fill="none" style="stroke:#000;stroke-width:1.5;"/><text x="540.207" y="534.223" fill="#000" font-size="13" textLength="19.443" font-weight="700">alt</text><text x="604.649" y="533.367" fill="#000" font-size="11" textLength="85.422" font-weight="700">[pas d'e-mail]</text><line x1="560.207" y1="569.422" x2="602.207" y2="569.422" style="stroke:#181818;stroke-width:1;"/><line x1="602.207" y1="569.422" x2="602.207" y2="582.422" style="stroke:#181818;stroke-width:1;"/><line x1="561.207" y1="582.422" x2="602.207" y2="582.422" style="stroke:#181818;stroke-width:1;"/><polygon points="571.207,578.422,561.207,582.422,571.207,586.422,567.207,582.422" fill="#181818" style="stroke:#181818;stroke-width:1;stroke-linejoin:miter;stroke-miterlimit:10;"/><text x="567.207" y="564.356" fill="#000" font-size="13" font-weight="700">9</text><text x="580.252" y="564.356" fill="#000" font-size="13" textLength="81.021">SANS_EMAIL</text><line x1="525.207" y1="591.422" x2="2262.554" y2="591.422" style="stroke:#000;stroke-width:1;stroke-dasharray:2,2;"/><polygon points="1180.038,613.555,1190.038,617.555,1180.038,621.555,1184.038,617.555" fill="#181818" style="stroke:#181818;stroke-width:1;stroke-linejoin:miter;stroke-miterlimit:10;"/><line x1="560.207" y1="617.555" x2="1186.038" y2="617.555" style="stroke:#181818;stroke-width:1;"/><text x="567.207" y="612.489" fill="#000" font-size="13" textLength="18.091" font-weight="700">10</text><text x="589.297" y="612.489" fill="#000" font-size="13" textLength="296.302">exportAnimateurPdfPublie(plan, animateurId)</text><polygon points="1323.065,642.688,1333.065,646.688,1323.065,650.688,1327.065,646.688" fill="#181818" style="stroke:#181818;stroke-width:1;stroke-linejoin:miter;stroke-miterlimit:10;"/><line x1="560.207" y1="646.688" x2="1329.065" y2="646.688" style="stroke:#181818;stroke-width:1;"/><text x="567.207" y="641.622" fill="#000" font-size="13" textLength="18.091" font-weight="700">11</text><text x="589.297" y="641.622" fill="#000" font-size="13" textLength="149.354">sendPlanningPublie(...)</text><polygon points="2234.554,671.82,2244.554,675.82,2234.554,679.82,2238.554,675.82" fill="#181818" style="stroke:#181818;stroke-width:1;stroke-linejoin:miter;stroke-miterlimit:10;"/><line x1="1335.065" y1="675.82" x2="2240.554" y2="675.82" style="stroke:#181818;stroke-width:1;"/><text x="1342.065" y="670.754" fill="#000" font-size="13" textLength="18.091" font-weight="700">12</text><text x="1364.156" y="670.754" fill="#000" font-size="13" textLength="100.896">planning + PDF</text><path d="M544.207,687.82 L608.649,687.82 L608.649,694.953 L598.649,704.953 L544.207,704.953 L544.207,687.82" style="stroke:#000;stroke-width:1.5;" fill="#EEE"/><rect x="544.207" y="687.82" width="806.858" height="91.398" fill="none" style="stroke:#000;stroke-width:1.5;"/><text x="559.207" y="700.887" fill="#000" font-size="13" textLength="19.443" font-weight="700">alt</text><text x="623.649" y="700.031" fill="#000" font-size="11" textLength="80.674" font-weight="700">[l'envoi lève]</text><polygon points="571.207,732.086,561.207,736.086,571.207,740.086,567.207,736.086" fill="#181818" style="stroke:#181818;stroke-width:1;stroke-linejoin:miter;stroke-miterlimit:10;"/><line x1="565.207" y1="736.086" x2="1334.065" y2="736.086" style="stroke:#181818;stroke-width:1;stroke-dasharray:2,2;"/><text x="577.207" y="731.02" fill="#000" font-size="13" textLength="18.091" font-weight="700">13</text><text x="599.297" y="731.02" fill="#000" font-size="13" textLength="321.299">exception, attrapée pour cette personne : ECHEC</text><line x1="544.207" y1="745.086" x2="1351.065" y2="745.086" style="stroke:#000;stroke-width:1;stroke-dasharray:2,2;"/><polygon points="571.207,767.219,561.207,771.219,571.207,775.219,567.207,771.219" fill="#181818" style="stroke:#181818;stroke-width:1;stroke-linejoin:miter;stroke-miterlimit:10;"/><line x1="565.207" y1="771.219" x2="1334.065" y2="771.219" style="stroke:#181818;stroke-width:1;stroke-dasharray:2,2;"/><text x="577.207" y="766.153" fill="#000" font-size="13" textLength="18.091" font-weight="700">14</text><text x="599.297" y="766.153" fill="#000" font-size="13" textLength="53.219">ENVOYE</text><path d="M544.207,825.219 L620.831,825.219 L620.831,832.352 L610.831,842.352 L544.207,842.352 L544.207,825.219" style="stroke:#000;stroke-width:1.5;" fill="#EEE"/><rect x="544.207" y="825.219" width="381.92" height="69.266" fill="none" style="stroke:#000;stroke-width:1.5;"/><text x="559.207" y="838.286" fill="#000" font-size="13" textLength="31.624" font-weight="700">loop</text><text x="635.831" y="837.429" fill="#000" font-size="11" textLength="160.778" font-weight="700">[chaque personne exclue]</text><line x1="560.207" y1="873.484" x2="602.207" y2="873.484" style="stroke:#181818;stroke-width:1;"/><line x1="602.207" y1="873.484" x2="602.207" y2="886.484" style="stroke:#181818;stroke-width:1;"/><line x1="561.207" y1="886.484" x2="602.207" y2="886.484" style="stroke:#181818;stroke-width:1;"/><polygon points="571.207,882.484,561.207,886.484,571.207,890.484,567.207,886.484" fill="#181818" style="stroke:#181818;stroke-width:1;stroke-linejoin:miter;stroke-miterlimit:10;"/><text x="567.207" y="868.418" fill="#000" font-size="13" textLength="18.091" font-weight="700">15</text><text x="589.297" y="868.418" fill="#000" font-size="13" textLength="320.83">EXCLU, action PUBLICATION_DIFFEREE au journal</text><polygon points="1482.827,925.617,1492.827,929.617,1482.827,933.617,1486.827,929.617" fill="#181818" style="stroke:#181818;stroke-width:1;stroke-linejoin:miter;stroke-miterlimit:10;"/><line x1="560.207" y1="929.617" x2="1488.827" y2="929.617" style="stroke:#181818;stroke-width:1;"/><text x="567.207" y="924.551" fill="#000" font-size="13" textLength="18.091" font-weight="700">16</text><text x="589.297" y="924.551" fill="#000" font-size="13" textLength="216.557">record(snapshotId, destinataires)</text><polygon points="1682.295,954.75,1692.295,958.75,1682.295,962.75,1686.295,958.75" fill="#181818" style="stroke:#181818;stroke-width:1;stroke-linejoin:miter;stroke-miterlimit:10;"/><line x1="560.207" y1="958.75" x2="1688.295" y2="958.75" style="stroke:#181818;stroke-width:1;"/><text x="567.207" y="953.684" fill="#000" font-size="13" textLength="18.091" font-weight="700">17</text><text x="589.297" y="953.684" fill="#000" font-size="13" textLength="172.98">mark(retenus, snapshotId)</text><path d="M1699.295,971.75 L1699.295,1011.75 L1979.295,1011.75 L1979.295,981.75 L1969.295,971.75 L1699.295,971.75" style="stroke:#181818;stroke-width:0.5;" fill="#FEFFDD"/><path d="M1969.295,971.75 L1969.295,981.75 L1979.295,981.75 L1969.295,971.75" style="stroke:#181818;stroke-width:0.5;" fill="#FEFFDD"/><text x="1705.295" y="988.817" fill="#000" font-size="13" textLength="259.118">seuls les retenus avancent leur repère ;</text><text x="1705.295" y="1003.95" fill="#000" font-size="13" textLength="225.735">un différé le garde (décision 0047)</text><polygon points="1876.137,1034.148,1886.137,1038.148,1876.137,1042.148,1880.137,1038.148" fill="#181818" style="stroke:#181818;stroke-width:1;stroke-linejoin:miter;stroke-miterlimit:10;"/><line x1="560.207" y1="1038.148" x2="1882.137" y2="1038.148" style="stroke:#181818;stroke-width:1;"/><text x="567.207" y="1033.083" fill="#000" font-size="13" textLength="18.091" font-weight="700">18</text><text x="589.297" y="1033.083" fill="#000" font-size="13" textLength="309.747">markAsCommunicated(demandes, maintenant)</text><path d="M1893.137,1051.148 L1893.137,1091.148 L2205.137,1091.148 L2205.137,1061.148 L2195.137,1051.148 L1893.137,1051.148" style="stroke:#181818;stroke-width:0.5;" fill="#FEFFDD"/><path d="M2195.137,1051.148 L2195.137,1061.148 L2205.137,1061.148 L2195.137,1051.148" style="stroke:#181818;stroke-width:0.5;" fill="#FEFFDD"/><text x="1899.137" y="1068.215" fill="#000" font-size="13" textLength="241.738">les décisions d'échange partent avec</text><text x="1899.137" y="1083.348" fill="#000" font-size="13" textLength="291.846">la publication, pas au moment de la décision</text><polygon points="2091.619,1113.547,2101.619,1117.547,2091.619,1121.547,2095.619,1117.547" fill="#181818" style="stroke:#181818;stroke-width:1;stroke-linejoin:miter;stroke-miterlimit:10;"/><line x1="560.207" y1="1117.547" x2="2097.619" y2="1117.547" style="stroke:#181818;stroke-width:1;"/><text x="567.207" y="1112.481" fill="#000" font-size="13" textLength="18.091" font-weight="700">19</text><text x="589.297" y="1112.481" fill="#000" font-size="13" textLength="267.078">reset(retenus dont le planning a changé)</text><polygon points="69.811,1142.68,59.811,1146.68,69.811,1150.68,65.811,1146.68" fill="#181818" style="stroke:#181818;stroke-width:1;stroke-linejoin:miter;stroke-miterlimit:10;"/><line x1="63.811" y1="1146.68" x2="559.207" y2="1146.68" style="stroke:#181818;stroke-width:1;stroke-dasharray:2,2;"/><text x="75.811" y="1141.614" fill="#000" font-size="13" textLength="18.091" font-weight="700">20</text><text x="97.902" y="1141.614" fill="#000" font-size="13" textLength="385.747">RapportPublication (envoyés, sans e-mail, échecs, différés)</text><?plantuml-src XLRRRXit47tVhnYu3v9HMNQA54KTe80Yhri3lWYM7RI00OFU7KcCTyaDoLKS10NwANrge_OJ-XRzIR-aXwGahsGh3H13opqpEtDcvWnRDAZl2ic63gbeYOhD_C-Q5DD8I4T6ig9A62SDlQ92KEN1cN1IutoYdHuRKKqaKy5K5K8bBQfqRSZfslcpKgkSEp2JbkQppC3d_7VA9k9T3GCsLYjyox1ZLNENhXMnccf9xshfyHDTCrooTPJfidBp6Nm92uEtklOFx4YrX37plno7DmLR4hKpRBstnZToEHhDPsO-ymx7mkHCU452PJv7mzNyas5F0f8q6X5ARzr8jq18kJGYvDQ5apSQhEGwi_kYajqoxz3dloER2ulF_uG00oJdJ5eSsls3WnSlEdHmyCst_k_Bxxg9lPSA98kIxaHsFpQwLdbV5zhGLyVXNmE1n2fuuJEsLepvDHVwVSyO_PwS0LSJYRn6Mhix_P201wtgyevDaeZCmTzENskJIoKSrsQ7m9V8IwcIKE9CLaAvPWQNR57CZ2bG7d-lOr7o1dx8PYeZlC7S4ukX4fL5ypJWTd5adu2LLEFqeTAc2UTmi0u-4x9eG4eyscs9NHcHyILNsahGyi7ZdJzQDpZNJeuavpwCTJ3QXSq6-eXBWMPFqJfgpCrWuyawkg_LI9eoHBDCis6JDLxRvCvtXC2dTuPdLuDGDrkw2bNrrQEz7rRLGGF_c5wHxyZzQk5slrcB5H16pUu-93_xMTtUJPJ6B1avdZZIemsGzqbeCR0r1S5XAeK9OxaSD3ol7ZetIjJ06-KL9XY_grjSG1a4OlPIq_QdjofIVIlptQJvnJs46PCyf5u8i3bWxHpAuBjPIEJLeKXqoShX0GfX5CRTaW9qAWgP-wVTvraRN0o_G1jzv8UigCC0__e53gkefUr7z4OwMqaNXOCU5LE608BLsY23mDTK1W5ToHZxtiZOfzOXNQyhBOKF9qJRE7nvy7t2AjyCQZL-W6IYShNXk1QulTCaFA_ftz_-sDdiaJLpA9vKrg791MAa5BmkbaEC2d7Vg4XGQ1-3rR3OBMRCVlK0Zgoo2TDRWJ6sIQ5rjMrf85dFdTV-lCLxVknnjC709kt3tldmDZthdPm2ouNbvqmM8WDu_DLJiWp2ESX7aPtGkntiaCMB4tJlCuw25C6D1VFBMLyuw7QxqIHYV2ams8j1ypZwcWP7nm7YqonQSJyMyq_J6FJAz4cIu9Wh_niHEWniXVQFsnarSWqc3odj_vJsWxiL6TlzfkTlBdv98ngj5F_w_y-MALIQa_yfIFfp__GQSMRXUN3z-lIatxiwkJY_FJevFaulqnHRFOwqA9xhu2ZVy6GumufhBrlo16jvJIMU3EH2os5Q2dFVZcs5wNlqiDdkZnQMwoBUEHPc15d4T2e_aY1wUQruTQDgzNW5yHqUho1jQ5Ay68Ixm9FWbhjZ4LtFzdLPrieZE8VyXPM3O54hXG0mT9l1DZpuE5VVy-FYRrZ-PRZY-Q35bBCRjNxFYpSki5zghwnUWG1O-TcCU6rpXNfOTajMSHSAr3osjuYYFPzjr_rBKVdnMnD-FmKVvZDV9e7FnBdlX2iZPpXTKMrt_mC0?></g></svg>