<svg xmlns="http://www.w3.org/2000/svg" xmlns:xlink="http://www.w3.org/1999/xlink" version="1.1" data-diagram-type="SEQUENCE" style="width:2307px;height:1217px;background:#FFFFFF;" width="2307px" height="1217px" viewBox="0 0 2307 1217" zoomAndPan="magnify" preserveAspectRatio="none" contentStyleType="text/css"><?plantuml 1.2026.8?><defs/><g font-family="sans-serif" lengthAdjust="spacing"><rect x="42.811" y="336.359" width="556.154" height="56.266" fill="none" style="stroke:#000;stroke-width:1.5;"/><rect x="506.207" y="490.023" width="1781.347" height="359.328" fill="none" style="stroke:#000;stroke-width:1.5;"/><rect x="525.207" y="521.156" width="1737.347" height="314.195" fill="none" style="stroke:#000;stroke-width:1.5;"/><rect x="544.207" y="687.82" width="806.858" height="133.531" fill="none" style="stroke:#000;stroke-width:1.5;"/><rect x="544.207" y="867.352" width="381.92" height="69.266" fill="none" style="stroke:#000;stroke-width:1.5;"/><g><title>Coordinateur</title><rect x="55.311" y="86.297" width="8" height="1120.516" fill="#000" fill-opacity="0"/><line x1="58.811" y1="86.297" x2="58.811" y2="1206.813" style="stroke:#181818;stroke-width:0.5;stroke-dasharray:5,5;"/></g><g><title>PublicationResource</title><rect x="380.832" y="86.297" width="8" height="1120.516" fill="#000" fill-opacity="0"/><line x1="384.332" y1="86.297" x2="384.332" y2="1206.813" style="stroke:#181818;stroke-width:0.5;stroke-dasharray:5,5;"/></g><g><title>PlanPublicationService</title><rect x="556.707" y="86.297" width="8" height="1120.516" fill="#000" fill-opacity="0"/><line x1="560.207" y1="86.297" x2="560.207" y2="1206.813" style="stroke:#181818;stroke-width:0.5;stroke-dasharray:5,5;"/></g><g><title>PlanSnapshotService</title><rect x="1012.113" y="86.297" width="8" height="1120.516" fill="#000" fill-opacity="0"/><line x1="1015.613" y1="86.297" x2="1015.613" y2="1206.813" style="stroke:#181818;stroke-width:0.5;stroke-dasharray:5,5;"/></g><g><title>PlanningExportService</title><rect x="1188.538" y="86.297" width="8" height="1120.516" fill="#000" fill-opacity="0"/><line x1="1192.038" y1="86.297" x2="1192.038" y2="1206.813" style="stroke:#181818;stroke-width:0.5;stroke-dasharray:5,5;"/></g><g><title>MailService</title><rect x="1331.565" y="86.297" width="8" height="1120.516" fill="#000" fill-opacity="0"/><line x1="1335.065" y1="86.297" x2="1335.065" y2="1206.813" style="stroke:#181818;stroke-width:0.5;stroke-dasharray:5,5;"/></g><g><title>PublicationTraceRepository</title><rect x="1491.327" y="86.297" width="8" height="1120.516" fill="#000" fill-opacity="0"/><line x1="1494.827" y1="86.297" x2="1494.827" y2="1206.813" style="stroke:#181818;stroke-width:0.5;stroke-dasharray:5,5;"/></g><g><title>NotifiedPlanRepository</title><rect x="1690.795" y="86.297" width="8" height="1120.516" fill="#000" fill-opacity="0"/><line x1="1694.295" y1="86.297" x2="1694.295" y2="1206.813" style="stroke:#181818;stroke-width:0.5;stroke-dasharray:5,5;"/></g><g><title>DemandeEchangeService</title><rect x="1884.637" y="86.297" width="8" height="1120.516" fill="#000" fill-opacity="0"/><line x1="1888.137" y1="86.297" x2="1888.137" y2="1206.813" style="stroke:#181818;stroke-width:0.5;stroke-dasharray:5,5;"/></g><g><title>ConfirmationPlanningService</title><rect x="2100.119" y="86.297" width="8" height="1120.516" fill="#000" fill-opacity="0"/><line x1="2103.619" y1="86.297" x2="2103.619" y2="1206.813" style="stroke:#181818;stroke-width:0.5;stroke-dasharray:5,5;"/></g><g><title>SMTP</title><rect x="2243.054" y="86.297" width="8" height="1120.516" fill="#000" fill-opacity="0"/><line x1="2246.554" y1="86.297" x2="2246.554" y2="1206.813" style="stroke:#181818;stroke-width:0.5;stroke-dasharray:5,5;"/></g><text x="10" y="82.995" fill="#000" font-size="14" textLength="91.622">Coordinateur</text><ellipse cx="58.811" cy="18.5" rx="8" ry="8" fill="#E2E2F0" style="stroke:#181818;stroke-width:0.5;"/><path d="M58.811,26.5 L58.811,53.5 M45.811,34.5 L71.811,34.5 M58.811,53.5 L45.811,68.5 M58.811,53.5 L71.811,68.5" style="stroke:#181818;stroke-width:0.5;" fill="none"/><rect x="306.225" y="55" width="156.215" height="30.297" fill="#E2E2F0" style="stroke:#181818;stroke-width:0.5;" rx="2.5" ry="2.5"/><text x="313.225" y="74.995" fill="#000" font-size="14" textLength="142.215">PublicationResource</text><rect x="473.906" y="55" width="172.601" height="30.297" fill="#E2E2F0" style="stroke:#181818;stroke-width:0.5;" rx="2.5" ry="2.5"/><text x="480.906" y="74.995" fill="#000" font-size="14" textLength="158.601">PlanPublicationService</text><rect x="935.127" y="55" width="160.973" height="30.297" fill="#E2E2F0" style="stroke:#181818;stroke-width:0.5;" rx="2.5" ry="2.5"/><text x="942.127" y="74.995" fill="#000" font-size="14" textLength="146.973">PlanSnapshotService</text><rect x="1106.1" y="55" width="171.876" height="30.297" fill="#E2E2F0" style="stroke:#181818;stroke-width:0.5;" rx="2.5" ry="2.5"/><text x="1113.1" y="74.995" fill="#000" font-size="14" textLength="157.876">PlanningExportService</text><rect x="1287.976" y="55" width="94.179" height="30.297" fill="#E2E2F0" style="stroke:#181818;stroke-width:0.5;" rx="2.5" ry="2.5"/><text x="1294.976" y="74.995" fill="#000" font-size="14" textLength="80.179">MailService</text><rect x="1392.154" y="55" width="205.345" height="30.297" fill="#E2E2F0" style="stroke:#181818;stroke-width:0.5;" rx="2.5" ry="2.5"/><text x="1399.154" y="74.995" fill="#000" font-size="14" textLength="191.345">PublicationTraceRepository</text><rect x="1607.499" y="55" width="173.592" height="30.297" fill="#E2E2F0" style="stroke:#181818;stroke-width:0.5;" rx="2.5" ry="2.5"/><text x="1614.499" y="74.995" fill="#000" font-size="14" textLength="159.592">NotifiedPlanRepository</text><rect x="1791.091" y="55" width="194.093" height="30.297" fill="#E2E2F0" style="stroke:#181818;stroke-width:0.5;" rx="2.5" ry="2.5"/><text x="1798.091" y="74.995" fill="#000" font-size="14" textLength="180.093">DemandeEchangeService</text><rect x="1995.184" y="55" width="216.87" height="30.297" fill="#E2E2F0" style="stroke:#181818;stroke-width:0.5;" rx="2.5" ry="2.5"/><text x="2002.184" y="74.995" fill="#000" font-size="14" textLength="202.87">ConfirmationPlanningService</text><text x="2224.574" y="82.995" fill="#000" font-size="14" textLength="37.96">SMTP</text><path d="M2226.054,42 L2226.054,66 M2226.054,54 L2243.054,54" style="stroke:#181818;stroke-width:0.5;" fill="none"/><ellipse cx="2255.054" cy="54" rx="12" ry="12" fill="#E2E2F0" style="stroke:#181818;stroke-width:0.5;"/><polygon points="372.332,111.43,382.332,115.43,372.332,119.43,376.332,115.43" fill="#181818" style="stroke:#181818;stroke-width:1;stroke-linejoin:miter;stroke-miterlimit:10;"/><line x1="58.811" y1="115.43" x2="378.332" y2="115.43" style="stroke:#181818;stroke-width:1;"/><text x="65.811" y="110.364" fill="#000" font-size="13" font-weight="700">1</text><text x="78.856" y="110.364" fill="#000" font-size="13" textLength="191.725">GET /api/planning/publication</text><polygon points="548.207,140.563,558.207,144.563,548.207,148.563,552.207,144.563" fill="#181818" style="stroke:#181818;stroke-width:1;stroke-linejoin:miter;stroke-miterlimit:10;"/><line x1="384.332" y1="144.563" x2="554.207" y2="144.563" style="stroke:#181818;stroke-width:1;"/><text x="391.332" y="139.497" fill="#000" font-size="13" font-weight="700">2</text><text x="404.377" y="139.497" fill="#000" font-size="13" textLength="55.091">apercu()</text><path d="M565.207,157.563 L565.207,197.563 L905.207,197.563 L905.207,167.563 L895.207,157.563 L565.207,157.563" style="stroke:#181818;stroke-width:0.5;" fill="#FEFFDD"/><path d="M895.207,157.563 L895.207,167.563 L905.207,167.563 L895.207,157.563" style="stroke:#181818;stroke-width:0.5;" fill="#FEFFDD"/><text x="571.207" y="174.629" fill="#000" font-size="13" textLength="319.154">plan de travail comparé, personne par personne,</text><text x="571.207" y="189.762" fill="#000" font-size="13" textLength="300.003">au dernier plan qu'elle a reçu (plan_notifie_id)</text><polygon points="69.811,219.961,59.811,223.961,69.811,227.961,65.811,223.961" fill="#181818" style="stroke:#181818;stroke-width:1;stroke-linejoin:miter;stroke-miterlimit:10;"/><line x1="63.811" y1="223.961" x2="559.207" y2="223.961" style="stroke:#181818;stroke-width:1;stroke-dasharray:2,2;"/><text x="75.811" y="218.895" fill="#000" font-size="13" font-weight="700">3</text><text x="88.856" y="218.895" fill="#000" font-size="13" textLength="464.35">ApercuPublication (destinataires, changements, journées non validées)</text><polygon points="372.332,249.094,382.332,253.094,372.332,257.094,376.332,253.094" fill="#181818" style="stroke:#181818;stroke-width:1;stroke-linejoin:miter;stroke-miterlimit:10;"/><line x1="58.811" y1="253.094" x2="378.332" y2="253.094" style="stroke:#181818;stroke-width:1;"/><text x="65.811" y="248.028" fill="#000" font-size="13" font-weight="700">4</text><text x="78.856" y="248.028" fill="#000" font-size="13" textLength="288.476">POST /api/planning/publication {exclusions}</text><polygon points="548.207,278.227,558.207,282.227,548.207,286.227,552.207,282.227" fill="#181818" style="stroke:#181818;stroke-width:1;stroke-linejoin:miter;stroke-miterlimit:10;"/><line x1="384.332" y1="282.227" x2="554.207" y2="282.227" style="stroke:#181818;stroke-width:1;"/><text x="391.332" y="277.161" fill="#000" font-size="13" font-weight="700">5</text><text x="404.377" y="277.161" fill="#000" font-size="13" textLength="123.494">publier(exclusions)</text><line x1="560.207" y1="311.359" x2="602.207" y2="311.359" style="stroke:#181818;stroke-width:1;"/><line x1="602.207" y1="311.359" x2="602.207" y2="324.359" style="stroke:#181818;stroke-width:1;"/><line x1="561.207" y1="324.359" x2="602.207" y2="324.359" style="stroke:#181818;stroke-width:1;"/><polygon points="571.207,320.359,561.207,324.359,571.207,328.359,567.207,324.359" fill="#181818" style="stroke:#181818;stroke-width:1;stroke-linejoin:miter;stroke-miterlimit:10;"/><text x="567.207" y="306.293" fill="#000" font-size="13" font-weight="700">6</text><text x="580.252" y="306.293" fill="#000" font-size="13" textLength="55.091">apercu()</text><path d="M42.811,336.359 L107.254,336.359 L107.254,343.492 L97.254,353.492 L42.811,353.492 L42.811,336.359" style="stroke:#000;stroke-width:1.5;" fill="#EEE"/><rect x="42.811" y="336.359" width="556.154" height="56.266" fill="none" style="stroke:#000;stroke-width:1.5;"/><text x="57.811" y="349.426" fill="#000" font-size="13" textLength="19.443" font-weight="700">alt</text><text x="122.254" y="348.57" fill="#000" font-size="11" textLength="460.711" font-weight="700">[solve en cours, plan vide, personne de concerné, ou tout le monde exclu]</text><polygon points="69.811,380.625,59.811,384.625,69.811,388.625,65.811,384.625" fill="#181818" style="stroke:#181818;stroke-width:1;stroke-linejoin:miter;stroke-miterlimit:10;"/><line x1="63.811" y1="384.625" x2="559.207" y2="384.625" style="stroke:#181818;stroke-width:1;stroke-dasharray:2,2;"/><text x="75.811" y="379.559" fill="#000" font-size="13" font-weight="700">7</text><text x="88.856" y="379.559" fill="#000" font-size="13" textLength="24.813">409</text><polygon points="1003.613,423.758,1013.613,427.758,1003.613,431.758,1007.613,427.758" fill="#181818" style="stroke:#181818;stroke-width:1;stroke-linejoin:miter;stroke-miterlimit:10;"/><line x1="560.207" y1="427.758" x2="1009.613" y2="427.758" style="stroke:#181818;stroke-width:1;"/><text x="567.207" y="422.692" fill="#000" font-size="13" font-weight="700">8</text><text x="580.252" y="422.692" fill="#000" font-size="13" textLength="229.023">capturePubliee("Publication du …")</text><path d="M1020.613,440.758 L1020.613,480.758 L1336.613,480.758 L1336.613,450.758 L1326.613,440.758 L1020.613,440.758" style="stroke:#181818;stroke-width:0.5;" fill="#FEFFDD"/><path d="M1326.613,440.758 L1326.613,450.758 L1336.613,450.758 L1326.613,440.758" style="stroke:#181818;stroke-width:0.5;" fill="#FEFFDD"/><text x="1026.613" y="457.825" fill="#000" font-size="13" textLength="218.315">cet instantané EST le plan publié,</text><text x="1026.613" y="472.958" fill="#000" font-size="13" textLength="295.426">exclus compris ; la purge ne le touche jamais</text><path d="M506.207,490.023 L582.831,490.023 L582.831,497.156 L572.831,507.156 L506.207,507.156 L506.207,490.023" style="stroke:#000;stroke-width:1.5;" fill="#EEE"/><rect x="506.207" y="490.023" width="1781.347" height="359.328" fill="none" style="stroke:#000;stroke-width:1.5;"/><text x="521.207" y="503.09" fill="#000" font-size="13" textLength="31.624" font-weight="700">loop</text><text x="597.831" y="502.234" fill="#000" font-size="11" textLength="169.367" font-weight="700">[chaque personne retenue]</text><path d="M525.207,521.156 L589.649,521.156 L589.649,528.289 L579.649,538.289 L525.207,538.289 L525.207,521.156" style="stroke:#000;stroke-width:1.5;" fill="#EEE"/><rect x="525.207" y="521.156" width="1737.347" height="314.195" fill="none" style="stroke:#000;stroke-width:1.5;"/><text x="540.207" y="534.223" fill="#000" font-size="13" textLength="19.443" font-weight="700">alt</text><text x="604.649" y="533.367" fill="#000" font-size="11" textLength="85.422" font-weight="700">[pas d'e-mail]</text><line x1="560.207" y1="569.422" x2="602.207" y2="569.422" style="stroke:#181818;stroke-width:1;"/><line x1="602.207" y1="569.422" x2="602.207" y2="582.422" style="stroke:#181818;stroke-width:1;"/><line x1="561.207" y1="582.422" x2="602.207" y2="582.422" style="stroke:#181818;stroke-width:1;"/><polygon points="571.207,578.422,561.207,582.422,571.207,586.422,567.207,582.422" fill="#181818" style="stroke:#181818;stroke-width:1;stroke-linejoin:miter;stroke-miterlimit:10;"/><text x="567.207" y="564.356" fill="#000" font-size="13" font-weight="700">9</text><text x="580.252" y="564.356" fill="#000" font-size="13" textLength="81.021">SANS_EMAIL</text><line x1="525.207" y1="591.422" x2="2262.554" y2="591.422" style="stroke:#000;stroke-width:1;stroke-dasharray:2,2;"/><polygon points="1180.038,613.555,1190.038,617.555,1180.038,621.555,1184.038,617.555" fill="#181818" style="stroke:#181818;stroke-width:1;stroke-linejoin:miter;stroke-miterlimit:10;"/><line x1="560.207" y1="617.555" x2="1186.038" y2="617.555" style="stroke:#181818;stroke-width:1;"/><text x="567.207" y="612.489" fill="#000" font-size="13" textLength="18.091" font-weight="700">10</text><text x="589.297" y="612.489" fill="#000" font-size="13" textLength="296.302">exportAnimateurPdfPublie(plan, animateurId)</text><polygon points="1323.065,642.688,1333.065,646.688,1323.065,650.688,1327.065,646.688" fill="#181818" style="stroke:#181818;stroke-width:1;stroke-linejoin:miter;stroke-miterlimit:10;"/><line x1="560.207" y1="646.688" x2="1329.065" y2="646.688" style="stroke:#181818;stroke-width:1;"/><text x="567.207" y="641.622" fill="#000" font-size="13" textLength="18.091" font-weight="700">11</text><text x="589.297" y="641.622" fill="#000" font-size="13" textLength="149.354">sendPlanningPublie(...)</text><polygon points="2234.554,671.82,2244.554,675.82,2234.554,679.82,2238.554,675.82" fill="#181818" style="stroke:#181818;stroke-width:1;stroke-linejoin:miter;stroke-miterlimit:10;"/><line x1="1335.065" y1="675.82" x2="2240.554" y2="675.82" style="stroke:#181818;stroke-width:1;"/><text x="1342.065" y="670.754" fill="#000" font-size="13" textLength="18.091" font-weight="700">12</text><text x="1364.156" y="670.754" fill="#000" font-size="13" textLength="100.896">planning + PDF</text><path d="M544.207,687.82 L608.649,687.82 L608.649,694.953 L598.649,704.953 L544.207,704.953 L544.207,687.82" style="stroke:#000;stroke-width:1.5;" fill="#EEE"/><rect x="544.207" y="687.82" width="806.858" height="133.531" fill="none" style="stroke:#000;stroke-width:1.5;"/><text x="559.207" y="700.887" fill="#000" font-size="13" textLength="19.443" font-weight="700">alt</text><text x="623.649" y="700.031" fill="#000" font-size="11" textLength="80.674" font-weight="700">[l'envoi lève]</text><polygon points="571.207,732.086,561.207,736.086,571.207,740.086,567.207,736.086" fill="#181818" style="stroke:#181818;stroke-width:1;stroke-linejoin:miter;stroke-miterlimit:10;"/><line x1="565.207" y1="736.086" x2="1334.065" y2="736.086" style="stroke:#181818;stroke-width:1;stroke-dasharray:2,2;"/><text x="577.207" y="731.02" fill="#000" font-size="13" textLength="18.091" font-weight="700">13</text><text x="599.297" y="731.02" fill="#000" font-size="13" textLength="321.299">exception, attrapée pour cette personne : ECHEC</text><line x1="560.207" y1="765.219" x2="602.207" y2="765.219" style="stroke:#181818;stroke-width:1;"/><line x1="602.207" y1="765.219" x2="602.207" y2="778.219" style="stroke:#181818;stroke-width:1;"/><line x1="561.207" y1="778.219" x2="602.207" y2="778.219" style="stroke:#181818;stroke-width:1;"/><polygon points="571.207,774.219,561.207,778.219,571.207,782.219,567.207,778.219" fill="#181818" style="stroke:#181818;stroke-width:1;stroke-linejoin:miter;stroke-miterlimit:10;"/><text x="567.207" y="760.153" fill="#000" font-size="13" textLength="18.091" font-weight="700">14</text><text x="589.297" y="760.153" fill="#000" font-size="13" textLength="251.494">action PUBLICATION_ECHEC au journal</text><line x1="544.207" y1="787.219" x2="1351.065" y2="787.219" style="stroke:#000;stroke-width:1;stroke-dasharray:2,2;"/><polygon points="571.207,809.352,561.207,813.352,571.207,817.352,567.207,813.352" fill="#181818" style="stroke:#181818;stroke-width:1;stroke-linejoin:miter;stroke-miterlimit:10;"/><line x1="565.207" y1="813.352" x2="1334.065" y2="813.352" style="stroke:#181818;stroke-width:1;stroke-dasharray:2,2;"/><text x="577.207" y="808.286" fill="#000" font-size="13" textLength="18.091" font-weight="700">15</text><text x="599.297" y="808.286" fill="#000" font-size="13" textLength="53.219">ENVOYE</text><path d="M544.207,867.352 L620.831,867.352 L620.831,874.484 L610.831,884.484 L544.207,884.484 L544.207,867.352" style="stroke:#000;stroke-width:1.5;" fill="#EEE"/><rect x="544.207" y="867.352" width="381.92" height="69.266" fill="none" style="stroke:#000;stroke-width:1.5;"/><text x="559.207" y="880.418" fill="#000" font-size="13" textLength="31.624" font-weight="700">loop</text><text x="635.831" y="879.562" fill="#000" font-size="11" textLength="160.778" font-weight="700">[chaque personne exclue]</text><line x1="560.207" y1="915.617" x2="602.207" y2="915.617" style="stroke:#181818;stroke-width:1;"/><line x1="602.207" y1="915.617" x2="602.207" y2="928.617" style="stroke:#181818;stroke-width:1;"/><line x1="561.207" y1="928.617" x2="602.207" y2="928.617" style="stroke:#181818;stroke-width:1;"/><polygon points="571.207,924.617,561.207,928.617,571.207,932.617,567.207,928.617" fill="#181818" style="stroke:#181818;stroke-width:1;stroke-linejoin:miter;stroke-miterlimit:10;"/><text x="567.207" y="910.551" fill="#000" font-size="13" textLength="18.091" font-weight="700">16</text><text x="589.297" y="910.551" fill="#000" font-size="13" textLength="320.83">EXCLU, action PUBLICATION_DIFFEREE au journal</text><polygon points="1482.827,967.75,1492.827,971.75,1482.827,975.75,1486.827,971.75" fill="#181818" style="stroke:#181818;stroke-width:1;stroke-linejoin:miter;stroke-miterlimit:10;"/><line x1="560.207" y1="971.75" x2="1488.827" y2="971.75" style="stroke:#181818;stroke-width:1;"/><text x="567.207" y="966.684" fill="#000" font-size="13" textLength="18.091" font-weight="700">17</text><text x="589.297" y="966.684" fill="#000" font-size="13" textLength="284.318">recordRecipients(snapshotId, destinataires)</text><polygon points="1682.295,996.883,1692.295,1000.883,1682.295,1004.883,1686.295,1000.883" fill="#181818" style="stroke:#181818;stroke-width:1;stroke-linejoin:miter;stroke-miterlimit:10;"/><line x1="560.207" y1="1000.883" x2="1688.295" y2="1000.883" style="stroke:#181818;stroke-width:1;"/><text x="567.207" y="995.817" fill="#000" font-size="13" textLength="18.091" font-weight="700">18</text><text x="589.297" y="995.817" fill="#000" font-size="13" textLength="172.98">mark(retenus, snapshotId)</text><path d="M1699.295,1013.883 L1699.295,1053.883 L1979.295,1053.883 L1979.295,1023.883 L1969.295,1013.883 L1699.295,1013.883" style="stroke:#181818;stroke-width:0.5;" fill="#FEFFDD"/><path d="M1969.295,1013.883 L1969.295,1023.883 L1979.295,1023.883 L1969.295,1013.883" style="stroke:#181818;stroke-width:0.5;" fill="#FEFFDD"/><text x="1705.295" y="1030.95" fill="#000" font-size="13" textLength="259.118">seuls les retenus avancent leur repère ;</text><text x="1705.295" y="1046.083" fill="#000" font-size="13" textLength="225.735">un différé le garde (décision 0047)</text><polygon points="1876.137,1076.281,1886.137,1080.281,1876.137,1084.281,1880.137,1080.281" fill="#181818" style="stroke:#181818;stroke-width:1;stroke-linejoin:miter;stroke-miterlimit:10;"/><line x1="560.207" y1="1080.281" x2="1882.137" y2="1080.281" style="stroke:#181818;stroke-width:1;"/><text x="567.207" y="1075.215" fill="#000" font-size="13" textLength="18.091" font-weight="700">19</text><text x="589.297" y="1075.215" fill="#000" font-size="13" textLength="309.747">markAsCommunicated(demandes, maintenant)</text><path d="M1893.137,1093.281 L1893.137,1133.281 L2205.137,1133.281 L2205.137,1103.281 L2195.137,1093.281 L1893.137,1093.281" style="stroke:#181818;stroke-width:0.5;" fill="#FEFFDD"/><path d="M2195.137,1093.281 L2195.137,1103.281 L2205.137,1103.281 L2195.137,1093.281" style="stroke:#181818;stroke-width:0.5;" fill="#FEFFDD"/><text x="1899.137" y="1110.348" fill="#000" font-size="13" textLength="241.738">les décisions d'échange partent avec</text><text x="1899.137" y="1125.481" fill="#000" font-size="13" textLength="291.846">la publication, pas au moment de la décision</text><polygon points="2091.619,1155.68,2101.619,1159.68,2091.619,1163.68,2095.619,1159.68" fill="#181818" style="stroke:#181818;stroke-width:1;stroke-linejoin:miter;stroke-miterlimit:10;"/><line x1="560.207" y1="1159.68" x2="2097.619" y2="1159.68" style="stroke:#181818;stroke-width:1;"/><text x="567.207" y="1154.614" fill="#000" font-size="13" textLength="18.091" font-weight="700">20</text><text x="589.297" y="1154.614" fill="#000" font-size="13" textLength="267.078">reset(retenus dont le planning a changé)</text><polygon points="69.811,1184.813,59.811,1188.813,69.811,1192.813,65.811,1188.813" fill="#181818" style="stroke:#181818;stroke-width:1;stroke-linejoin:miter;stroke-miterlimit:10;"/><line x1="63.811" y1="1188.813" x2="559.207" y2="1188.813" style="stroke:#181818;stroke-width:1;stroke-dasharray:2,2;"/><text x="75.811" y="1183.747" fill="#000" font-size="13" textLength="18.091" font-weight="700">21</text><text x="97.902" y="1183.747" fill="#000" font-size="13" textLength="385.747">RapportPublication (envoyés, sans e-mail, échecs, différés)</text><?plantuml-src XLRRRjj647tdLmpS1yceB3j5Yg8EK42HwTQ0Bu8lGGiOCDRaIDgOtALtbug3e40_fKzjt7v2tw8_wPVqx2ubK_Ab0MA8opF3cJDpPhP3e_gwa6nebugEgDZC_wn9COs5T6GaAwg4STBG6oe4LHwS2ISrpgVQwOaHrLGo5KnL8LJIeKhNXfokdJyhjSgv1pDfQNwV6VYS_qxPLDpMC61ZjSAt33jMDVVfGX6hcPPqMqkFd-gQuPAjeqoNbPlVmvUmC7YlQ__0ZbH763F_ot5uKx0bKJl3rdjhVIENu_7ytipllSE9C3aJNf1GcS_HS3N_RDYJW2IDHeJIMxVIBH1IBeq8kVNXv9q6AxdExBQePB_CU_JbxyXcO_7bdn1WWEISIOj3kxspy-fLZtPslldM_ttzNJ-nDrA1P57IjSXk9aRNAX_gGXlwQZ_yQo6GM0KlVCJMYWc_vK9_61YZFv0pu6egaTTOQtUjxnBme5LTNhD94f4v-DiOQcrogOJZscmG-19vALKIIfp9IYZNpk2KBOgPCGNAu-zLB4hUmf-ncSa8Rp7toE9CYSgYULfmsnpPHs0brIIzgxHfmpaSh8AFX2nQa1AFzhd4pet8-9GhRILe-UZnpX-j6Xnh9yUISn_6AXZjmcODlSUbGBEdQ1qruNQmyMGLFTHgB4qPebcasRB9MgzjSkqxGk3J6sT7vwDGDrkw2bNrrQEj7vRLGGF_c9wJxyZjgd6xtQx54WYZTdVlajT-LdSt4wMX9ICdKqTwl0RoFWaj1hPc83YeKfWWouNGyBnyw5qgKGDlb9ymmVYsxd21oI0GinyrNNzwfIBLLpBVJDfVt4AOCSbT6eG0smBhvfWClfk5H5uzYaINh1mUC26CWjmjAK1def2vVzfychNHoTaBjD4dlikAEWZurnSuhE8ixJwWrz9vbdHHECoZOiOOW62rDiWWy3MJOO0knnZxtiZOfzOZNQzEMWeVJeYUu_3rplS9gtmzgANy0Cb4vMh3SIrmTwDDU5xJlx_ziR7U8olcc7XIMOSc5uYHKl3QB8SO5UA-L96Wq3u6gw7PBMR2VlK0ZgooATDx0HdRfD2wUcvf85dFdP_zUOUtlEnnjCR0EkrdW-Epg_HeS708B1UMdp9fXWpWyTT0oJ8Cpb4-Zko4tkrXXpGl3j2zJpWAemXkB9XVQBrnqE_teqd4-590s8tGF8w-fj7UVe3uD8jEt8_5_FCi1hqqVPGaEERA_qQ43eAjqFvnEwD6hiNaBgN3dz9Xu-xbVit2Zz75syE3uU3yuEJuAjXYvqR1YSZ-ajFdmqkFtvtyaaOqEZB-zV-Vh7Pe64x-9xpqv-7XHU-fAFSEzlVJqpHj1_g44E8MW2V36JRbARPs9VqywIvw_01xVcNiF59uinpWf1JcfXlx579-yB2kdmSBotKHBp6D6M7EGkxAQnoLMznJtbogMZtSQRnaufscYo4NRnhXSl4ekCKoQg8RsA4korfv1EUOfs678LXKJI40g7Wzs9O77-VoUrv__ihcNuOxemzQp3YxLAiNntY5GnrAxKUr7sa0BFsiHxoo2aDbBBi5gxXS1MeUz2BY5fZVFxz8JaNbzRooIRoiFixlVPa4FXC7II_SGJd3wP9gk_aV?></g></svg>