<svg xmlns="http://www.w3.org/2000/svg" xmlns:xlink="http://www.w3.org/1999/xlink" version="1.1" data-diagram-type="SEQUENCE" style="width:2499px;height:1265px;background:#FFFFFF;" width="2499px" height="1265px" viewBox="0 0 2499 1265" zoomAndPan="magnify" preserveAspectRatio="none" contentStyleType="text/css"><?plantuml 1.2026.8?><defs/><g font-family="sans-serif" lengthAdjust="spacing"><rect x="42.811" y="336.359" width="589.813" height="56.266" fill="none" style="stroke:#000;stroke-width:1.5;"/><rect x="562.625" y="519.156" width="1917.149" height="378.133" fill="none" style="stroke:#000;stroke-width:1.5;"/><rect x="581.625" y="550.289" width="1873.149" height="333" fill="none" style="stroke:#000;stroke-width:1.5;"/><rect x="600.625" y="777.891" width="806.858" height="91.398" fill="none" style="stroke:#000;stroke-width:1.5;"/><rect x="600.625" y="915.289" width="381.92" height="69.266" fill="none" style="stroke:#000;stroke-width:1.5;"/><g><title>Coordinateur</title><rect x="55.311" y="86.297" width="8" height="1168.453" fill="#000" fill-opacity="0"/><line x1="58.811" y1="86.297" x2="58.811" y2="1254.75" style="stroke:#181818;stroke-width:0.5;stroke-dasharray:5,5;"/></g><g><title>PublicationResource</title><rect x="380.832" y="86.297" width="8" height="1168.453" fill="#000" fill-opacity="0"/><line x1="384.332" y1="86.297" x2="384.332" y2="1254.75" style="stroke:#181818;stroke-width:0.5;stroke-dasharray:5,5;"/></g><g><title>PlanPublicationService</title><rect x="613.125" y="86.297" width="8" height="1168.453" fill="#000" fill-opacity="0"/><line x1="616.625" y1="86.297" x2="616.625" y2="1254.75" style="stroke:#181818;stroke-width:0.5;stroke-dasharray:5,5;"/></g><g><title>PlanSnapshotService</title><rect x="1068.531" y="86.297" width="8" height="1168.453" fill="#000" fill-opacity="0"/><line x1="1072.031" y1="86.297" x2="1072.031" y2="1254.75" style="stroke:#181818;stroke-width:0.5;stroke-dasharray:5,5;"/></g><g><title>PlanningExportService</title><rect x="1244.956" y="86.297" width="8" height="1168.453" fill="#000" fill-opacity="0"/><line x1="1248.456" y1="86.297" x2="1248.456" y2="1254.75" style="stroke:#181818;stroke-width:0.5;stroke-dasharray:5,5;"/></g><g><title>MailService</title><rect x="1387.983" y="86.297" width="8" height="1168.453" fill="#000" fill-opacity="0"/><line x1="1391.483" y1="86.297" x2="1391.483" y2="1254.75" style="stroke:#181818;stroke-width:0.5;stroke-dasharray:5,5;"/></g><g><title>MailDeliveryLog</title><rect x="1507.973" y="86.297" width="8" height="1168.453" fill="#000" fill-opacity="0"/><line x1="1511.473" y1="86.297" x2="1511.473" y2="1254.75" style="stroke:#181818;stroke-width:0.5;stroke-dasharray:5,5;"/></g><g><title>PublicationTraceRepository</title><rect x="1683.546" y="86.297" width="8" height="1168.453" fill="#000" fill-opacity="0"/><line x1="1687.046" y1="86.297" x2="1687.046" y2="1254.75" style="stroke:#181818;stroke-width:0.5;stroke-dasharray:5,5;"/></g><g><title>NotifiedPlanRepository</title><rect x="1883.015" y="86.297" width="8" height="1168.453" fill="#000" fill-opacity="0"/><line x1="1886.515" y1="86.297" x2="1886.515" y2="1254.75" style="stroke:#181818;stroke-width:0.5;stroke-dasharray:5,5;"/></g><g><title>DemandeEchangeService</title><rect x="2076.857" y="86.297" width="8" height="1168.453" fill="#000" fill-opacity="0"/><line x1="2080.357" y1="86.297" x2="2080.357" y2="1254.75" style="stroke:#181818;stroke-width:0.5;stroke-dasharray:5,5;"/></g><g><title>ConfirmationPlanningService</title><rect x="2292.338" y="86.297" width="8" height="1168.453" fill="#000" fill-opacity="0"/><line x1="2295.838" y1="86.297" x2="2295.838" y2="1254.75" style="stroke:#181818;stroke-width:0.5;stroke-dasharray:5,5;"/></g><g><title>SMTP</title><rect x="2435.273" y="86.297" width="8" height="1168.453" fill="#000" fill-opacity="0"/><line x1="2438.773" y1="86.297" x2="2438.773" y2="1254.75" style="stroke:#181818;stroke-width:0.5;stroke-dasharray:5,5;"/></g><text x="10" y="82.995" fill="#000" font-size="14" textLength="91.622">Coordinateur</text><ellipse cx="58.811" cy="18.5" rx="8" ry="8" fill="#E2E2F0" style="stroke:#181818;stroke-width:0.5;"/><path d="M58.811,26.5 L58.811,53.5 M45.811,34.5 L71.811,34.5 M58.811,53.5 L45.811,68.5 M58.811,53.5 L71.811,68.5" style="stroke:#181818;stroke-width:0.5;" fill="none"/><rect x="306.225" y="55" width="156.215" height="30.297" fill="#E2E2F0" style="stroke:#181818;stroke-width:0.5;" rx="2.5" ry="2.5"/><text x="313.225" y="74.995" fill="#000" font-size="14" textLength="142.215">PublicationResource</text><rect x="530.324" y="55" width="172.601" height="30.297" fill="#E2E2F0" style="stroke:#181818;stroke-width:0.5;" rx="2.5" ry="2.5"/><text x="537.324" y="74.995" fill="#000" font-size="14" textLength="158.601">PlanPublicationService</text><rect x="991.545" y="55" width="160.973" height="30.297" fill="#E2E2F0" style="stroke:#181818;stroke-width:0.5;" rx="2.5" ry="2.5"/><text x="998.545" y="74.995" fill="#000" font-size="14" textLength="146.973">PlanSnapshotService</text><rect x="1162.518" y="55" width="171.876" height="30.297" fill="#E2E2F0" style="stroke:#181818;stroke-width:0.5;" rx="2.5" ry="2.5"/><text x="1169.518" y="74.995" fill="#000" font-size="14" textLength="157.876">PlanningExportService</text><rect x="1344.394" y="55" width="94.179" height="30.297" fill="#E2E2F0" style="stroke:#181818;stroke-width:0.5;" rx="2.5" ry="2.5"/><text x="1351.394" y="74.995" fill="#000" font-size="14" textLength="80.179">MailService</text><rect x="1448.572" y="55" width="125.802" height="30.297" fill="#E2E2F0" style="stroke:#181818;stroke-width:0.5;" rx="2.5" ry="2.5"/><text x="1455.572" y="74.995" fill="#000" font-size="14" textLength="111.802">MailDeliveryLog</text><rect x="1584.374" y="55" width="205.345" height="30.297" fill="#E2E2F0" style="stroke:#181818;stroke-width:0.5;" rx="2.5" ry="2.5"/><text x="1591.374" y="74.995" fill="#000" font-size="14" textLength="191.345">PublicationTraceRepository</text><rect x="1799.719" y="55" width="173.592" height="30.297" fill="#E2E2F0" style="stroke:#181818;stroke-width:0.5;" rx="2.5" ry="2.5"/><text x="1806.719" y="74.995" fill="#000" font-size="14" textLength="159.592">NotifiedPlanRepository</text><rect x="1983.311" y="55" width="194.093" height="30.297" fill="#E2E2F0" style="stroke:#181818;stroke-width:0.5;" rx="2.5" ry="2.5"/><text x="1990.311" y="74.995" fill="#000" font-size="14" textLength="180.093">DemandeEchangeService</text><rect x="2187.403" y="55" width="216.87" height="30.297" fill="#E2E2F0" style="stroke:#181818;stroke-width:0.5;" rx="2.5" ry="2.5"/><text x="2194.403" y="74.995" fill="#000" font-size="14" textLength="202.87">ConfirmationPlanningService</text><text x="2416.793" y="82.995" fill="#000" font-size="14" textLength="37.96">SMTP</text><path d="M2418.273,42 L2418.273,66 M2418.273,54 L2435.273,54" style="stroke:#181818;stroke-width:0.5;" fill="none"/><ellipse cx="2447.273" cy="54" rx="12" ry="12" fill="#E2E2F0" style="stroke:#181818;stroke-width:0.5;"/><polygon points="372.332,111.43,382.332,115.43,372.332,119.43,376.332,115.43" fill="#181818" style="stroke:#181818;stroke-width:1;stroke-linejoin:miter;stroke-miterlimit:10;"/><line x1="58.811" y1="115.43" x2="378.332" y2="115.43" style="stroke:#181818;stroke-width:1;"/><text x="65.811" y="110.364" fill="#000" font-size="13" font-weight="700">1</text><text x="78.856" y="110.364" fill="#000" font-size="13" textLength="191.725">GET /api/planning/publication</text><polygon points="604.625,140.563,614.625,144.563,604.625,148.563,608.625,144.563" fill="#181818" style="stroke:#181818;stroke-width:1;stroke-linejoin:miter;stroke-miterlimit:10;"/><line x1="384.332" y1="144.563" x2="610.625" y2="144.563" style="stroke:#181818;stroke-width:1;"/><text x="391.332" y="139.497" fill="#000" font-size="13" font-weight="700">2</text><text x="404.377" y="139.497" fill="#000" font-size="13" textLength="55.091">apercu()</text><path d="M621.625,157.563 L621.625,197.563 L961.625,197.563 L961.625,167.563 L951.625,157.563 L621.625,157.563" style="stroke:#181818;stroke-width:0.5;" fill="#FEFFDD"/><path d="M951.625,157.563 L951.625,167.563 L961.625,167.563 L951.625,157.563" style="stroke:#181818;stroke-width:0.5;" fill="#FEFFDD"/><text x="627.625" y="174.629" fill="#000" font-size="13" textLength="319.154">plan de travail comparé, personne par personne,</text><text x="627.625" y="189.762" fill="#000" font-size="13" textLength="300.003">au dernier plan qu'elle a reçu (plan_notifie_id)</text><polygon points="69.811,219.961,59.811,223.961,69.811,227.961,65.811,223.961" fill="#181818" style="stroke:#181818;stroke-width:1;stroke-linejoin:miter;stroke-miterlimit:10;"/><line x1="63.811" y1="223.961" x2="615.625" y2="223.961" style="stroke:#181818;stroke-width:1;stroke-dasharray:2,2;"/><text x="75.811" y="218.895" fill="#000" font-size="13" font-weight="700">3</text><text x="88.856" y="218.895" fill="#000" font-size="13" textLength="464.35">ApercuPublication (destinataires, changements, journées non validées)</text><polygon points="372.332,249.094,382.332,253.094,372.332,257.094,376.332,253.094" fill="#181818" style="stroke:#181818;stroke-width:1;stroke-linejoin:miter;stroke-miterlimit:10;"/><line x1="58.811" y1="253.094" x2="378.332" y2="253.094" style="stroke:#181818;stroke-width:1;"/><text x="65.811" y="248.028" fill="#000" font-size="13" font-weight="700">4</text><text x="78.856" y="248.028" fill="#000" font-size="13" textLength="288.476">POST /api/planning/publication {exclusions}</text><polygon points="604.625,278.227,614.625,282.227,604.625,286.227,608.625,282.227" fill="#181818" style="stroke:#181818;stroke-width:1;stroke-linejoin:miter;stroke-miterlimit:10;"/><line x1="384.332" y1="282.227" x2="610.625" y2="282.227" style="stroke:#181818;stroke-width:1;"/><text x="391.332" y="277.161" fill="#000" font-size="13" font-weight="700">5</text><text x="404.377" y="277.161" fill="#000" font-size="13" textLength="123.494">publier(exclusions)</text><line x1="616.625" y1="311.359" x2="658.625" y2="311.359" style="stroke:#181818;stroke-width:1;"/><line x1="658.625" y1="311.359" x2="658.625" y2="324.359" style="stroke:#181818;stroke-width:1;"/><line x1="617.625" y1="324.359" x2="658.625" y2="324.359" style="stroke:#181818;stroke-width:1;"/><polygon points="627.625,320.359,617.625,324.359,627.625,328.359,623.625,324.359" fill="#181818" style="stroke:#181818;stroke-width:1;stroke-linejoin:miter;stroke-miterlimit:10;"/><text x="623.625" y="306.293" fill="#000" font-size="13" font-weight="700">6</text><text x="636.67" y="306.293" fill="#000" font-size="13" textLength="55.091">apercu()</text><path d="M42.811,336.359 L107.254,336.359 L107.254,343.492 L97.254,353.492 L42.811,353.492 L42.811,336.359" style="stroke:#000;stroke-width:1.5;" fill="#EEE"/><rect x="42.811" y="336.359" width="589.813" height="56.266" fill="none" style="stroke:#000;stroke-width:1.5;"/><text x="57.811" y="349.426" fill="#000" font-size="13" textLength="19.443" font-weight="700">alt</text><text x="122.254" y="348.57" fill="#000" font-size="11" textLength="460.711" font-weight="700">[solve en cours, plan vide, personne de concerné, ou tout le monde exclu]</text><polygon points="69.811,380.625,59.811,384.625,69.811,388.625,65.811,384.625" fill="#181818" style="stroke:#181818;stroke-width:1;stroke-linejoin:miter;stroke-miterlimit:10;"/><line x1="63.811" y1="384.625" x2="615.625" y2="384.625" style="stroke:#181818;stroke-width:1;stroke-dasharray:2,2;"/><text x="75.811" y="379.559" fill="#000" font-size="13" font-weight="700">7</text><text x="88.856" y="379.559" fill="#000" font-size="13" textLength="24.813">409</text><polygon points="1060.031,423.758,1070.031,427.758,1060.031,431.758,1064.031,427.758" fill="#181818" style="stroke:#181818;stroke-width:1;stroke-linejoin:miter;stroke-miterlimit:10;"/><line x1="616.625" y1="427.758" x2="1066.031" y2="427.758" style="stroke:#181818;stroke-width:1;"/><text x="623.625" y="422.692" fill="#000" font-size="13" font-weight="700">8</text><text x="636.67" y="422.692" fill="#000" font-size="13" textLength="229.023">capturePubliee("Publication du …")</text><path d="M1077.031,440.758 L1077.031,480.758 L1393.031,480.758 L1393.031,450.758 L1383.031,440.758 L1077.031,440.758" style="stroke:#181818;stroke-width:0.5;" fill="#FEFFDD"/><path d="M1383.031,440.758 L1383.031,450.758 L1393.031,450.758 L1383.031,440.758" style="stroke:#181818;stroke-width:0.5;" fill="#FEFFDD"/><text x="1083.031" y="457.825" fill="#000" font-size="13" textLength="218.315">cet instantané EST le plan publié,</text><text x="1083.031" y="472.958" fill="#000" font-size="13" textLength="295.426">exclus compris ; la purge ne le touche jamais</text><polygon points="1499.473,503.156,1509.473,507.156,1499.473,511.156,1503.473,507.156" fill="#181818" style="stroke:#181818;stroke-width:1;stroke-linejoin:miter;stroke-miterlimit:10;"/><line x1="616.625" y1="507.156" x2="1505.473" y2="507.156" style="stroke:#181818;stroke-width:1;"/><text x="623.625" y="502.09" fill="#000" font-size="13" font-weight="700">9</text><text x="636.67" y="502.09" fill="#000" font-size="13" textLength="127.943">blockedAddresses()</text><path d="M562.625,519.156 L639.249,519.156 L639.249,526.289 L629.249,536.289 L562.625,536.289 L562.625,519.156" style="stroke:#000;stroke-width:1.5;" fill="#EEE"/><rect x="562.625" y="519.156" width="1917.149" height="378.133" fill="none" style="stroke:#000;stroke-width:1.5;"/><text x="577.625" y="532.223" fill="#000" font-size="13" textLength="31.624" font-weight="700">loop</text><text x="654.249" y="531.367" fill="#000" font-size="11" textLength="169.367" font-weight="700">[chaque personne retenue]</text><path d="M581.625,550.289 L646.067,550.289 L646.067,557.422 L636.067,567.422 L581.625,567.422 L581.625,550.289" style="stroke:#000;stroke-width:1.5;" fill="#EEE"/><rect x="581.625" y="550.289" width="1873.149" height="333" fill="none" style="stroke:#000;stroke-width:1.5;"/><text x="596.625" y="563.356" fill="#000" font-size="13" textLength="19.443" font-weight="700">alt</text><text x="661.067" y="562.5" fill="#000" font-size="11" textLength="410.405" font-weight="700">[adresse refusée par le relais au dernier envoi, inchangée depuis]</text><line x1="616.625" y1="598.555" x2="658.625" y2="598.555" style="stroke:#181818;stroke-width:1;"/><line x1="658.625" y1="598.555" x2="658.625" y2="611.555" style="stroke:#181818;stroke-width:1;"/><line x1="617.625" y1="611.555" x2="658.625" y2="611.555" style="stroke:#181818;stroke-width:1;"/><polygon points="627.625,607.555,617.625,611.555,627.625,615.555,623.625,611.555" fill="#181818" style="stroke:#181818;stroke-width:1;stroke-linejoin:miter;stroke-miterlimit:10;"/><text x="623.625" y="593.489" fill="#000" font-size="13" textLength="18.091" font-weight="700">10</text><text x="645.715" y="593.489" fill="#000" font-size="13" textLength="234.121">ADRESSE_REFUSEE, rien n'est tenté</text><line x1="581.625" y1="620.555" x2="2454.773" y2="620.555" style="stroke:#000;stroke-width:1;stroke-dasharray:2,2;"/><text x="586.625" y="632.765" fill="#000" font-size="11" textLength="85.422" font-weight="700">[pas d'e-mail]</text><line x1="616.625" y1="659.492" x2="658.625" y2="659.492" style="stroke:#181818;stroke-width:1;"/><line x1="658.625" y1="659.492" x2="658.625" y2="672.492" style="stroke:#181818;stroke-width:1;"/><line x1="617.625" y1="672.492" x2="658.625" y2="672.492" style="stroke:#181818;stroke-width:1;"/><polygon points="627.625,668.492,617.625,672.492,627.625,676.492,623.625,672.492" fill="#181818" style="stroke:#181818;stroke-width:1;stroke-linejoin:miter;stroke-miterlimit:10;"/><text x="623.625" y="654.426" fill="#000" font-size="13" textLength="18.091" font-weight="700">11</text><text x="645.715" y="654.426" fill="#000" font-size="13" textLength="81.021">SANS_EMAIL</text><line x1="581.625" y1="681.492" x2="2454.773" y2="681.492" style="stroke:#000;stroke-width:1;stroke-dasharray:2,2;"/><polygon points="1236.456,703.625,1246.456,707.625,1236.456,711.625,1240.456,707.625" fill="#181818" style="stroke:#181818;stroke-width:1;stroke-linejoin:miter;stroke-miterlimit:10;"/><line x1="616.625" y1="707.625" x2="1242.456" y2="707.625" style="stroke:#181818;stroke-width:1;"/><text x="623.625" y="702.559" fill="#000" font-size="13" textLength="18.091" font-weight="700">12</text><text x="645.715" y="702.559" fill="#000" font-size="13" textLength="296.302">exportAnimateurPdfPublie(plan, animateurId)</text><polygon points="1379.483,732.758,1389.483,736.758,1379.483,740.758,1383.483,736.758" fill="#181818" style="stroke:#181818;stroke-width:1;stroke-linejoin:miter;stroke-miterlimit:10;"/><line x1="616.625" y1="736.758" x2="1385.483" y2="736.758" style="stroke:#181818;stroke-width:1;"/><text x="623.625" y="731.692" fill="#000" font-size="13" textLength="18.091" font-weight="700">13</text><text x="645.715" y="731.692" fill="#000" font-size="13" textLength="149.354">sendPlanningPublie(...)</text><polygon points="2426.773,761.891,2436.773,765.891,2426.773,769.891,2430.773,765.891" fill="#181818" style="stroke:#181818;stroke-width:1;stroke-linejoin:miter;stroke-miterlimit:10;"/><line x1="1391.483" y1="765.891" x2="2432.773" y2="765.891" style="stroke:#181818;stroke-width:1;"/><text x="1398.483" y="760.825" fill="#000" font-size="13" textLength="18.091" font-weight="700">14</text><text x="1420.574" y="760.825" fill="#000" font-size="13" textLength="100.896">planning + PDF</text><path d="M600.625,777.891 L665.067,777.891 L665.067,785.023 L655.067,795.023 L600.625,795.023 L600.625,777.891" style="stroke:#000;stroke-width:1.5;" fill="#EEE"/><rect x="600.625" y="777.891" width="806.858" height="91.398" fill="none" style="stroke:#000;stroke-width:1.5;"/><text x="615.625" y="790.958" fill="#000" font-size="13" textLength="19.443" font-weight="700">alt</text><text x="680.067" y="790.101" fill="#000" font-size="11" textLength="80.674" font-weight="700">[l'envoi lève]</text><polygon points="627.625,822.156,617.625,826.156,627.625,830.156,623.625,826.156" fill="#181818" style="stroke:#181818;stroke-width:1;stroke-linejoin:miter;stroke-miterlimit:10;"/><line x1="621.625" y1="826.156" x2="1390.483" y2="826.156" style="stroke:#181818;stroke-width:1;stroke-dasharray:2,2;"/><text x="633.625" y="821.09" fill="#000" font-size="13" textLength="18.091" font-weight="700">15</text><text x="655.715" y="821.09" fill="#000" font-size="13" textLength="321.299">exception, attrapée pour cette personne : ECHEC</text><line x1="600.625" y1="835.156" x2="1407.483" y2="835.156" style="stroke:#000;stroke-width:1;stroke-dasharray:2,2;"/><polygon points="627.625,857.289,617.625,861.289,627.625,865.289,623.625,861.289" fill="#181818" style="stroke:#181818;stroke-width:1;stroke-linejoin:miter;stroke-miterlimit:10;"/><line x1="621.625" y1="861.289" x2="1390.483" y2="861.289" style="stroke:#181818;stroke-width:1;stroke-dasharray:2,2;"/><text x="633.625" y="856.223" fill="#000" font-size="13" textLength="18.091" font-weight="700">16</text><text x="655.715" y="856.223" fill="#000" font-size="13" textLength="53.219">ENVOYE</text><path d="M600.625,915.289 L677.249,915.289 L677.249,922.422 L667.249,932.422 L600.625,932.422 L600.625,915.289" style="stroke:#000;stroke-width:1.5;" fill="#EEE"/><rect x="600.625" y="915.289" width="381.92" height="69.266" fill="none" style="stroke:#000;stroke-width:1.5;"/><text x="615.625" y="928.356" fill="#000" font-size="13" textLength="31.624" font-weight="700">loop</text><text x="692.249" y="927.5" fill="#000" font-size="11" textLength="160.778" font-weight="700">[chaque personne exclue]</text><line x1="616.625" y1="963.555" x2="658.625" y2="963.555" style="stroke:#181818;stroke-width:1;"/><line x1="658.625" y1="963.555" x2="658.625" y2="976.555" style="stroke:#181818;stroke-width:1;"/><line x1="617.625" y1="976.555" x2="658.625" y2="976.555" style="stroke:#181818;stroke-width:1;"/><polygon points="627.625,972.555,617.625,976.555,627.625,980.555,623.625,976.555" fill="#181818" style="stroke:#181818;stroke-width:1;stroke-linejoin:miter;stroke-miterlimit:10;"/><text x="623.625" y="958.489" fill="#000" font-size="13" textLength="18.091" font-weight="700">17</text><text x="645.715" y="958.489" fill="#000" font-size="13" textLength="320.83">EXCLU, action PUBLICATION_DIFFEREE au journal</text><polygon points="1675.046,1015.688,1685.046,1019.688,1675.046,1023.688,1679.046,1019.688" fill="#181818" style="stroke:#181818;stroke-width:1;stroke-linejoin:miter;stroke-miterlimit:10;"/><line x1="616.625" y1="1019.688" x2="1681.046" y2="1019.688" style="stroke:#181818;stroke-width:1;"/><text x="623.625" y="1014.622" fill="#000" font-size="13" textLength="18.091" font-weight="700">18</text><text x="645.715" y="1014.622" fill="#000" font-size="13" textLength="284.318">recordRecipients(snapshotId, destinataires)</text><polygon points="1874.515,1044.82,1884.515,1048.82,1874.515,1052.82,1878.515,1048.82" fill="#181818" style="stroke:#181818;stroke-width:1;stroke-linejoin:miter;stroke-miterlimit:10;"/><line x1="616.625" y1="1048.82" x2="1880.515" y2="1048.82" style="stroke:#181818;stroke-width:1;"/><text x="623.625" y="1043.754" fill="#000" font-size="13" textLength="18.091" font-weight="700">19</text><text x="645.715" y="1043.754" fill="#000" font-size="13" textLength="172.98">mark(retenus, snapshotId)</text><path d="M1891.515,1061.82 L1891.515,1101.82 L2171.515,1101.82 L2171.515,1071.82 L2161.515,1061.82 L1891.515,1061.82" style="stroke:#181818;stroke-width:0.5;" fill="#FEFFDD"/><path d="M2161.515,1061.82 L2161.515,1071.82 L2171.515,1071.82 L2161.515,1061.82" style="stroke:#181818;stroke-width:0.5;" fill="#FEFFDD"/><text x="1897.515" y="1078.887" fill="#000" font-size="13" textLength="259.118">seuls les retenus avancent leur repère ;</text><text x="1897.515" y="1094.02" fill="#000" font-size="13" textLength="225.735">un différé le garde (décision 0047)</text><polygon points="2068.357,1124.219,2078.357,1128.219,2068.357,1132.219,2072.357,1128.219" fill="#181818" style="stroke:#181818;stroke-width:1;stroke-linejoin:miter;stroke-miterlimit:10;"/><line x1="616.625" y1="1128.219" x2="2074.357" y2="1128.219" style="stroke:#181818;stroke-width:1;"/><text x="623.625" y="1123.153" fill="#000" font-size="13" textLength="18.091" font-weight="700">20</text><text x="645.715" y="1123.153" fill="#000" font-size="13" textLength="309.747">markAsCommunicated(demandes, maintenant)</text><path d="M2085.357,1141.219 L2085.357,1181.219 L2397.357,1181.219 L2397.357,1151.219 L2387.357,1141.219 L2085.357,1141.219" style="stroke:#181818;stroke-width:0.5;" fill="#FEFFDD"/><path d="M2387.357,1141.219 L2387.357,1151.219 L2397.357,1151.219 L2387.357,1141.219" style="stroke:#181818;stroke-width:0.5;" fill="#FEFFDD"/><text x="2091.357" y="1158.286" fill="#000" font-size="13" textLength="241.738">les décisions d'échange partent avec</text><text x="2091.357" y="1173.418" fill="#000" font-size="13" textLength="291.846">la publication, pas au moment de la décision</text><polygon points="2283.838,1203.617,2293.838,1207.617,2283.838,1211.617,2287.838,1207.617" fill="#181818" style="stroke:#181818;stroke-width:1;stroke-linejoin:miter;stroke-miterlimit:10;"/><line x1="616.625" y1="1207.617" x2="2289.838" y2="1207.617" style="stroke:#181818;stroke-width:1;"/><text x="623.625" y="1202.551" fill="#000" font-size="13" textLength="18.091" font-weight="700">21</text><text x="645.715" y="1202.551" fill="#000" font-size="13" textLength="267.078">reset(retenus dont le planning a changé)</text><polygon points="69.811,1232.75,59.811,1236.75,69.811,1240.75,65.811,1236.75" fill="#181818" style="stroke:#181818;stroke-width:1;stroke-linejoin:miter;stroke-miterlimit:10;"/><line x1="63.811" y1="1236.75" x2="615.625" y2="1236.75" style="stroke:#181818;stroke-width:1;stroke-dasharray:2,2;"/><text x="75.811" y="1231.684" fill="#000" font-size="13" textLength="18.091" font-weight="700">22</text><text x="97.902" y="1231.684" fill="#000" font-size="13" textLength="511.723">RapportPublication (envoyés, sans e-mail, échecs, différés, adresses refusées)</text><?plantuml-src XLPTQYD747xNAHhdGJAHPM_O4EA5W5OU9mR_8TbB0WRJdYb9lPxf7dVtQ6r284V9Kx9EZf2trKroadpLFP97ihLhi9ZfgQgk-ghggsgBy-ecLsJ5liZRiYGx_wiIciHOAY-i8YrAQRsouet8fIXPE9LU6PnFZJSJAykf8f6JA7EfMsrHcieARohFPuNH6NMXffoOFwOMDkT_Y7Ggxoeea7L6uovBddH5FN6f1UcPKUAkKYm_DHN193alKbEKVlu8Mz91uRsf-8Myq6rfxVnlJ-5BJax8objoRArnHwR6u_cZdJ-omOcq6Gby45Ad7AEbSlxH4eE08As1Xugr6-7cS2bJLeROUZ3opW2LpAHkLvQgLsHTyUcVY6QjyUdVu60GoIXL3eTkTs_lrQkksDlxvbl-VVrTh-LkbGR8iX0tChsTM5FfR61oOyLNX-6l8O70IbYX4t9EJkWjvUP3trhpGNWBhAOASOsDyJVclWKSZAwA6xAjbamzx6qDZB6Pqj9JPRS4y99PeNGhf3XLfTI-6S6G79APaWYGn-TLMQIy8JyYErDHl87SCusHbgL3yJJ4NNtadWbhfIV9VMbiKvp2mQhmYLHvGwJ0wtE10yhLZEp3iPa4ErniRbFu5rQcDAJIE0Nm7bZ1yz6gmgdnQgmeOsTNXL5KPDUa3wYGQ8a41QOdr0mfdgnA3umUAri4RnPWD7JIncVNkk6waRXwQtHoSHwowmfV8lUSOx7pmpA7AFCVaml1TRjRrcPtcnbR2aAfsGFxWXaYhJhRBMtGSLPDfbwOyPeGsnGeHA0r0-YXTwKDpRjeHxmlNxfNMbQGjvfvA2ZVLMtAmHyIFZCXTVZqMaUehrMstMhUk0CtOv3xeXySRBPX9mD_SCrBXRYw8W9TaFPu0OzO3L9mGaDq9dELyTlsowYTduq-0vlubUxJl0fj_jjdC2mZutQUfDV2sGYwp3rOAvyHAXUeLXOH1BncAj3iako8QoCb3gqhJBNAno9St19Y4uQlzxvlaSxMdLesAKHIMVhAKXmUrDbg0fvLuh_V_znQhv4LTV2YqiwZo2Ly50bmhKT8z0f-N-a8K2WVYm5IJo0x8HvG44TKwPJ4UubcT-lUnjx6NJUvIMyfwsSPKkB80SVSc7BJ508k3BECqZWTLmub4Iesv_SSbub6mOQBkWWd51QBPiG33uRM85xFQ_zWc8n6oVKmERmS9KatpblTvda7Np3kO8Do5qTRrgOTPhKlsntrJqVNoKd_wBZMVqcbvb28nwU-LaMO2-VPEAOrD5qN8xB-S8IsUy5GO5gOSIYP1KdL1dgzNbI9Cbn3OAIQ8LXEV2tE3mw328EUj-Fup-SVPz7ffUgp854SLF8pFFHWcZ8aYPSF59Tlv7LV98EVaa4mjmHZiztazDtPBqcKHW_4N_v_iMX2YLBh2mb9VXuSNyBFDBoVNxuzFXhqBuxEJgyFZWuFas6IS445BfBvIwqNvmuiMKenmOVO9ah53DPPTDKHzeyLedl6AVKuWf52sjjEB7SGo9E5zOvzqd1KvN6vgjK4c1q4evbL0FbYVtfpfIlzj6jnmyHTgmDQZHjGM7gUERSOVxLtVJSmHL5fbg0C31wc9fn5rZGS06-iEzkmm7ukx-F6uLMIFuPTbfsMCqglzEf26rTBvA4mF1oOH26mjBFkyShm3Pbnv1UeOkaBq3mLkXGrFMmUNKDPSYEkp2xkXuVv8wT9ufh80Dsm6rEAqoNKUAufooqvost_3m00?></g></svg>